G04 #@! TF.FileFunction,Soldermask,Top*
%FSLAX46Y46*%
G04 Gerber Fmt 4.6, Leading zero omitted, Abs format (unit mm)*
G04 Created by KiCad (PCBNEW 4.0.7) date 05/03/18 21:25:46*
%MOMM*%
%LPD*%
G01*
G04 APERTURE LIST*
%ADD10C,0.100000*%
%ADD11C,0.908000*%
%ADD12R,1.400000X1.650000*%
%ADD13R,1.150000X1.200000*%
%ADD14R,2.000000X1.400000*%
%ADD15R,1.200000X1.200000*%
%ADD16R,1.600000X1.300000*%
%ADD17R,2.300000X2.300000*%
%ADD18R,2.000000X2.500000*%
%ADD19R,1.750000X0.800000*%
%ADD20R,3.800000X1.900000*%
%ADD21R,3.900000X1.400000*%
%ADD22R,2.100000X2.100000*%
%ADD23O,2.100000X2.100000*%
%ADD24R,1.100000X1.700000*%
%ADD25R,1.620000X1.050000*%
%ADD26R,0.900000X1.300000*%
%ADD27R,1.300000X0.900000*%
%ADD28R,1.460000X1.050000*%
%ADD29R,1.290000X0.820000*%
%ADD30R,1.240000X1.340000*%
%ADD31R,2.100000X1.050000*%
%ADD32C,1.300000*%
%ADD33R,1.100000X1.900000*%
%ADD34R,1.400000X1.200000*%
%ADD35C,3.600000*%
%ADD36C,1.900000*%
%ADD37R,1.400000X3.550000*%
%ADD38C,0.254000*%
G04 APERTURE END LIST*
D10*
D11*
X166370000Y-102108000D03*
X165100000Y-102108000D03*
X163830000Y-102108000D03*
X162560000Y-102108000D03*
X161290000Y-102108000D03*
X160020000Y-102108000D03*
X158750000Y-102108000D03*
X157480000Y-102108000D03*
X156210000Y-102108000D03*
X154940000Y-102108000D03*
X153670000Y-102108000D03*
X152400000Y-102108000D03*
X151130000Y-102108000D03*
X149860000Y-102108000D03*
X148590000Y-102108000D03*
X166370000Y-103378000D03*
X165100000Y-103378000D03*
X163830000Y-103378000D03*
X162560000Y-103378000D03*
X161290000Y-103378000D03*
X160020000Y-103378000D03*
X158750000Y-103378000D03*
X157480000Y-103378000D03*
X156210000Y-103378000D03*
X154940000Y-103378000D03*
X153670000Y-103378000D03*
X152400000Y-103378000D03*
X151130000Y-103378000D03*
X149860000Y-103378000D03*
X148590000Y-103378000D03*
X166370000Y-104648000D03*
X165100000Y-104648000D03*
X163830000Y-104648000D03*
X162560000Y-104648000D03*
X161290000Y-104648000D03*
X160020000Y-104648000D03*
X158750000Y-104648000D03*
X157480000Y-104648000D03*
X156210000Y-104648000D03*
X154940000Y-104648000D03*
X153670000Y-104648000D03*
X152400000Y-104648000D03*
X151130000Y-104648000D03*
X149860000Y-104648000D03*
X148590000Y-104648000D03*
X166370000Y-105918000D03*
X165100000Y-105918000D03*
X163830000Y-105918000D03*
X162560000Y-105918000D03*
X161290000Y-105918000D03*
X160020000Y-105918000D03*
X158750000Y-105918000D03*
X157480000Y-105918000D03*
X156210000Y-105918000D03*
X154940000Y-105918000D03*
X153670000Y-105918000D03*
X152400000Y-105918000D03*
X151130000Y-105918000D03*
X149860000Y-105918000D03*
X148590000Y-105918000D03*
X166370000Y-107188000D03*
X165100000Y-107188000D03*
X163830000Y-107188000D03*
X162560000Y-107188000D03*
X161290000Y-107188000D03*
X160020000Y-107188000D03*
X158750000Y-107188000D03*
X157480000Y-107188000D03*
X156210000Y-107188000D03*
X154940000Y-107188000D03*
X153670000Y-107188000D03*
X152400000Y-107188000D03*
X151130000Y-107188000D03*
X149860000Y-107188000D03*
X166370000Y-121412000D03*
X165100000Y-121412000D03*
X163830000Y-121412000D03*
X162560000Y-121412000D03*
X161290000Y-121412000D03*
X160020000Y-121412000D03*
X158750000Y-121412000D03*
X157480000Y-121412000D03*
X156210000Y-121412000D03*
X154940000Y-121412000D03*
X153670000Y-121412000D03*
X152400000Y-121412000D03*
X151130000Y-121412000D03*
X149860000Y-121412000D03*
X148590000Y-121412000D03*
X166370000Y-120142000D03*
X165100000Y-120142000D03*
X163830000Y-120142000D03*
X162560000Y-120142000D03*
X161290000Y-120142000D03*
X160020000Y-120142000D03*
X158750000Y-120142000D03*
X157480000Y-120142000D03*
X156210000Y-120142000D03*
X154940000Y-120142000D03*
X153670000Y-120142000D03*
X152400000Y-120142000D03*
X151130000Y-120142000D03*
X149860000Y-120142000D03*
X148590000Y-120142000D03*
X166370000Y-118872000D03*
X165100000Y-118872000D03*
X163830000Y-118872000D03*
X162560000Y-118872000D03*
X161290000Y-118872000D03*
X160020000Y-118872000D03*
X158750000Y-118872000D03*
X157480000Y-118872000D03*
X156210000Y-118872000D03*
X154940000Y-118872000D03*
X153670000Y-118872000D03*
X152400000Y-118872000D03*
X151130000Y-118872000D03*
X149860000Y-118872000D03*
X148590000Y-118872000D03*
X166370000Y-117602000D03*
X165100000Y-117602000D03*
X163830000Y-117602000D03*
X162560000Y-117602000D03*
X161290000Y-117602000D03*
X160020000Y-117602000D03*
X158750000Y-117602000D03*
X157480000Y-117602000D03*
X156210000Y-117602000D03*
X154940000Y-117602000D03*
X153670000Y-117602000D03*
X152400000Y-117602000D03*
X151130000Y-117602000D03*
X149860000Y-117602000D03*
X148590000Y-117602000D03*
X166370000Y-116332000D03*
X165100000Y-116332000D03*
X163830000Y-116332000D03*
X162560000Y-116332000D03*
X161290000Y-116332000D03*
X160020000Y-116332000D03*
X158750000Y-116332000D03*
X157480000Y-116332000D03*
X156210000Y-116332000D03*
X154940000Y-116332000D03*
X153670000Y-116332000D03*
X152400000Y-116332000D03*
X151130000Y-116332000D03*
X149860000Y-116332000D03*
D12*
X193548000Y-106172000D03*
X191548000Y-106172000D03*
D13*
X197612000Y-116066000D03*
X197612000Y-114566000D03*
X194310000Y-116066000D03*
X194310000Y-114566000D03*
D14*
X189992000Y-119912000D03*
X189992000Y-122912000D03*
X177546000Y-118896000D03*
X177546000Y-121896000D03*
D15*
X209461000Y-105156000D03*
X207861000Y-105156000D03*
D16*
X180213000Y-118746000D03*
X180213000Y-122046000D03*
D15*
X196380000Y-97790000D03*
X194780000Y-97790000D03*
D17*
X209042000Y-107910000D03*
X209042000Y-115610000D03*
D18*
X206492000Y-114860000D03*
X206492000Y-108660000D03*
D17*
X209042000Y-110560000D03*
D19*
X206242000Y-113060000D03*
X206242000Y-112410000D03*
X206242000Y-111760000D03*
X206242000Y-111110000D03*
X206242000Y-110460000D03*
D17*
X209042000Y-112960000D03*
D20*
X184682000Y-108360000D03*
X184682000Y-115160000D03*
D21*
X190182000Y-112760000D03*
X190182000Y-110760000D03*
D22*
X137668000Y-110490000D03*
D23*
X137668000Y-113030000D03*
D24*
X185735000Y-125476000D03*
X183835000Y-125476000D03*
D25*
X198160000Y-119822000D03*
X198160000Y-118872000D03*
X198160000Y-117922000D03*
X195540000Y-117922000D03*
X195540000Y-119822000D03*
D26*
X197370000Y-108966000D03*
X198870000Y-108966000D03*
D27*
X199136000Y-111010000D03*
X199136000Y-112510000D03*
X203327000Y-105652000D03*
X203327000Y-104152000D03*
D24*
X183647000Y-117602000D03*
X185547000Y-117602000D03*
D27*
X201168000Y-119825200D03*
X201168000Y-118325200D03*
D26*
X201144000Y-97790000D03*
X199644000Y-97790000D03*
D28*
X194734000Y-110937000D03*
X194734000Y-111887000D03*
X194734000Y-112837000D03*
X196934000Y-112837000D03*
X196934000Y-110937000D03*
D29*
X187056000Y-122425000D03*
X187056000Y-121775000D03*
X187056000Y-121125000D03*
X187056000Y-120475000D03*
X182846000Y-120475000D03*
X182846000Y-121125000D03*
X182846000Y-121775000D03*
X182846000Y-122425000D03*
D30*
X184531000Y-120980000D03*
X184531000Y-121920000D03*
X185371000Y-120980000D03*
X185371000Y-121920000D03*
D31*
X201008000Y-104140000D03*
X201008000Y-102870000D03*
X201008000Y-101600000D03*
X201008000Y-100330000D03*
X193708000Y-100330000D03*
X193708000Y-101600000D03*
X193708000Y-102870000D03*
X193708000Y-104140000D03*
D32*
X195858000Y-125044000D03*
X198858000Y-125044000D03*
D33*
X195108000Y-123284000D03*
X198108000Y-123284000D03*
X199608000Y-123284000D03*
D34*
X193708000Y-126144000D03*
X201008000Y-126144000D03*
X201008000Y-123934000D03*
X193708000Y-123934000D03*
D35*
X138430000Y-123190000D03*
X207010000Y-123190000D03*
X138430000Y-100330000D03*
X207010000Y-100330000D03*
D11*
X148590000Y-116332000D03*
X148590000Y-107188000D03*
D36*
X179578000Y-104775000D03*
D37*
X183261000Y-104887000D03*
X183261000Y-99837000D03*
X185801000Y-104887000D03*
X185801000Y-99837000D03*
X188341000Y-104887000D03*
X188341000Y-99837000D03*
D38*
G36*
X171323000Y-104192606D02*
X171323000Y-107823000D01*
X143891000Y-107823000D01*
X143891000Y-104192606D01*
X148642606Y-99441000D01*
X166571394Y-99441000D01*
X171323000Y-104192606D01*
X171323000Y-104192606D01*
G37*
X171323000Y-104192606D02*
X171323000Y-107823000D01*
X143891000Y-107823000D01*
X143891000Y-104192606D01*
X148642606Y-99441000D01*
X166571394Y-99441000D01*
X171323000Y-104192606D01*
G36*
X171323000Y-119327394D02*
X166571394Y-124079000D01*
X148642606Y-124079000D01*
X143891000Y-119327394D01*
X143891000Y-115697000D01*
X171323000Y-115697000D01*
X171323000Y-119327394D01*
X171323000Y-119327394D01*
G37*
X171323000Y-119327394D02*
X166571394Y-124079000D01*
X148642606Y-124079000D01*
X143891000Y-119327394D01*
X143891000Y-115697000D01*
X171323000Y-115697000D01*
X171323000Y-119327394D01*
M02*
