G04 #@! TF.FileFunction,Copper,L2,Bot,Signal*
%FSLAX46Y46*%
G04 Gerber Fmt 4.6, Leading zero omitted, Abs format (unit mm)*
G04 Created by KiCad (PCBNEW 4.0.7) date 05/03/18 21:25:46*
%MOMM*%
%LPD*%
G01*
G04 APERTURE LIST*
%ADD10C,0.100000*%
%ADD11C,0.508000*%
%ADD12C,6.000000*%
%ADD13R,1.700000X1.500000*%
%ADD14R,1.700000X1.700000*%
%ADD15O,1.700000X1.700000*%
%ADD16R,1.550000X1.300000*%
%ADD17C,0.685800*%
%ADD18C,1.143000*%
%ADD19C,0.254000*%
%ADD20C,0.508000*%
%ADD21C,1.270000*%
G04 APERTURE END LIST*
D10*
D11*
X166370000Y-102108000D03*
X165100000Y-102108000D03*
X163830000Y-102108000D03*
X162560000Y-102108000D03*
X161290000Y-102108000D03*
X160020000Y-102108000D03*
X158750000Y-102108000D03*
X157480000Y-102108000D03*
X156210000Y-102108000D03*
X154940000Y-102108000D03*
X153670000Y-102108000D03*
X152400000Y-102108000D03*
X151130000Y-102108000D03*
X149860000Y-102108000D03*
X148590000Y-102108000D03*
X166370000Y-103378000D03*
X165100000Y-103378000D03*
X163830000Y-103378000D03*
X162560000Y-103378000D03*
X161290000Y-103378000D03*
X160020000Y-103378000D03*
X158750000Y-103378000D03*
X157480000Y-103378000D03*
X156210000Y-103378000D03*
X154940000Y-103378000D03*
X153670000Y-103378000D03*
X152400000Y-103378000D03*
X151130000Y-103378000D03*
X149860000Y-103378000D03*
X148590000Y-103378000D03*
X166370000Y-104648000D03*
X165100000Y-104648000D03*
X163830000Y-104648000D03*
X162560000Y-104648000D03*
X161290000Y-104648000D03*
X160020000Y-104648000D03*
X158750000Y-104648000D03*
X157480000Y-104648000D03*
X156210000Y-104648000D03*
X154940000Y-104648000D03*
X153670000Y-104648000D03*
X152400000Y-104648000D03*
X151130000Y-104648000D03*
X149860000Y-104648000D03*
X148590000Y-104648000D03*
X166370000Y-105918000D03*
X165100000Y-105918000D03*
X163830000Y-105918000D03*
X162560000Y-105918000D03*
X161290000Y-105918000D03*
X160020000Y-105918000D03*
X158750000Y-105918000D03*
X157480000Y-105918000D03*
X156210000Y-105918000D03*
X154940000Y-105918000D03*
X153670000Y-105918000D03*
X152400000Y-105918000D03*
X151130000Y-105918000D03*
X149860000Y-105918000D03*
X148590000Y-105918000D03*
X166370000Y-107188000D03*
X165100000Y-107188000D03*
X163830000Y-107188000D03*
X162560000Y-107188000D03*
X161290000Y-107188000D03*
X160020000Y-107188000D03*
X158750000Y-107188000D03*
X157480000Y-107188000D03*
X156210000Y-107188000D03*
X154940000Y-107188000D03*
X153670000Y-107188000D03*
X152400000Y-107188000D03*
X151130000Y-107188000D03*
X149860000Y-107188000D03*
X166370000Y-121412000D03*
X165100000Y-121412000D03*
X163830000Y-121412000D03*
X162560000Y-121412000D03*
X161290000Y-121412000D03*
X160020000Y-121412000D03*
X158750000Y-121412000D03*
X157480000Y-121412000D03*
X156210000Y-121412000D03*
X154940000Y-121412000D03*
X153670000Y-121412000D03*
X152400000Y-121412000D03*
X151130000Y-121412000D03*
X149860000Y-121412000D03*
X148590000Y-121412000D03*
X166370000Y-120142000D03*
X165100000Y-120142000D03*
X163830000Y-120142000D03*
X162560000Y-120142000D03*
X161290000Y-120142000D03*
X160020000Y-120142000D03*
X158750000Y-120142000D03*
X157480000Y-120142000D03*
X156210000Y-120142000D03*
X154940000Y-120142000D03*
X153670000Y-120142000D03*
X152400000Y-120142000D03*
X151130000Y-120142000D03*
X149860000Y-120142000D03*
X148590000Y-120142000D03*
X166370000Y-118872000D03*
X165100000Y-118872000D03*
X163830000Y-118872000D03*
X162560000Y-118872000D03*
X161290000Y-118872000D03*
X160020000Y-118872000D03*
X158750000Y-118872000D03*
X157480000Y-118872000D03*
X156210000Y-118872000D03*
X154940000Y-118872000D03*
X153670000Y-118872000D03*
X152400000Y-118872000D03*
X151130000Y-118872000D03*
X149860000Y-118872000D03*
X148590000Y-118872000D03*
X166370000Y-117602000D03*
X165100000Y-117602000D03*
X163830000Y-117602000D03*
X162560000Y-117602000D03*
X161290000Y-117602000D03*
X160020000Y-117602000D03*
X158750000Y-117602000D03*
X157480000Y-117602000D03*
X156210000Y-117602000D03*
X154940000Y-117602000D03*
X153670000Y-117602000D03*
X152400000Y-117602000D03*
X151130000Y-117602000D03*
X149860000Y-117602000D03*
X148590000Y-117602000D03*
X166370000Y-116332000D03*
X165100000Y-116332000D03*
X163830000Y-116332000D03*
X162560000Y-116332000D03*
X161290000Y-116332000D03*
X160020000Y-116332000D03*
X158750000Y-116332000D03*
X157480000Y-116332000D03*
X156210000Y-116332000D03*
X154940000Y-116332000D03*
X153670000Y-116332000D03*
X152400000Y-116332000D03*
X151130000Y-116332000D03*
X149860000Y-116332000D03*
D12*
X166370000Y-111760000D03*
D13*
X172770000Y-112910000D03*
X159970000Y-110610000D03*
D12*
X148590000Y-111760000D03*
D13*
X154990000Y-112910000D03*
X142190000Y-110610000D03*
D14*
X137668000Y-110490000D03*
D15*
X137668000Y-113030000D03*
D16*
X189954000Y-114010000D03*
X197904000Y-114010000D03*
X189954000Y-109510000D03*
X197904000Y-109510000D03*
D11*
X148590000Y-116332000D03*
X148590000Y-107188000D03*
D17*
X182753000Y-123825000D03*
X183642000Y-123825000D03*
X184531000Y-123825000D03*
X187198000Y-123825000D03*
X186309000Y-123825000D03*
X185420000Y-123825000D03*
X182753000Y-119126000D03*
X183642000Y-119126000D03*
X187198000Y-119126000D03*
X186309000Y-119126000D03*
X185420000Y-119126000D03*
X184531000Y-119126000D03*
X204216000Y-110490000D03*
X190119000Y-116332000D03*
X193574310Y-111934553D03*
X195961000Y-116078000D03*
X191770000Y-119888000D03*
X198120000Y-121412000D03*
D18*
X175260000Y-113030000D03*
D17*
X199390000Y-102870000D03*
X184683400Y-102387400D03*
X188341000Y-118110000D03*
X197485000Y-104140000D03*
X189865000Y-104902000D03*
X183388000Y-97409000D03*
X202946000Y-113029998D03*
D19*
X184531000Y-123825000D02*
X183642000Y-123825000D01*
X185420000Y-123825000D02*
X186309000Y-123825000D01*
X184531000Y-119126000D02*
X183642000Y-119126000D01*
X185420000Y-119126000D02*
X186309000Y-119126000D01*
D20*
X198120000Y-121412000D02*
X196596000Y-119888000D01*
X196596000Y-119888000D02*
X191770000Y-119888000D01*
D21*
X175260000Y-113030000D02*
X172890000Y-113030000D01*
X172890000Y-113030000D02*
X172770000Y-112910000D01*
X137668000Y-110490000D02*
X142070000Y-110490000D01*
X142070000Y-110490000D02*
X142190000Y-110610000D01*
D19*
X199390000Y-103354933D02*
X199390000Y-102870000D01*
X199390000Y-107120000D02*
X199390000Y-103354933D01*
X197904000Y-108606000D02*
X199390000Y-107120000D01*
X197904000Y-109510000D02*
X197904000Y-108606000D01*
D20*
X189954000Y-109510000D02*
X191237000Y-109510000D01*
X191237000Y-109510000D02*
X197904000Y-109510000D01*
D19*
X188341000Y-106045000D02*
X185026299Y-102730299D01*
X188341000Y-118110000D02*
X188341000Y-106045000D01*
X185026299Y-102730299D02*
X184683400Y-102387400D01*
X197142101Y-104482899D02*
X197485000Y-104140000D01*
X189865000Y-104902000D02*
X196723000Y-104902000D01*
X196723000Y-104902000D02*
X197142101Y-104482899D01*
D20*
X185420000Y-98552000D02*
X184531000Y-98552000D01*
X184531000Y-98552000D02*
X183388000Y-97409000D01*
X185420000Y-98552000D02*
X200660000Y-98552000D01*
X200660000Y-98552000D02*
X202946000Y-100838000D01*
X202946000Y-112545065D02*
X202946000Y-113029998D01*
X202946000Y-100838000D02*
X202946000Y-112545065D01*
D21*
X155090000Y-112910000D02*
X156330000Y-112910000D01*
X156330000Y-112910000D02*
X158630000Y-110610000D01*
X158630000Y-110610000D02*
X159970000Y-110610000D01*
D20*
X154990000Y-112910000D02*
X155090000Y-112910000D01*
D19*
G36*
X182796186Y-97012815D02*
X182689622Y-97269450D01*
X182689379Y-97547331D01*
X182795496Y-97804151D01*
X182991815Y-98000814D01*
X183207107Y-98090211D01*
X184099948Y-98983052D01*
X184297716Y-99115197D01*
X184531000Y-99161600D01*
X200407496Y-99161600D01*
X202336400Y-101090504D01*
X202336400Y-112676647D01*
X202247622Y-112890448D01*
X202247379Y-113168329D01*
X202353496Y-113425149D01*
X202549815Y-113621812D01*
X202806450Y-113728376D01*
X203084331Y-113728619D01*
X203341151Y-113622502D01*
X203537814Y-113426183D01*
X203644378Y-113169548D01*
X203644621Y-112891667D01*
X203555600Y-112676222D01*
X203555600Y-100838000D01*
X203531589Y-100717286D01*
X205054062Y-100717286D01*
X205351157Y-101436311D01*
X205900795Y-101986910D01*
X206619301Y-102285259D01*
X207397286Y-102285938D01*
X208116311Y-101988843D01*
X208666910Y-101439205D01*
X208965259Y-100720699D01*
X208965938Y-99942714D01*
X208668843Y-99223689D01*
X208119205Y-98673090D01*
X207400699Y-98374741D01*
X206622714Y-98374062D01*
X205903689Y-98671157D01*
X205353090Y-99220795D01*
X205054741Y-99939301D01*
X205054062Y-100717286D01*
X203531589Y-100717286D01*
X203509197Y-100604716D01*
X203377052Y-100406948D01*
X201091052Y-98120948D01*
X200893284Y-97988803D01*
X200660000Y-97942400D01*
X184783504Y-97942400D01*
X184068910Y-97227806D01*
X183980504Y-97013849D01*
X183917366Y-96950600D01*
X210389400Y-96950600D01*
X210389400Y-126569400D01*
X135050600Y-126569400D01*
X135050600Y-125203541D01*
X195052260Y-125203541D01*
X195174647Y-125499740D01*
X195401068Y-125726557D01*
X195697053Y-125849460D01*
X196017541Y-125849740D01*
X196313740Y-125727353D01*
X196540557Y-125500932D01*
X196663460Y-125204947D01*
X196663461Y-125203541D01*
X198052260Y-125203541D01*
X198174647Y-125499740D01*
X198401068Y-125726557D01*
X198697053Y-125849460D01*
X199017541Y-125849740D01*
X199313740Y-125727353D01*
X199540557Y-125500932D01*
X199663460Y-125204947D01*
X199663740Y-124884459D01*
X199541353Y-124588260D01*
X199314932Y-124361443D01*
X199018947Y-124238540D01*
X198698459Y-124238260D01*
X198402260Y-124360647D01*
X198175443Y-124587068D01*
X198052540Y-124883053D01*
X198052260Y-125203541D01*
X196663461Y-125203541D01*
X196663740Y-124884459D01*
X196541353Y-124588260D01*
X196314932Y-124361443D01*
X196018947Y-124238540D01*
X195698459Y-124238260D01*
X195402260Y-124360647D01*
X195175443Y-124587068D01*
X195052540Y-124883053D01*
X195052260Y-125203541D01*
X135050600Y-125203541D01*
X135050600Y-123577286D01*
X136474062Y-123577286D01*
X136771157Y-124296311D01*
X137320795Y-124846910D01*
X138039301Y-125145259D01*
X138817286Y-125145938D01*
X139536311Y-124848843D01*
X140086910Y-124299205D01*
X140385259Y-123580699D01*
X140385938Y-122802714D01*
X140088843Y-122083689D01*
X139539205Y-121533090D01*
X138820699Y-121234741D01*
X138042714Y-121234062D01*
X137323689Y-121531157D01*
X136773090Y-122080795D01*
X136474741Y-122799301D01*
X136474062Y-123577286D01*
X135050600Y-123577286D01*
X135050600Y-113030000D01*
X136438781Y-113030000D01*
X136530552Y-113491363D01*
X136791893Y-113882488D01*
X137183018Y-114143829D01*
X137644381Y-114235600D01*
X137691619Y-114235600D01*
X138152982Y-114143829D01*
X138544107Y-113882488D01*
X138805448Y-113491363D01*
X138897219Y-113030000D01*
X138805448Y-112568637D01*
X138544107Y-112177512D01*
X138152982Y-111916171D01*
X137691619Y-111824400D01*
X137644381Y-111824400D01*
X137183018Y-111916171D01*
X136791893Y-112177512D01*
X136530552Y-112568637D01*
X136438781Y-113030000D01*
X135050600Y-113030000D01*
X135050600Y-109640000D01*
X136455434Y-109640000D01*
X136455434Y-111340000D01*
X136480230Y-111471777D01*
X136558110Y-111592807D01*
X136676942Y-111674001D01*
X136818000Y-111702566D01*
X138518000Y-111702566D01*
X138649777Y-111677770D01*
X138770807Y-111599890D01*
X138852001Y-111481058D01*
X138852094Y-111480600D01*
X141000127Y-111480600D01*
X141002230Y-111491777D01*
X141080110Y-111612807D01*
X141198942Y-111694001D01*
X141340000Y-111722566D01*
X143040000Y-111722566D01*
X143171777Y-111697770D01*
X143292807Y-111619890D01*
X143374001Y-111501058D01*
X143402566Y-111360000D01*
X143402566Y-109860000D01*
X143377770Y-109728223D01*
X143299890Y-109607193D01*
X143181058Y-109525999D01*
X143040000Y-109497434D01*
X141340000Y-109497434D01*
X141329552Y-109499400D01*
X138850093Y-109499400D01*
X138777890Y-109387193D01*
X138659058Y-109305999D01*
X138518000Y-109277434D01*
X136818000Y-109277434D01*
X136686223Y-109302230D01*
X136565193Y-109380110D01*
X136483999Y-109498942D01*
X136455434Y-109640000D01*
X135050600Y-109640000D01*
X135050600Y-104140000D01*
X143408400Y-104140000D01*
X143408400Y-119380000D01*
X143434536Y-119513810D01*
X143512553Y-119631447D01*
X148338553Y-124457447D01*
X148451652Y-124533584D01*
X148590000Y-124561600D01*
X166624000Y-124561600D01*
X166757810Y-124535464D01*
X166875447Y-124457447D01*
X167755608Y-123577286D01*
X205054062Y-123577286D01*
X205351157Y-124296311D01*
X205900795Y-124846910D01*
X206619301Y-125145259D01*
X207397286Y-125145938D01*
X208116311Y-124848843D01*
X208666910Y-124299205D01*
X208965259Y-123580699D01*
X208965938Y-122802714D01*
X208668843Y-122083689D01*
X208119205Y-121533090D01*
X207400699Y-121234741D01*
X206622714Y-121234062D01*
X205903689Y-121531157D01*
X205353090Y-122080795D01*
X205054741Y-122799301D01*
X205054062Y-123577286D01*
X167755608Y-123577286D01*
X171306563Y-120026331D01*
X191071379Y-120026331D01*
X191177496Y-120283151D01*
X191373815Y-120479814D01*
X191630450Y-120586378D01*
X191908331Y-120586621D01*
X192123776Y-120497600D01*
X196343496Y-120497600D01*
X197439090Y-121593195D01*
X197527496Y-121807151D01*
X197723815Y-122003814D01*
X197980450Y-122110378D01*
X198258331Y-122110621D01*
X198515151Y-122004504D01*
X198711814Y-121808185D01*
X198818378Y-121551550D01*
X198818621Y-121273669D01*
X198712504Y-121016849D01*
X198516185Y-120820186D01*
X198300895Y-120730790D01*
X197027052Y-119456948D01*
X196829284Y-119324803D01*
X196596000Y-119278400D01*
X192123351Y-119278400D01*
X191909550Y-119189622D01*
X191631669Y-119189379D01*
X191374849Y-119295496D01*
X191178186Y-119491815D01*
X191071622Y-119748450D01*
X191071379Y-120026331D01*
X171306563Y-120026331D01*
X171701447Y-119631447D01*
X171777584Y-119518348D01*
X171805600Y-119380000D01*
X171805600Y-113999399D01*
X171920000Y-114022566D01*
X173620000Y-114022566D01*
X173630448Y-114020600D01*
X175260000Y-114020600D01*
X175639086Y-113945195D01*
X175960460Y-113730460D01*
X176175195Y-113409086D01*
X176250600Y-113030000D01*
X176175195Y-112650914D01*
X175960460Y-112329540D01*
X175639086Y-112114805D01*
X175260000Y-112039400D01*
X173959873Y-112039400D01*
X173957770Y-112028223D01*
X173879890Y-111907193D01*
X173761058Y-111825999D01*
X173620000Y-111797434D01*
X171920000Y-111797434D01*
X171805600Y-111818960D01*
X171805600Y-104140000D01*
X171779464Y-104006190D01*
X171701447Y-103888553D01*
X170338625Y-102525731D01*
X183984779Y-102525731D01*
X184090896Y-102782551D01*
X184287215Y-102979214D01*
X184543850Y-103085778D01*
X184699414Y-103085914D01*
X187858400Y-106244900D01*
X187858400Y-117604792D01*
X187749186Y-117713815D01*
X187642622Y-117970450D01*
X187642379Y-118248331D01*
X187748496Y-118505151D01*
X187944815Y-118701814D01*
X188201450Y-118808378D01*
X188479331Y-118808621D01*
X188736151Y-118702504D01*
X188932814Y-118506185D01*
X189039378Y-118249550D01*
X189039621Y-117971669D01*
X188933504Y-117714849D01*
X188823600Y-117604752D01*
X188823600Y-115023020D01*
X188891242Y-115090662D01*
X189077953Y-115168000D01*
X189700000Y-115168000D01*
X189827000Y-115041000D01*
X189827000Y-114137000D01*
X190081000Y-114137000D01*
X190081000Y-115041000D01*
X190208000Y-115168000D01*
X190830047Y-115168000D01*
X191016758Y-115090662D01*
X191159661Y-114947759D01*
X191237000Y-114761048D01*
X191237000Y-114264000D01*
X196621000Y-114264000D01*
X196621000Y-114761048D01*
X196698339Y-114947759D01*
X196841242Y-115090662D01*
X197027953Y-115168000D01*
X197650000Y-115168000D01*
X197777000Y-115041000D01*
X197777000Y-114137000D01*
X198031000Y-114137000D01*
X198031000Y-115041000D01*
X198158000Y-115168000D01*
X198780047Y-115168000D01*
X198966758Y-115090662D01*
X199109661Y-114947759D01*
X199187000Y-114761048D01*
X199187000Y-114264000D01*
X199060000Y-114137000D01*
X198031000Y-114137000D01*
X197777000Y-114137000D01*
X196748000Y-114137000D01*
X196621000Y-114264000D01*
X191237000Y-114264000D01*
X191110000Y-114137000D01*
X190081000Y-114137000D01*
X189827000Y-114137000D01*
X189807000Y-114137000D01*
X189807000Y-113883000D01*
X189827000Y-113883000D01*
X189827000Y-112979000D01*
X190081000Y-112979000D01*
X190081000Y-113883000D01*
X191110000Y-113883000D01*
X191237000Y-113756000D01*
X191237000Y-113258952D01*
X196621000Y-113258952D01*
X196621000Y-113756000D01*
X196748000Y-113883000D01*
X197777000Y-113883000D01*
X197777000Y-112979000D01*
X198031000Y-112979000D01*
X198031000Y-113883000D01*
X199060000Y-113883000D01*
X199187000Y-113756000D01*
X199187000Y-113258952D01*
X199109661Y-113072241D01*
X198966758Y-112929338D01*
X198780047Y-112852000D01*
X198158000Y-112852000D01*
X198031000Y-112979000D01*
X197777000Y-112979000D01*
X197650000Y-112852000D01*
X197027953Y-112852000D01*
X196841242Y-112929338D01*
X196698339Y-113072241D01*
X196621000Y-113258952D01*
X191237000Y-113258952D01*
X191159661Y-113072241D01*
X191016758Y-112929338D01*
X190830047Y-112852000D01*
X190208000Y-112852000D01*
X190081000Y-112979000D01*
X189827000Y-112979000D01*
X189700000Y-112852000D01*
X189077953Y-112852000D01*
X188891242Y-112929338D01*
X188823600Y-112996980D01*
X188823600Y-110198083D01*
X188841230Y-110291777D01*
X188919110Y-110412807D01*
X189037942Y-110494001D01*
X189179000Y-110522566D01*
X190729000Y-110522566D01*
X190860777Y-110497770D01*
X190981807Y-110419890D01*
X191063001Y-110301058D01*
X191091566Y-110160000D01*
X191091566Y-110119600D01*
X196766434Y-110119600D01*
X196766434Y-110160000D01*
X196791230Y-110291777D01*
X196869110Y-110412807D01*
X196987942Y-110494001D01*
X197129000Y-110522566D01*
X198679000Y-110522566D01*
X198810777Y-110497770D01*
X198931807Y-110419890D01*
X199013001Y-110301058D01*
X199041566Y-110160000D01*
X199041566Y-108860000D01*
X199016770Y-108728223D01*
X198938890Y-108607193D01*
X198820058Y-108525999D01*
X198692360Y-108500140D01*
X199731247Y-107461252D01*
X199731250Y-107461250D01*
X199835864Y-107304683D01*
X199872600Y-107120000D01*
X199872600Y-103375208D01*
X199981814Y-103266185D01*
X200088378Y-103009550D01*
X200088621Y-102731669D01*
X199982504Y-102474849D01*
X199786185Y-102278186D01*
X199529550Y-102171622D01*
X199251669Y-102171379D01*
X198994849Y-102277496D01*
X198798186Y-102473815D01*
X198691622Y-102730450D01*
X198691379Y-103008331D01*
X198797496Y-103265151D01*
X198907400Y-103375248D01*
X198907400Y-106920101D01*
X197562750Y-108264750D01*
X197458136Y-108421317D01*
X197442995Y-108497434D01*
X197129000Y-108497434D01*
X196997223Y-108522230D01*
X196876193Y-108600110D01*
X196794999Y-108718942D01*
X196766434Y-108860000D01*
X196766434Y-108900400D01*
X191091566Y-108900400D01*
X191091566Y-108860000D01*
X191066770Y-108728223D01*
X190988890Y-108607193D01*
X190870058Y-108525999D01*
X190729000Y-108497434D01*
X189179000Y-108497434D01*
X189047223Y-108522230D01*
X188926193Y-108600110D01*
X188844999Y-108718942D01*
X188823600Y-108824613D01*
X188823600Y-106045000D01*
X188786864Y-105860317D01*
X188682250Y-105703750D01*
X188018831Y-105040331D01*
X189166379Y-105040331D01*
X189272496Y-105297151D01*
X189468815Y-105493814D01*
X189725450Y-105600378D01*
X190003331Y-105600621D01*
X190260151Y-105494504D01*
X190370248Y-105384600D01*
X196723000Y-105384600D01*
X196907683Y-105347864D01*
X197064250Y-105243250D01*
X197469014Y-104838486D01*
X197623331Y-104838621D01*
X197880151Y-104732504D01*
X198076814Y-104536185D01*
X198183378Y-104279550D01*
X198183621Y-104001669D01*
X198077504Y-103744849D01*
X197881185Y-103548186D01*
X197624550Y-103441622D01*
X197346669Y-103441379D01*
X197089849Y-103547496D01*
X196893186Y-103743815D01*
X196786622Y-104000450D01*
X196786486Y-104156014D01*
X196523100Y-104419400D01*
X190370208Y-104419400D01*
X190261185Y-104310186D01*
X190004550Y-104203622D01*
X189726669Y-104203379D01*
X189469849Y-104309496D01*
X189273186Y-104505815D01*
X189166622Y-104762450D01*
X189166379Y-105040331D01*
X188018831Y-105040331D01*
X185381886Y-102403386D01*
X185382021Y-102249069D01*
X185275904Y-101992249D01*
X185079585Y-101795586D01*
X184822950Y-101689022D01*
X184545069Y-101688779D01*
X184288249Y-101794896D01*
X184091586Y-101991215D01*
X183985022Y-102247850D01*
X183984779Y-102525731D01*
X170338625Y-102525731D01*
X166875447Y-99062553D01*
X166762348Y-98986416D01*
X166624000Y-98958400D01*
X148590000Y-98958400D01*
X148456190Y-98984536D01*
X148338553Y-99062553D01*
X143512553Y-103888553D01*
X143436416Y-104001652D01*
X143408400Y-104140000D01*
X135050600Y-104140000D01*
X135050600Y-100717286D01*
X136474062Y-100717286D01*
X136771157Y-101436311D01*
X137320795Y-101986910D01*
X138039301Y-102285259D01*
X138817286Y-102285938D01*
X139536311Y-101988843D01*
X140086910Y-101439205D01*
X140385259Y-100720699D01*
X140385938Y-99942714D01*
X140088843Y-99223689D01*
X139539205Y-98673090D01*
X138820699Y-98374741D01*
X138042714Y-98374062D01*
X137323689Y-98671157D01*
X136773090Y-99220795D01*
X136474741Y-99939301D01*
X136474062Y-100717286D01*
X135050600Y-100717286D01*
X135050600Y-96950600D01*
X182858510Y-96950600D01*
X182796186Y-97012815D01*
X182796186Y-97012815D01*
G37*
X182796186Y-97012815D02*
X182689622Y-97269450D01*
X182689379Y-97547331D01*
X182795496Y-97804151D01*
X182991815Y-98000814D01*
X183207107Y-98090211D01*
X184099948Y-98983052D01*
X184297716Y-99115197D01*
X184531000Y-99161600D01*
X200407496Y-99161600D01*
X202336400Y-101090504D01*
X202336400Y-112676647D01*
X202247622Y-112890448D01*
X202247379Y-113168329D01*
X202353496Y-113425149D01*
X202549815Y-113621812D01*
X202806450Y-113728376D01*
X203084331Y-113728619D01*
X203341151Y-113622502D01*
X203537814Y-113426183D01*
X203644378Y-113169548D01*
X203644621Y-112891667D01*
X203555600Y-112676222D01*
X203555600Y-100838000D01*
X203531589Y-100717286D01*
X205054062Y-100717286D01*
X205351157Y-101436311D01*
X205900795Y-101986910D01*
X206619301Y-102285259D01*
X207397286Y-102285938D01*
X208116311Y-101988843D01*
X208666910Y-101439205D01*
X208965259Y-100720699D01*
X208965938Y-99942714D01*
X208668843Y-99223689D01*
X208119205Y-98673090D01*
X207400699Y-98374741D01*
X206622714Y-98374062D01*
X205903689Y-98671157D01*
X205353090Y-99220795D01*
X205054741Y-99939301D01*
X205054062Y-100717286D01*
X203531589Y-100717286D01*
X203509197Y-100604716D01*
X203377052Y-100406948D01*
X201091052Y-98120948D01*
X200893284Y-97988803D01*
X200660000Y-97942400D01*
X184783504Y-97942400D01*
X184068910Y-97227806D01*
X183980504Y-97013849D01*
X183917366Y-96950600D01*
X210389400Y-96950600D01*
X210389400Y-126569400D01*
X135050600Y-126569400D01*
X135050600Y-125203541D01*
X195052260Y-125203541D01*
X195174647Y-125499740D01*
X195401068Y-125726557D01*
X195697053Y-125849460D01*
X196017541Y-125849740D01*
X196313740Y-125727353D01*
X196540557Y-125500932D01*
X196663460Y-125204947D01*
X196663461Y-125203541D01*
X198052260Y-125203541D01*
X198174647Y-125499740D01*
X198401068Y-125726557D01*
X198697053Y-125849460D01*
X199017541Y-125849740D01*
X199313740Y-125727353D01*
X199540557Y-125500932D01*
X199663460Y-125204947D01*
X199663740Y-124884459D01*
X199541353Y-124588260D01*
X199314932Y-124361443D01*
X199018947Y-124238540D01*
X198698459Y-124238260D01*
X198402260Y-124360647D01*
X198175443Y-124587068D01*
X198052540Y-124883053D01*
X198052260Y-125203541D01*
X196663461Y-125203541D01*
X196663740Y-124884459D01*
X196541353Y-124588260D01*
X196314932Y-124361443D01*
X196018947Y-124238540D01*
X195698459Y-124238260D01*
X195402260Y-124360647D01*
X195175443Y-124587068D01*
X195052540Y-124883053D01*
X195052260Y-125203541D01*
X135050600Y-125203541D01*
X135050600Y-123577286D01*
X136474062Y-123577286D01*
X136771157Y-124296311D01*
X137320795Y-124846910D01*
X138039301Y-125145259D01*
X138817286Y-125145938D01*
X139536311Y-124848843D01*
X140086910Y-124299205D01*
X140385259Y-123580699D01*
X140385938Y-122802714D01*
X140088843Y-122083689D01*
X139539205Y-121533090D01*
X138820699Y-121234741D01*
X138042714Y-121234062D01*
X137323689Y-121531157D01*
X136773090Y-122080795D01*
X136474741Y-122799301D01*
X136474062Y-123577286D01*
X135050600Y-123577286D01*
X135050600Y-113030000D01*
X136438781Y-113030000D01*
X136530552Y-113491363D01*
X136791893Y-113882488D01*
X137183018Y-114143829D01*
X137644381Y-114235600D01*
X137691619Y-114235600D01*
X138152982Y-114143829D01*
X138544107Y-113882488D01*
X138805448Y-113491363D01*
X138897219Y-113030000D01*
X138805448Y-112568637D01*
X138544107Y-112177512D01*
X138152982Y-111916171D01*
X137691619Y-111824400D01*
X137644381Y-111824400D01*
X137183018Y-111916171D01*
X136791893Y-112177512D01*
X136530552Y-112568637D01*
X136438781Y-113030000D01*
X135050600Y-113030000D01*
X135050600Y-109640000D01*
X136455434Y-109640000D01*
X136455434Y-111340000D01*
X136480230Y-111471777D01*
X136558110Y-111592807D01*
X136676942Y-111674001D01*
X136818000Y-111702566D01*
X138518000Y-111702566D01*
X138649777Y-111677770D01*
X138770807Y-111599890D01*
X138852001Y-111481058D01*
X138852094Y-111480600D01*
X141000127Y-111480600D01*
X141002230Y-111491777D01*
X141080110Y-111612807D01*
X141198942Y-111694001D01*
X141340000Y-111722566D01*
X143040000Y-111722566D01*
X143171777Y-111697770D01*
X143292807Y-111619890D01*
X143374001Y-111501058D01*
X143402566Y-111360000D01*
X143402566Y-109860000D01*
X143377770Y-109728223D01*
X143299890Y-109607193D01*
X143181058Y-109525999D01*
X143040000Y-109497434D01*
X141340000Y-109497434D01*
X141329552Y-109499400D01*
X138850093Y-109499400D01*
X138777890Y-109387193D01*
X138659058Y-109305999D01*
X138518000Y-109277434D01*
X136818000Y-109277434D01*
X136686223Y-109302230D01*
X136565193Y-109380110D01*
X136483999Y-109498942D01*
X136455434Y-109640000D01*
X135050600Y-109640000D01*
X135050600Y-104140000D01*
X143408400Y-104140000D01*
X143408400Y-119380000D01*
X143434536Y-119513810D01*
X143512553Y-119631447D01*
X148338553Y-124457447D01*
X148451652Y-124533584D01*
X148590000Y-124561600D01*
X166624000Y-124561600D01*
X166757810Y-124535464D01*
X166875447Y-124457447D01*
X167755608Y-123577286D01*
X205054062Y-123577286D01*
X205351157Y-124296311D01*
X205900795Y-124846910D01*
X206619301Y-125145259D01*
X207397286Y-125145938D01*
X208116311Y-124848843D01*
X208666910Y-124299205D01*
X208965259Y-123580699D01*
X208965938Y-122802714D01*
X208668843Y-122083689D01*
X208119205Y-121533090D01*
X207400699Y-121234741D01*
X206622714Y-121234062D01*
X205903689Y-121531157D01*
X205353090Y-122080795D01*
X205054741Y-122799301D01*
X205054062Y-123577286D01*
X167755608Y-123577286D01*
X171306563Y-120026331D01*
X191071379Y-120026331D01*
X191177496Y-120283151D01*
X191373815Y-120479814D01*
X191630450Y-120586378D01*
X191908331Y-120586621D01*
X192123776Y-120497600D01*
X196343496Y-120497600D01*
X197439090Y-121593195D01*
X197527496Y-121807151D01*
X197723815Y-122003814D01*
X197980450Y-122110378D01*
X198258331Y-122110621D01*
X198515151Y-122004504D01*
X198711814Y-121808185D01*
X198818378Y-121551550D01*
X198818621Y-121273669D01*
X198712504Y-121016849D01*
X198516185Y-120820186D01*
X198300895Y-120730790D01*
X197027052Y-119456948D01*
X196829284Y-119324803D01*
X196596000Y-119278400D01*
X192123351Y-119278400D01*
X191909550Y-119189622D01*
X191631669Y-119189379D01*
X191374849Y-119295496D01*
X191178186Y-119491815D01*
X191071622Y-119748450D01*
X191071379Y-120026331D01*
X171306563Y-120026331D01*
X171701447Y-119631447D01*
X171777584Y-119518348D01*
X171805600Y-119380000D01*
X171805600Y-113999399D01*
X171920000Y-114022566D01*
X173620000Y-114022566D01*
X173630448Y-114020600D01*
X175260000Y-114020600D01*
X175639086Y-113945195D01*
X175960460Y-113730460D01*
X176175195Y-113409086D01*
X176250600Y-113030000D01*
X176175195Y-112650914D01*
X175960460Y-112329540D01*
X175639086Y-112114805D01*
X175260000Y-112039400D01*
X173959873Y-112039400D01*
X173957770Y-112028223D01*
X173879890Y-111907193D01*
X173761058Y-111825999D01*
X173620000Y-111797434D01*
X171920000Y-111797434D01*
X171805600Y-111818960D01*
X171805600Y-104140000D01*
X171779464Y-104006190D01*
X171701447Y-103888553D01*
X170338625Y-102525731D01*
X183984779Y-102525731D01*
X184090896Y-102782551D01*
X184287215Y-102979214D01*
X184543850Y-103085778D01*
X184699414Y-103085914D01*
X187858400Y-106244900D01*
X187858400Y-117604792D01*
X187749186Y-117713815D01*
X187642622Y-117970450D01*
X187642379Y-118248331D01*
X187748496Y-118505151D01*
X187944815Y-118701814D01*
X188201450Y-118808378D01*
X188479331Y-118808621D01*
X188736151Y-118702504D01*
X188932814Y-118506185D01*
X189039378Y-118249550D01*
X189039621Y-117971669D01*
X188933504Y-117714849D01*
X188823600Y-117604752D01*
X188823600Y-115023020D01*
X188891242Y-115090662D01*
X189077953Y-115168000D01*
X189700000Y-115168000D01*
X189827000Y-115041000D01*
X189827000Y-114137000D01*
X190081000Y-114137000D01*
X190081000Y-115041000D01*
X190208000Y-115168000D01*
X190830047Y-115168000D01*
X191016758Y-115090662D01*
X191159661Y-114947759D01*
X191237000Y-114761048D01*
X191237000Y-114264000D01*
X196621000Y-114264000D01*
X196621000Y-114761048D01*
X196698339Y-114947759D01*
X196841242Y-115090662D01*
X197027953Y-115168000D01*
X197650000Y-115168000D01*
X197777000Y-115041000D01*
X197777000Y-114137000D01*
X198031000Y-114137000D01*
X198031000Y-115041000D01*
X198158000Y-115168000D01*
X198780047Y-115168000D01*
X198966758Y-115090662D01*
X199109661Y-114947759D01*
X199187000Y-114761048D01*
X199187000Y-114264000D01*
X199060000Y-114137000D01*
X198031000Y-114137000D01*
X197777000Y-114137000D01*
X196748000Y-114137000D01*
X196621000Y-114264000D01*
X191237000Y-114264000D01*
X191110000Y-114137000D01*
X190081000Y-114137000D01*
X189827000Y-114137000D01*
X189807000Y-114137000D01*
X189807000Y-113883000D01*
X189827000Y-113883000D01*
X189827000Y-112979000D01*
X190081000Y-112979000D01*
X190081000Y-113883000D01*
X191110000Y-113883000D01*
X191237000Y-113756000D01*
X191237000Y-113258952D01*
X196621000Y-113258952D01*
X196621000Y-113756000D01*
X196748000Y-113883000D01*
X197777000Y-113883000D01*
X197777000Y-112979000D01*
X198031000Y-112979000D01*
X198031000Y-113883000D01*
X199060000Y-113883000D01*
X199187000Y-113756000D01*
X199187000Y-113258952D01*
X199109661Y-113072241D01*
X198966758Y-112929338D01*
X198780047Y-112852000D01*
X198158000Y-112852000D01*
X198031000Y-112979000D01*
X197777000Y-112979000D01*
X197650000Y-112852000D01*
X197027953Y-112852000D01*
X196841242Y-112929338D01*
X196698339Y-113072241D01*
X196621000Y-113258952D01*
X191237000Y-113258952D01*
X191159661Y-113072241D01*
X191016758Y-112929338D01*
X190830047Y-112852000D01*
X190208000Y-112852000D01*
X190081000Y-112979000D01*
X189827000Y-112979000D01*
X189700000Y-112852000D01*
X189077953Y-112852000D01*
X188891242Y-112929338D01*
X188823600Y-112996980D01*
X188823600Y-110198083D01*
X188841230Y-110291777D01*
X188919110Y-110412807D01*
X189037942Y-110494001D01*
X189179000Y-110522566D01*
X190729000Y-110522566D01*
X190860777Y-110497770D01*
X190981807Y-110419890D01*
X191063001Y-110301058D01*
X191091566Y-110160000D01*
X191091566Y-110119600D01*
X196766434Y-110119600D01*
X196766434Y-110160000D01*
X196791230Y-110291777D01*
X196869110Y-110412807D01*
X196987942Y-110494001D01*
X197129000Y-110522566D01*
X198679000Y-110522566D01*
X198810777Y-110497770D01*
X198931807Y-110419890D01*
X199013001Y-110301058D01*
X199041566Y-110160000D01*
X199041566Y-108860000D01*
X199016770Y-108728223D01*
X198938890Y-108607193D01*
X198820058Y-108525999D01*
X198692360Y-108500140D01*
X199731247Y-107461252D01*
X199731250Y-107461250D01*
X199835864Y-107304683D01*
X199872600Y-107120000D01*
X199872600Y-103375208D01*
X199981814Y-103266185D01*
X200088378Y-103009550D01*
X200088621Y-102731669D01*
X199982504Y-102474849D01*
X199786185Y-102278186D01*
X199529550Y-102171622D01*
X199251669Y-102171379D01*
X198994849Y-102277496D01*
X198798186Y-102473815D01*
X198691622Y-102730450D01*
X198691379Y-103008331D01*
X198797496Y-103265151D01*
X198907400Y-103375248D01*
X198907400Y-106920101D01*
X197562750Y-108264750D01*
X197458136Y-108421317D01*
X197442995Y-108497434D01*
X197129000Y-108497434D01*
X196997223Y-108522230D01*
X196876193Y-108600110D01*
X196794999Y-108718942D01*
X196766434Y-108860000D01*
X196766434Y-108900400D01*
X191091566Y-108900400D01*
X191091566Y-108860000D01*
X191066770Y-108728223D01*
X190988890Y-108607193D01*
X190870058Y-108525999D01*
X190729000Y-108497434D01*
X189179000Y-108497434D01*
X189047223Y-108522230D01*
X188926193Y-108600110D01*
X188844999Y-108718942D01*
X188823600Y-108824613D01*
X188823600Y-106045000D01*
X188786864Y-105860317D01*
X188682250Y-105703750D01*
X188018831Y-105040331D01*
X189166379Y-105040331D01*
X189272496Y-105297151D01*
X189468815Y-105493814D01*
X189725450Y-105600378D01*
X190003331Y-105600621D01*
X190260151Y-105494504D01*
X190370248Y-105384600D01*
X196723000Y-105384600D01*
X196907683Y-105347864D01*
X197064250Y-105243250D01*
X197469014Y-104838486D01*
X197623331Y-104838621D01*
X197880151Y-104732504D01*
X198076814Y-104536185D01*
X198183378Y-104279550D01*
X198183621Y-104001669D01*
X198077504Y-103744849D01*
X197881185Y-103548186D01*
X197624550Y-103441622D01*
X197346669Y-103441379D01*
X197089849Y-103547496D01*
X196893186Y-103743815D01*
X196786622Y-104000450D01*
X196786486Y-104156014D01*
X196523100Y-104419400D01*
X190370208Y-104419400D01*
X190261185Y-104310186D01*
X190004550Y-104203622D01*
X189726669Y-104203379D01*
X189469849Y-104309496D01*
X189273186Y-104505815D01*
X189166622Y-104762450D01*
X189166379Y-105040331D01*
X188018831Y-105040331D01*
X185381886Y-102403386D01*
X185382021Y-102249069D01*
X185275904Y-101992249D01*
X185079585Y-101795586D01*
X184822950Y-101689022D01*
X184545069Y-101688779D01*
X184288249Y-101794896D01*
X184091586Y-101991215D01*
X183985022Y-102247850D01*
X183984779Y-102525731D01*
X170338625Y-102525731D01*
X166875447Y-99062553D01*
X166762348Y-98986416D01*
X166624000Y-98958400D01*
X148590000Y-98958400D01*
X148456190Y-98984536D01*
X148338553Y-99062553D01*
X143512553Y-103888553D01*
X143436416Y-104001652D01*
X143408400Y-104140000D01*
X135050600Y-104140000D01*
X135050600Y-100717286D01*
X136474062Y-100717286D01*
X136771157Y-101436311D01*
X137320795Y-101986910D01*
X138039301Y-102285259D01*
X138817286Y-102285938D01*
X139536311Y-101988843D01*
X140086910Y-101439205D01*
X140385259Y-100720699D01*
X140385938Y-99942714D01*
X140088843Y-99223689D01*
X139539205Y-98673090D01*
X138820699Y-98374741D01*
X138042714Y-98374062D01*
X137323689Y-98671157D01*
X136773090Y-99220795D01*
X136474741Y-99939301D01*
X136474062Y-100717286D01*
X135050600Y-100717286D01*
X135050600Y-96950600D01*
X182858510Y-96950600D01*
X182796186Y-97012815D01*
G36*
X171323000Y-104192606D02*
X171323000Y-119327394D01*
X166571394Y-124079000D01*
X148642606Y-124079000D01*
X143891000Y-119327394D01*
X143891000Y-112424542D01*
X145233819Y-112424542D01*
X145743602Y-113658311D01*
X146686724Y-114603080D01*
X147919602Y-115115016D01*
X149254542Y-115116181D01*
X150488311Y-114606398D01*
X151433080Y-113663276D01*
X151945016Y-112430398D01*
X151945251Y-112160000D01*
X153777434Y-112160000D01*
X153777434Y-113660000D01*
X153802230Y-113791777D01*
X153880110Y-113912807D01*
X153998942Y-113994001D01*
X154140000Y-114022566D01*
X155840000Y-114022566D01*
X155971777Y-113997770D01*
X156092807Y-113919890D01*
X156105987Y-113900600D01*
X156330000Y-113900600D01*
X156709086Y-113825195D01*
X157030460Y-113610460D01*
X158216378Y-112424542D01*
X163013819Y-112424542D01*
X163523602Y-113658311D01*
X164466724Y-114603080D01*
X165699602Y-115115016D01*
X167034542Y-115116181D01*
X168268311Y-114606398D01*
X169213080Y-113663276D01*
X169725016Y-112430398D01*
X169726181Y-111095458D01*
X169216398Y-109861689D01*
X168273276Y-108916920D01*
X167040398Y-108404984D01*
X165705458Y-108403819D01*
X164471689Y-108913602D01*
X163526920Y-109856724D01*
X163014984Y-111089602D01*
X163013819Y-112424542D01*
X158216378Y-112424542D01*
X158959918Y-111681002D01*
X158978942Y-111694001D01*
X159120000Y-111722566D01*
X160820000Y-111722566D01*
X160951777Y-111697770D01*
X161072807Y-111619890D01*
X161154001Y-111501058D01*
X161182566Y-111360000D01*
X161182566Y-109860000D01*
X161157770Y-109728223D01*
X161079890Y-109607193D01*
X160961058Y-109525999D01*
X160820000Y-109497434D01*
X159120000Y-109497434D01*
X158988223Y-109522230D01*
X158867193Y-109600110D01*
X158854013Y-109619400D01*
X158630000Y-109619400D01*
X158250914Y-109694805D01*
X157929540Y-109909540D01*
X156000082Y-111838998D01*
X155981058Y-111825999D01*
X155840000Y-111797434D01*
X154140000Y-111797434D01*
X154008223Y-111822230D01*
X153887193Y-111900110D01*
X153805999Y-112018942D01*
X153777434Y-112160000D01*
X151945251Y-112160000D01*
X151946181Y-111095458D01*
X151436398Y-109861689D01*
X150493276Y-108916920D01*
X149260398Y-108404984D01*
X147925458Y-108403819D01*
X146691689Y-108913602D01*
X145746920Y-109856724D01*
X145234984Y-111089602D01*
X145233819Y-112424542D01*
X143891000Y-112424542D01*
X143891000Y-104192606D01*
X148642606Y-99441000D01*
X166571394Y-99441000D01*
X171323000Y-104192606D01*
X171323000Y-104192606D01*
G37*
X171323000Y-104192606D02*
X171323000Y-119327394D01*
X166571394Y-124079000D01*
X148642606Y-124079000D01*
X143891000Y-119327394D01*
X143891000Y-112424542D01*
X145233819Y-112424542D01*
X145743602Y-113658311D01*
X146686724Y-114603080D01*
X147919602Y-115115016D01*
X149254542Y-115116181D01*
X150488311Y-114606398D01*
X151433080Y-113663276D01*
X151945016Y-112430398D01*
X151945251Y-112160000D01*
X153777434Y-112160000D01*
X153777434Y-113660000D01*
X153802230Y-113791777D01*
X153880110Y-113912807D01*
X153998942Y-113994001D01*
X154140000Y-114022566D01*
X155840000Y-114022566D01*
X155971777Y-113997770D01*
X156092807Y-113919890D01*
X156105987Y-113900600D01*
X156330000Y-113900600D01*
X156709086Y-113825195D01*
X157030460Y-113610460D01*
X158216378Y-112424542D01*
X163013819Y-112424542D01*
X163523602Y-113658311D01*
X164466724Y-114603080D01*
X165699602Y-115115016D01*
X167034542Y-115116181D01*
X168268311Y-114606398D01*
X169213080Y-113663276D01*
X169725016Y-112430398D01*
X169726181Y-111095458D01*
X169216398Y-109861689D01*
X168273276Y-108916920D01*
X167040398Y-108404984D01*
X165705458Y-108403819D01*
X164471689Y-108913602D01*
X163526920Y-109856724D01*
X163014984Y-111089602D01*
X163013819Y-112424542D01*
X158216378Y-112424542D01*
X158959918Y-111681002D01*
X158978942Y-111694001D01*
X159120000Y-111722566D01*
X160820000Y-111722566D01*
X160951777Y-111697770D01*
X161072807Y-111619890D01*
X161154001Y-111501058D01*
X161182566Y-111360000D01*
X161182566Y-109860000D01*
X161157770Y-109728223D01*
X161079890Y-109607193D01*
X160961058Y-109525999D01*
X160820000Y-109497434D01*
X159120000Y-109497434D01*
X158988223Y-109522230D01*
X158867193Y-109600110D01*
X158854013Y-109619400D01*
X158630000Y-109619400D01*
X158250914Y-109694805D01*
X157929540Y-109909540D01*
X156000082Y-111838998D01*
X155981058Y-111825999D01*
X155840000Y-111797434D01*
X154140000Y-111797434D01*
X154008223Y-111822230D01*
X153887193Y-111900110D01*
X153805999Y-112018942D01*
X153777434Y-112160000D01*
X151945251Y-112160000D01*
X151946181Y-111095458D01*
X151436398Y-109861689D01*
X150493276Y-108916920D01*
X149260398Y-108404984D01*
X147925458Y-108403819D01*
X146691689Y-108913602D01*
X145746920Y-109856724D01*
X145234984Y-111089602D01*
X145233819Y-112424542D01*
X143891000Y-112424542D01*
X143891000Y-104192606D01*
X148642606Y-99441000D01*
X166571394Y-99441000D01*
X171323000Y-104192606D01*
M02*
