G04 #@! TF.FileFunction,Copper,L1,Top,Signal*
%FSLAX46Y46*%
G04 Gerber Fmt 4.6, Leading zero omitted, Abs format (unit mm)*
G04 Created by KiCad (PCBNEW 4.0.7) date 05/03/18 21:25:46*
%MOMM*%
%LPD*%
G01*
G04 APERTURE LIST*
%ADD10C,0.100000*%
%ADD11C,0.508000*%
%ADD12R,1.000000X1.250000*%
%ADD13R,0.750000X0.800000*%
%ADD14R,1.600000X1.000000*%
%ADD15R,0.800000X0.800000*%
%ADD16R,1.200000X0.900000*%
%ADD17R,1.900000X1.900000*%
%ADD18R,1.600000X2.100000*%
%ADD19R,1.350000X0.400000*%
%ADD20R,3.400000X1.500000*%
%ADD21R,3.500000X1.000000*%
%ADD22R,1.700000X1.700000*%
%ADD23O,1.700000X1.700000*%
%ADD24R,0.700000X1.300000*%
%ADD25R,1.220000X0.650000*%
%ADD26R,0.500000X0.900000*%
%ADD27R,0.900000X0.500000*%
%ADD28R,1.060000X0.650000*%
%ADD29R,0.890000X0.420000*%
%ADD30R,0.840000X0.940000*%
%ADD31R,1.700000X0.650000*%
%ADD32R,0.700000X1.500000*%
%ADD33R,1.000000X0.800000*%
%ADD34C,1.500000*%
%ADD35R,1.000000X3.150000*%
%ADD36C,0.685800*%
%ADD37C,1.143000*%
%ADD38C,0.254000*%
%ADD39C,0.508000*%
%ADD40C,0.406400*%
%ADD41C,1.270000*%
%ADD42C,0.203200*%
G04 APERTURE END LIST*
D10*
D11*
X166370000Y-102108000D03*
X165100000Y-102108000D03*
X163830000Y-102108000D03*
X162560000Y-102108000D03*
X161290000Y-102108000D03*
X160020000Y-102108000D03*
X158750000Y-102108000D03*
X157480000Y-102108000D03*
X156210000Y-102108000D03*
X154940000Y-102108000D03*
X153670000Y-102108000D03*
X152400000Y-102108000D03*
X151130000Y-102108000D03*
X149860000Y-102108000D03*
X148590000Y-102108000D03*
X166370000Y-103378000D03*
X165100000Y-103378000D03*
X163830000Y-103378000D03*
X162560000Y-103378000D03*
X161290000Y-103378000D03*
X160020000Y-103378000D03*
X158750000Y-103378000D03*
X157480000Y-103378000D03*
X156210000Y-103378000D03*
X154940000Y-103378000D03*
X153670000Y-103378000D03*
X152400000Y-103378000D03*
X151130000Y-103378000D03*
X149860000Y-103378000D03*
X148590000Y-103378000D03*
X166370000Y-104648000D03*
X165100000Y-104648000D03*
X163830000Y-104648000D03*
X162560000Y-104648000D03*
X161290000Y-104648000D03*
X160020000Y-104648000D03*
X158750000Y-104648000D03*
X157480000Y-104648000D03*
X156210000Y-104648000D03*
X154940000Y-104648000D03*
X153670000Y-104648000D03*
X152400000Y-104648000D03*
X151130000Y-104648000D03*
X149860000Y-104648000D03*
X148590000Y-104648000D03*
X166370000Y-105918000D03*
X165100000Y-105918000D03*
X163830000Y-105918000D03*
X162560000Y-105918000D03*
X161290000Y-105918000D03*
X160020000Y-105918000D03*
X158750000Y-105918000D03*
X157480000Y-105918000D03*
X156210000Y-105918000D03*
X154940000Y-105918000D03*
X153670000Y-105918000D03*
X152400000Y-105918000D03*
X151130000Y-105918000D03*
X149860000Y-105918000D03*
X148590000Y-105918000D03*
X166370000Y-107188000D03*
X165100000Y-107188000D03*
X163830000Y-107188000D03*
X162560000Y-107188000D03*
X161290000Y-107188000D03*
X160020000Y-107188000D03*
X158750000Y-107188000D03*
X157480000Y-107188000D03*
X156210000Y-107188000D03*
X154940000Y-107188000D03*
X153670000Y-107188000D03*
X152400000Y-107188000D03*
X151130000Y-107188000D03*
X149860000Y-107188000D03*
X166370000Y-121412000D03*
X165100000Y-121412000D03*
X163830000Y-121412000D03*
X162560000Y-121412000D03*
X161290000Y-121412000D03*
X160020000Y-121412000D03*
X158750000Y-121412000D03*
X157480000Y-121412000D03*
X156210000Y-121412000D03*
X154940000Y-121412000D03*
X153670000Y-121412000D03*
X152400000Y-121412000D03*
X151130000Y-121412000D03*
X149860000Y-121412000D03*
X148590000Y-121412000D03*
X166370000Y-120142000D03*
X165100000Y-120142000D03*
X163830000Y-120142000D03*
X162560000Y-120142000D03*
X161290000Y-120142000D03*
X160020000Y-120142000D03*
X158750000Y-120142000D03*
X157480000Y-120142000D03*
X156210000Y-120142000D03*
X154940000Y-120142000D03*
X153670000Y-120142000D03*
X152400000Y-120142000D03*
X151130000Y-120142000D03*
X149860000Y-120142000D03*
X148590000Y-120142000D03*
X166370000Y-118872000D03*
X165100000Y-118872000D03*
X163830000Y-118872000D03*
X162560000Y-118872000D03*
X161290000Y-118872000D03*
X160020000Y-118872000D03*
X158750000Y-118872000D03*
X157480000Y-118872000D03*
X156210000Y-118872000D03*
X154940000Y-118872000D03*
X153670000Y-118872000D03*
X152400000Y-118872000D03*
X151130000Y-118872000D03*
X149860000Y-118872000D03*
X148590000Y-118872000D03*
X166370000Y-117602000D03*
X165100000Y-117602000D03*
X163830000Y-117602000D03*
X162560000Y-117602000D03*
X161290000Y-117602000D03*
X160020000Y-117602000D03*
X158750000Y-117602000D03*
X157480000Y-117602000D03*
X156210000Y-117602000D03*
X154940000Y-117602000D03*
X153670000Y-117602000D03*
X152400000Y-117602000D03*
X151130000Y-117602000D03*
X149860000Y-117602000D03*
X148590000Y-117602000D03*
X166370000Y-116332000D03*
X165100000Y-116332000D03*
X163830000Y-116332000D03*
X162560000Y-116332000D03*
X161290000Y-116332000D03*
X160020000Y-116332000D03*
X158750000Y-116332000D03*
X157480000Y-116332000D03*
X156210000Y-116332000D03*
X154940000Y-116332000D03*
X153670000Y-116332000D03*
X152400000Y-116332000D03*
X151130000Y-116332000D03*
X149860000Y-116332000D03*
D12*
X193548000Y-106172000D03*
X191548000Y-106172000D03*
D13*
X197612000Y-116066000D03*
X197612000Y-114566000D03*
X194310000Y-116066000D03*
X194310000Y-114566000D03*
D14*
X189992000Y-119912000D03*
X189992000Y-122912000D03*
X177546000Y-118896000D03*
X177546000Y-121896000D03*
D15*
X209461000Y-105156000D03*
X207861000Y-105156000D03*
D16*
X180213000Y-118746000D03*
X180213000Y-122046000D03*
D15*
X196380000Y-97790000D03*
X194780000Y-97790000D03*
D17*
X209042000Y-107910000D03*
X209042000Y-115610000D03*
D18*
X206492000Y-114860000D03*
X206492000Y-108660000D03*
D17*
X209042000Y-110560000D03*
D19*
X206242000Y-113060000D03*
X206242000Y-112410000D03*
X206242000Y-111760000D03*
X206242000Y-111110000D03*
X206242000Y-110460000D03*
D17*
X209042000Y-112960000D03*
D20*
X184682000Y-108360000D03*
X184682000Y-115160000D03*
D21*
X190182000Y-112760000D03*
X190182000Y-110760000D03*
D22*
X137668000Y-110490000D03*
D23*
X137668000Y-113030000D03*
D24*
X185735000Y-125476000D03*
X183835000Y-125476000D03*
D25*
X198160000Y-119822000D03*
X198160000Y-118872000D03*
X198160000Y-117922000D03*
X195540000Y-117922000D03*
X195540000Y-119822000D03*
D26*
X197370000Y-108966000D03*
X198870000Y-108966000D03*
D27*
X199136000Y-111010000D03*
X199136000Y-112510000D03*
X203327000Y-105652000D03*
X203327000Y-104152000D03*
D24*
X183647000Y-117602000D03*
X185547000Y-117602000D03*
D27*
X201168000Y-119825200D03*
X201168000Y-118325200D03*
D26*
X201144000Y-97790000D03*
X199644000Y-97790000D03*
D28*
X194734000Y-110937000D03*
X194734000Y-111887000D03*
X194734000Y-112837000D03*
X196934000Y-112837000D03*
X196934000Y-110937000D03*
D29*
X187056000Y-122425000D03*
X187056000Y-121775000D03*
X187056000Y-121125000D03*
X187056000Y-120475000D03*
X182846000Y-120475000D03*
X182846000Y-121125000D03*
X182846000Y-121775000D03*
X182846000Y-122425000D03*
D30*
X184531000Y-120980000D03*
X184531000Y-121920000D03*
X185371000Y-120980000D03*
X185371000Y-121920000D03*
D31*
X201008000Y-104140000D03*
X201008000Y-102870000D03*
X201008000Y-101600000D03*
X201008000Y-100330000D03*
X193708000Y-100330000D03*
X193708000Y-101600000D03*
X193708000Y-102870000D03*
X193708000Y-104140000D03*
D32*
X195108000Y-123284000D03*
X198108000Y-123284000D03*
X199608000Y-123284000D03*
D33*
X193708000Y-126144000D03*
X201008000Y-126144000D03*
X201008000Y-123934000D03*
X193708000Y-123934000D03*
D11*
X148590000Y-116332000D03*
X148590000Y-107188000D03*
D34*
X179578000Y-104775000D03*
D35*
X183261000Y-104887000D03*
X183261000Y-99837000D03*
X185801000Y-104887000D03*
X185801000Y-99837000D03*
X188341000Y-104887000D03*
X188341000Y-99837000D03*
D36*
X182753000Y-123825000D03*
X183642000Y-123825000D03*
X184531000Y-123825000D03*
X187198000Y-123825000D03*
X186309000Y-123825000D03*
X185420000Y-123825000D03*
X182753000Y-119126000D03*
X183642000Y-119126000D03*
X187198000Y-119126000D03*
X186309000Y-119126000D03*
X185420000Y-119126000D03*
X184531000Y-119126000D03*
X204216000Y-110490000D03*
X190119000Y-116332000D03*
X193574310Y-111934553D03*
X195961000Y-116078000D03*
X191770000Y-119888000D03*
X198120000Y-121412000D03*
D37*
X175260000Y-113030000D03*
D36*
X199390000Y-102870000D03*
X184683400Y-102387400D03*
X188341000Y-118110000D03*
X197485000Y-104140000D03*
X189865000Y-104902000D03*
X183388000Y-97409000D03*
X202946000Y-113029998D03*
D38*
X183642000Y-123825000D02*
X182753000Y-123825000D01*
X185420000Y-123825000D02*
X184531000Y-123825000D01*
X186309000Y-123825000D02*
X187198000Y-123825000D01*
X185371000Y-121920000D02*
X185371000Y-123776000D01*
X185371000Y-123776000D02*
X185420000Y-123825000D01*
X183642000Y-119126000D02*
X182753000Y-119126000D01*
X186309000Y-119126000D02*
X187198000Y-119126000D01*
X184531000Y-119126000D02*
X185420000Y-119126000D01*
X184531000Y-120980000D02*
X184531000Y-119126000D01*
X206242000Y-110460000D02*
X204246000Y-110460000D01*
X204246000Y-110460000D02*
X204216000Y-110490000D01*
X190182000Y-112760000D02*
X190182000Y-116269000D01*
X190182000Y-116269000D02*
X190119000Y-116332000D01*
D39*
X193621863Y-111887000D02*
X193574310Y-111934553D01*
X194734000Y-111887000D02*
X193621863Y-111887000D01*
X194310000Y-116066000D02*
X195949000Y-116066000D01*
X195949000Y-116066000D02*
X195961000Y-116078000D01*
X197612000Y-116066000D02*
X195973000Y-116066000D01*
X195973000Y-116066000D02*
X195961000Y-116078000D01*
D40*
X187056000Y-121775000D02*
X185516000Y-121775000D01*
X185516000Y-121775000D02*
X185371000Y-121920000D01*
X182846000Y-121125000D02*
X184386000Y-121125000D01*
X184386000Y-121125000D02*
X184531000Y-120980000D01*
X187056000Y-121775000D02*
X188855000Y-121775000D01*
X188855000Y-121775000D02*
X189992000Y-122912000D01*
D39*
X193427000Y-114566000D02*
X194310000Y-114566000D01*
X192825000Y-114566000D02*
X193427000Y-114566000D01*
X194310000Y-114566000D02*
X194310000Y-113261000D01*
X192825000Y-114566000D02*
X192825000Y-112153000D01*
X192825000Y-112153000D02*
X191432000Y-110760000D01*
X191432000Y-110760000D02*
X190182000Y-110760000D01*
X192825000Y-114566000D02*
X192825000Y-117392000D01*
X192825000Y-117392000D02*
X195255000Y-119822000D01*
X195255000Y-119822000D02*
X195540000Y-119822000D01*
X194310000Y-113261000D02*
X194734000Y-112837000D01*
X189992000Y-119912000D02*
X189992000Y-118652032D01*
X189992000Y-118652032D02*
X187198000Y-115858032D01*
X187198000Y-115858032D02*
X187198000Y-108966000D01*
X187198000Y-108966000D02*
X188224000Y-107940000D01*
X188224000Y-107940000D02*
X191905000Y-107940000D01*
X191905000Y-107940000D02*
X193548000Y-106297000D01*
X193548000Y-106297000D02*
X193548000Y-106172000D01*
X190246000Y-125476000D02*
X191770000Y-123952000D01*
X191770000Y-123952000D02*
X191770000Y-119888000D01*
X185735000Y-125476000D02*
X190246000Y-125476000D01*
X191770000Y-119888000D02*
X190016000Y-119888000D01*
X190016000Y-119888000D02*
X189992000Y-119912000D01*
X198108000Y-123284000D02*
X198108000Y-121424000D01*
X198108000Y-121424000D02*
X198120000Y-121412000D01*
D40*
X193708000Y-104140000D02*
X194964400Y-104140000D01*
X194964400Y-104140000D02*
X196476400Y-105652000D01*
X202470600Y-105652000D02*
X203327000Y-105652000D01*
X196476400Y-105652000D02*
X202470600Y-105652000D01*
X187056000Y-121125000D02*
X188779000Y-121125000D01*
X188779000Y-121125000D02*
X189992000Y-119912000D01*
D39*
X193548000Y-106172000D02*
X193548000Y-104300000D01*
X193548000Y-104300000D02*
X193708000Y-104140000D01*
D41*
X137668000Y-113030000D02*
X138870081Y-113030000D01*
X138870081Y-113030000D02*
X175260000Y-113030000D01*
X177546000Y-118896000D02*
X177546000Y-115316000D01*
X177546000Y-115316000D02*
X175260000Y-113030000D01*
D39*
X177546000Y-118896000D02*
X180063000Y-118896000D01*
X180063000Y-118896000D02*
X180213000Y-118746000D01*
D38*
X198870000Y-108966000D02*
X202692000Y-108966000D01*
X202692000Y-108966000D02*
X206375000Y-105283000D01*
X206375000Y-105283000D02*
X207772000Y-105283000D01*
D39*
X182245000Y-125476000D02*
X180213000Y-123444000D01*
X180213000Y-123444000D02*
X180213000Y-122046000D01*
X183835000Y-125476000D02*
X182245000Y-125476000D01*
X180213000Y-122046000D02*
X180484000Y-121775000D01*
X180484000Y-121775000D02*
X182846000Y-121775000D01*
X194734000Y-110937000D02*
X195399000Y-110937000D01*
X195399000Y-110937000D02*
X197370000Y-108966000D01*
X196934000Y-110937000D02*
X199063000Y-110937000D01*
X199063000Y-110937000D02*
X199136000Y-111010000D01*
X182846000Y-120475000D02*
X182197000Y-120475000D01*
X182197000Y-120475000D02*
X181864000Y-120142000D01*
X181864000Y-120142000D02*
X181864000Y-117602000D01*
D41*
X137668000Y-110490000D02*
X174752000Y-110490000D01*
X174752000Y-110490000D02*
X181864000Y-117602000D01*
X182027000Y-117602000D02*
X183647000Y-117602000D01*
X181864000Y-117602000D02*
X182027000Y-117602000D01*
D38*
X199390000Y-102870000D02*
X201008000Y-102870000D01*
X196380000Y-97790000D02*
X199644000Y-97790000D01*
X202692000Y-98298000D02*
X202184000Y-97790000D01*
X202184000Y-97790000D02*
X201144000Y-97790000D01*
X202692000Y-101092000D02*
X202692000Y-98298000D01*
X202184000Y-101600000D02*
X202692000Y-101092000D01*
X201008000Y-101600000D02*
X202184000Y-101600000D01*
X193708000Y-101600000D02*
X191617600Y-101600000D01*
X191617600Y-101600000D02*
X190830200Y-102387400D01*
X190830200Y-102387400D02*
X185168333Y-102387400D01*
X185168333Y-102387400D02*
X184683400Y-102387400D01*
X184711000Y-102362000D02*
X184685600Y-102387400D01*
X183261000Y-104887000D02*
X183261000Y-103812000D01*
X183261000Y-103812000D02*
X184711000Y-102362000D01*
X184685600Y-102387400D02*
X184683400Y-102387400D01*
X183261000Y-104887000D02*
X179690000Y-104887000D01*
X179690000Y-104887000D02*
X179578000Y-104775000D01*
X188341000Y-119889000D02*
X188341000Y-118110000D01*
X187056000Y-120475000D02*
X187755000Y-120475000D01*
X187755000Y-120475000D02*
X188341000Y-119889000D01*
X185801000Y-104887000D02*
X185801000Y-103251000D01*
X185801000Y-103251000D02*
X186182000Y-102870000D01*
X186182000Y-102870000D02*
X191643000Y-102870000D01*
X191643000Y-102870000D02*
X193708000Y-102870000D01*
X192312850Y-100330000D02*
X192604000Y-100330000D01*
X192604000Y-100330000D02*
X193708000Y-100330000D01*
X186844589Y-101955589D02*
X190687261Y-101955589D01*
X185801000Y-100912000D02*
X186844589Y-101955589D01*
X185801000Y-99837000D02*
X185801000Y-100912000D01*
X190687261Y-101955589D02*
X192312850Y-100330000D01*
D42*
X201008000Y-104140000D02*
X197485000Y-104140000D01*
D38*
X188341000Y-104887000D02*
X189850000Y-104887000D01*
X189850000Y-104887000D02*
X189865000Y-104902000D01*
D40*
X201008000Y-104140000D02*
X203315000Y-104140000D01*
X203315000Y-104140000D02*
X203327000Y-104152000D01*
D39*
X183388000Y-97409000D02*
X183388000Y-99837000D01*
D38*
X209423000Y-105156000D02*
X208280000Y-106299000D01*
X208280000Y-106299000D02*
X206121000Y-106299000D01*
X206121000Y-106299000D02*
X202946000Y-109474000D01*
X202946000Y-109474000D02*
X202946000Y-112545065D01*
X202946000Y-112545065D02*
X202946000Y-113029998D01*
D39*
X202603101Y-113372897D02*
X202946000Y-113029998D01*
D40*
X206242000Y-113060000D02*
X202976002Y-113060000D01*
X202976002Y-113060000D02*
X202946000Y-113029998D01*
D39*
X199644000Y-115302000D02*
X200673998Y-115302000D01*
X200673998Y-115302000D02*
X202603101Y-113372897D01*
X199329000Y-114987000D02*
X198908000Y-114566000D01*
X197612000Y-114566000D02*
X197612000Y-113515000D01*
X198908000Y-114566000D02*
X197612000Y-114566000D01*
X199644000Y-118288000D02*
X199644000Y-115302000D01*
X199644000Y-115302000D02*
X199329000Y-114987000D01*
X200086000Y-119822000D02*
X200089200Y-119825200D01*
X200089200Y-119825200D02*
X201168000Y-119825200D01*
X199324000Y-119822000D02*
X200086000Y-119822000D01*
X198160000Y-117922000D02*
X199278000Y-117922000D01*
X199278000Y-117922000D02*
X199644000Y-118288000D01*
X199644000Y-118288000D02*
X199644000Y-119502000D01*
X199324000Y-119822000D02*
X198160000Y-119822000D01*
X199644000Y-119502000D02*
X199324000Y-119822000D01*
X197612000Y-113515000D02*
X196934000Y-112837000D01*
X195108000Y-123284000D02*
X195108000Y-122239600D01*
X195108000Y-122239600D02*
X196723000Y-120624600D01*
X196723000Y-120624600D02*
X196723000Y-118872000D01*
X198160000Y-118872000D02*
X196723000Y-118872000D01*
X196723000Y-118872000D02*
X196490000Y-118872000D01*
X196490000Y-118872000D02*
X195540000Y-117922000D01*
D38*
G36*
X182796186Y-97012815D02*
X182689622Y-97269450D01*
X182689379Y-97547331D01*
X182778400Y-97762776D01*
X182778400Y-97899434D01*
X182761000Y-97899434D01*
X182629223Y-97924230D01*
X182508193Y-98002110D01*
X182426999Y-98120942D01*
X182398434Y-98262000D01*
X182398434Y-101412000D01*
X182423230Y-101543777D01*
X182501110Y-101664807D01*
X182619942Y-101746001D01*
X182761000Y-101774566D01*
X183761000Y-101774566D01*
X183892777Y-101749770D01*
X184013807Y-101671890D01*
X184095001Y-101553058D01*
X184123566Y-101412000D01*
X184123566Y-98262000D01*
X184098770Y-98130223D01*
X184020890Y-98009193D01*
X183997600Y-97993280D01*
X183997600Y-97762351D01*
X184086378Y-97548550D01*
X184086621Y-97270669D01*
X183980504Y-97013849D01*
X183917366Y-96950600D01*
X194113337Y-96950600D01*
X194092242Y-96959338D01*
X193949339Y-97102241D01*
X193872000Y-97288952D01*
X193872000Y-97536000D01*
X193999000Y-97663000D01*
X194653000Y-97663000D01*
X194653000Y-97643000D01*
X194907000Y-97643000D01*
X194907000Y-97663000D01*
X194927000Y-97663000D01*
X194927000Y-97917000D01*
X194907000Y-97917000D01*
X194907000Y-98571000D01*
X195034000Y-98698000D01*
X195281047Y-98698000D01*
X195467758Y-98620662D01*
X195610661Y-98477759D01*
X195662332Y-98353016D01*
X195720110Y-98442807D01*
X195838942Y-98524001D01*
X195980000Y-98552566D01*
X196780000Y-98552566D01*
X196911777Y-98527770D01*
X197032807Y-98449890D01*
X197114001Y-98331058D01*
X197125839Y-98272600D01*
X199037568Y-98272600D01*
X199056230Y-98371777D01*
X199134110Y-98492807D01*
X199252942Y-98574001D01*
X199394000Y-98602566D01*
X199894000Y-98602566D01*
X200025777Y-98577770D01*
X200146807Y-98499890D01*
X200228001Y-98381058D01*
X200256566Y-98240000D01*
X200256566Y-97340000D01*
X200231770Y-97208223D01*
X200153890Y-97087193D01*
X200035058Y-97005999D01*
X199894000Y-96977434D01*
X199394000Y-96977434D01*
X199262223Y-97002230D01*
X199141193Y-97080110D01*
X199059999Y-97198942D01*
X199038036Y-97307400D01*
X197127023Y-97307400D01*
X197117770Y-97258223D01*
X197039890Y-97137193D01*
X196921058Y-97055999D01*
X196780000Y-97027434D01*
X195980000Y-97027434D01*
X195848223Y-97052230D01*
X195727193Y-97130110D01*
X195661830Y-97225773D01*
X195610661Y-97102241D01*
X195467758Y-96959338D01*
X195446663Y-96950600D01*
X210389400Y-96950600D01*
X210389400Y-126569400D01*
X201865422Y-126569400D01*
X201870566Y-126544000D01*
X201870566Y-125744000D01*
X201845770Y-125612223D01*
X201767890Y-125491193D01*
X201649058Y-125409999D01*
X201508000Y-125381434D01*
X200508000Y-125381434D01*
X200376223Y-125406230D01*
X200255193Y-125484110D01*
X200173999Y-125602942D01*
X200145434Y-125744000D01*
X200145434Y-126544000D01*
X200150213Y-126569400D01*
X194565422Y-126569400D01*
X194570566Y-126544000D01*
X194570566Y-125744000D01*
X194545770Y-125612223D01*
X194467890Y-125491193D01*
X194349058Y-125409999D01*
X194208000Y-125381434D01*
X193208000Y-125381434D01*
X193076223Y-125406230D01*
X192955193Y-125484110D01*
X192873999Y-125602942D01*
X192845434Y-125744000D01*
X192845434Y-126544000D01*
X192850213Y-126569400D01*
X135050600Y-126569400D01*
X135050600Y-123577286D01*
X136474062Y-123577286D01*
X136771157Y-124296311D01*
X137320795Y-124846910D01*
X138039301Y-125145259D01*
X138817286Y-125145938D01*
X139536311Y-124848843D01*
X140086910Y-124299205D01*
X140385259Y-123580699D01*
X140385938Y-122802714D01*
X140088843Y-122083689D01*
X139539205Y-121533090D01*
X138820699Y-121234741D01*
X138042714Y-121234062D01*
X137323689Y-121531157D01*
X136773090Y-122080795D01*
X136474741Y-122799301D01*
X136474062Y-123577286D01*
X135050600Y-123577286D01*
X135050600Y-113030000D01*
X136438781Y-113030000D01*
X136530552Y-113491363D01*
X136791893Y-113882488D01*
X137183018Y-114143829D01*
X137644381Y-114235600D01*
X137691619Y-114235600D01*
X138152982Y-114143829D01*
X138337407Y-114020600D01*
X143408400Y-114020600D01*
X143408400Y-119380000D01*
X143434536Y-119513810D01*
X143512553Y-119631447D01*
X148338553Y-124457447D01*
X148451652Y-124533584D01*
X148590000Y-124561600D01*
X166624000Y-124561600D01*
X166757810Y-124535464D01*
X166875447Y-124457447D01*
X169182894Y-122150000D01*
X176238000Y-122150000D01*
X176238000Y-122497047D01*
X176315338Y-122683758D01*
X176458241Y-122826661D01*
X176644952Y-122904000D01*
X177292000Y-122904000D01*
X177419000Y-122777000D01*
X177419000Y-122023000D01*
X177673000Y-122023000D01*
X177673000Y-122777000D01*
X177800000Y-122904000D01*
X178447048Y-122904000D01*
X178633759Y-122826661D01*
X178776662Y-122683758D01*
X178854000Y-122497047D01*
X178854000Y-122150000D01*
X178727000Y-122023000D01*
X177673000Y-122023000D01*
X177419000Y-122023000D01*
X176365000Y-122023000D01*
X176238000Y-122150000D01*
X169182894Y-122150000D01*
X170037941Y-121294953D01*
X176238000Y-121294953D01*
X176238000Y-121642000D01*
X176365000Y-121769000D01*
X177419000Y-121769000D01*
X177419000Y-121015000D01*
X177673000Y-121015000D01*
X177673000Y-121769000D01*
X178727000Y-121769000D01*
X178854000Y-121642000D01*
X178854000Y-121294953D01*
X178776662Y-121108242D01*
X178633759Y-120965339D01*
X178447048Y-120888000D01*
X177800000Y-120888000D01*
X177673000Y-121015000D01*
X177419000Y-121015000D01*
X177292000Y-120888000D01*
X176644952Y-120888000D01*
X176458241Y-120965339D01*
X176315338Y-121108242D01*
X176238000Y-121294953D01*
X170037941Y-121294953D01*
X171701447Y-119631447D01*
X171777584Y-119518348D01*
X171805600Y-119380000D01*
X171805600Y-114020600D01*
X174849680Y-114020600D01*
X176555400Y-115726320D01*
X176555400Y-118096081D01*
X176493193Y-118136110D01*
X176411999Y-118254942D01*
X176383434Y-118396000D01*
X176383434Y-119396000D01*
X176408230Y-119527777D01*
X176486110Y-119648807D01*
X176604942Y-119730001D01*
X176746000Y-119758566D01*
X177088149Y-119758566D01*
X177166914Y-119811195D01*
X177546000Y-119886600D01*
X177925086Y-119811195D01*
X178003851Y-119758566D01*
X178346000Y-119758566D01*
X178477777Y-119733770D01*
X178598807Y-119655890D01*
X178680001Y-119537058D01*
X178686371Y-119505600D01*
X179436230Y-119505600D01*
X179471942Y-119530001D01*
X179613000Y-119558566D01*
X180813000Y-119558566D01*
X180944777Y-119533770D01*
X181065807Y-119455890D01*
X181147001Y-119337058D01*
X181175566Y-119196000D01*
X181175566Y-118310496D01*
X181254400Y-118363171D01*
X181254400Y-120142000D01*
X181300803Y-120375284D01*
X181432948Y-120573052D01*
X181765948Y-120906052D01*
X181963716Y-121038197D01*
X182197000Y-121084600D01*
X182846000Y-121084600D01*
X182993000Y-121055360D01*
X182993000Y-121194640D01*
X182846000Y-121165400D01*
X180484000Y-121165400D01*
X180250716Y-121211803D01*
X180218343Y-121233434D01*
X179613000Y-121233434D01*
X179481223Y-121258230D01*
X179360193Y-121336110D01*
X179278999Y-121454942D01*
X179250434Y-121596000D01*
X179250434Y-122496000D01*
X179275230Y-122627777D01*
X179353110Y-122748807D01*
X179471942Y-122830001D01*
X179603400Y-122856622D01*
X179603400Y-123444000D01*
X179649803Y-123677284D01*
X179781948Y-123875052D01*
X181813948Y-125907052D01*
X182011716Y-126039197D01*
X182245000Y-126085600D01*
X183122434Y-126085600D01*
X183122434Y-126126000D01*
X183147230Y-126257777D01*
X183225110Y-126378807D01*
X183343942Y-126460001D01*
X183485000Y-126488566D01*
X184185000Y-126488566D01*
X184316777Y-126463770D01*
X184437807Y-126385890D01*
X184519001Y-126267058D01*
X184547566Y-126126000D01*
X184547566Y-124826000D01*
X184522770Y-124694223D01*
X184444890Y-124573193D01*
X184326058Y-124491999D01*
X184185000Y-124463434D01*
X183485000Y-124463434D01*
X183353223Y-124488230D01*
X183232193Y-124566110D01*
X183150999Y-124684942D01*
X183122434Y-124826000D01*
X183122434Y-124866400D01*
X182497504Y-124866400D01*
X180822600Y-123191496D01*
X180822600Y-122856760D01*
X180944777Y-122833770D01*
X181065807Y-122755890D01*
X181147001Y-122637058D01*
X181175566Y-122496000D01*
X181175566Y-122384600D01*
X182038434Y-122384600D01*
X182038434Y-122635000D01*
X182063230Y-122766777D01*
X182141110Y-122887807D01*
X182259942Y-122969001D01*
X182401000Y-122997566D01*
X183291000Y-122997566D01*
X183422777Y-122972770D01*
X183543807Y-122894890D01*
X183625001Y-122776058D01*
X183642000Y-122692115D01*
X183642000Y-123190000D01*
X182372000Y-123190000D01*
X182325841Y-123198685D01*
X182283447Y-123225965D01*
X182255006Y-123267590D01*
X182245000Y-123317000D01*
X182245000Y-124333000D01*
X182253685Y-124379159D01*
X182280965Y-124421553D01*
X182322590Y-124449994D01*
X182372000Y-124460000D01*
X187579000Y-124460000D01*
X187625159Y-124451315D01*
X187667553Y-124424035D01*
X187695994Y-124382410D01*
X187706000Y-124333000D01*
X187706000Y-123317000D01*
X187697315Y-123270841D01*
X187670035Y-123228447D01*
X187628410Y-123200006D01*
X187579000Y-123190000D01*
X186309000Y-123190000D01*
X186309000Y-123166000D01*
X188684000Y-123166000D01*
X188684000Y-123513047D01*
X188761338Y-123699758D01*
X188904241Y-123842661D01*
X189090952Y-123920000D01*
X189738000Y-123920000D01*
X189865000Y-123793000D01*
X189865000Y-123039000D01*
X188811000Y-123039000D01*
X188684000Y-123166000D01*
X186309000Y-123166000D01*
X186309000Y-122822366D01*
X186351110Y-122887807D01*
X186469942Y-122969001D01*
X186611000Y-122997566D01*
X187501000Y-122997566D01*
X187632777Y-122972770D01*
X187753807Y-122894890D01*
X187835001Y-122776058D01*
X187863566Y-122635000D01*
X187863566Y-122340854D01*
X187893467Y-122310953D01*
X188684000Y-122310953D01*
X188684000Y-122658000D01*
X188811000Y-122785000D01*
X189865000Y-122785000D01*
X189865000Y-122031000D01*
X189738000Y-121904000D01*
X189090952Y-121904000D01*
X188904241Y-121981339D01*
X188761338Y-122124242D01*
X188684000Y-122310953D01*
X187893467Y-122310953D01*
X187931661Y-122272759D01*
X188009000Y-122086048D01*
X188009000Y-122007000D01*
X187882000Y-121880000D01*
X187637125Y-121880000D01*
X187501000Y-121852434D01*
X186909000Y-121852434D01*
X186909000Y-121697566D01*
X187501000Y-121697566D01*
X187574159Y-121683800D01*
X188779000Y-121683800D01*
X188992844Y-121641264D01*
X189174131Y-121520131D01*
X189919696Y-120774566D01*
X190792000Y-120774566D01*
X190923777Y-120749770D01*
X191044807Y-120671890D01*
X191126001Y-120553058D01*
X191137232Y-120497600D01*
X191160400Y-120497600D01*
X191160400Y-122061980D01*
X191079759Y-121981339D01*
X190893048Y-121904000D01*
X190246000Y-121904000D01*
X190119000Y-122031000D01*
X190119000Y-122785000D01*
X190139000Y-122785000D01*
X190139000Y-123039000D01*
X190119000Y-123039000D01*
X190119000Y-123793000D01*
X190246000Y-123920000D01*
X190893048Y-123920000D01*
X190973022Y-123886873D01*
X189993496Y-124866400D01*
X186447566Y-124866400D01*
X186447566Y-124826000D01*
X186422770Y-124694223D01*
X186344890Y-124573193D01*
X186226058Y-124491999D01*
X186085000Y-124463434D01*
X185385000Y-124463434D01*
X185253223Y-124488230D01*
X185132193Y-124566110D01*
X185050999Y-124684942D01*
X185022434Y-124826000D01*
X185022434Y-126126000D01*
X185047230Y-126257777D01*
X185125110Y-126378807D01*
X185243942Y-126460001D01*
X185385000Y-126488566D01*
X186085000Y-126488566D01*
X186216777Y-126463770D01*
X186337807Y-126385890D01*
X186419001Y-126267058D01*
X186447566Y-126126000D01*
X186447566Y-126085600D01*
X190246000Y-126085600D01*
X190479284Y-126039197D01*
X190677052Y-125907052D01*
X192201052Y-124383053D01*
X192333197Y-124185284D01*
X192337077Y-124165777D01*
X192379600Y-123952000D01*
X192379600Y-120241351D01*
X192468378Y-120027550D01*
X192468621Y-119749669D01*
X192362504Y-119492849D01*
X192166185Y-119296186D01*
X191909550Y-119189622D01*
X191631669Y-119189379D01*
X191416224Y-119278400D01*
X191128597Y-119278400D01*
X191051890Y-119159193D01*
X190933058Y-119077999D01*
X190792000Y-119049434D01*
X190601600Y-119049434D01*
X190601600Y-118652032D01*
X190555197Y-118418748D01*
X190539997Y-118396000D01*
X190423053Y-118220980D01*
X187807600Y-115605528D01*
X187807600Y-113014000D01*
X187924000Y-113014000D01*
X187924000Y-113361047D01*
X188001338Y-113547758D01*
X188144241Y-113690661D01*
X188330952Y-113768000D01*
X189928000Y-113768000D01*
X190055000Y-113641000D01*
X190055000Y-112887000D01*
X188051000Y-112887000D01*
X187924000Y-113014000D01*
X187807600Y-113014000D01*
X187807600Y-112158953D01*
X187924000Y-112158953D01*
X187924000Y-112506000D01*
X188051000Y-112633000D01*
X190055000Y-112633000D01*
X190055000Y-111879000D01*
X189928000Y-111752000D01*
X188330952Y-111752000D01*
X188144241Y-111829339D01*
X188001338Y-111972242D01*
X187924000Y-112158953D01*
X187807600Y-112158953D01*
X187807600Y-110260000D01*
X188069434Y-110260000D01*
X188069434Y-111260000D01*
X188094230Y-111391777D01*
X188172110Y-111512807D01*
X188290942Y-111594001D01*
X188432000Y-111622566D01*
X191432462Y-111622566D01*
X191561896Y-111752000D01*
X190436000Y-111752000D01*
X190309000Y-111879000D01*
X190309000Y-112633000D01*
X190329000Y-112633000D01*
X190329000Y-112887000D01*
X190309000Y-112887000D01*
X190309000Y-113641000D01*
X190436000Y-113768000D01*
X192033048Y-113768000D01*
X192215400Y-113692467D01*
X192215400Y-117392000D01*
X192261803Y-117625284D01*
X192393948Y-117823052D01*
X194567434Y-119996538D01*
X194567434Y-120147000D01*
X194592230Y-120278777D01*
X194670110Y-120399807D01*
X194788942Y-120481001D01*
X194930000Y-120509566D01*
X195975930Y-120509566D01*
X194676948Y-121808548D01*
X194544803Y-122006316D01*
X194498400Y-122239600D01*
X194498400Y-122284052D01*
X194423999Y-122392942D01*
X194395434Y-122534000D01*
X194395434Y-123231686D01*
X194349058Y-123199999D01*
X194208000Y-123171434D01*
X193208000Y-123171434D01*
X193076223Y-123196230D01*
X192955193Y-123274110D01*
X192873999Y-123392942D01*
X192845434Y-123534000D01*
X192845434Y-124334000D01*
X192870230Y-124465777D01*
X192948110Y-124586807D01*
X193066942Y-124668001D01*
X193208000Y-124696566D01*
X194208000Y-124696566D01*
X194339777Y-124671770D01*
X194460807Y-124593890D01*
X194542001Y-124475058D01*
X194570154Y-124336033D01*
X194616942Y-124368001D01*
X194758000Y-124396566D01*
X195366278Y-124396566D01*
X195175443Y-124587068D01*
X195052540Y-124883053D01*
X195052260Y-125203541D01*
X195174647Y-125499740D01*
X195401068Y-125726557D01*
X195697053Y-125849460D01*
X196017541Y-125849740D01*
X196313740Y-125727353D01*
X196540557Y-125500932D01*
X196663460Y-125204947D01*
X196663740Y-124884459D01*
X196541353Y-124588260D01*
X196314932Y-124361443D01*
X196018947Y-124238540D01*
X195748787Y-124238304D01*
X195792001Y-124175058D01*
X195820566Y-124034000D01*
X195820566Y-122534000D01*
X197395434Y-122534000D01*
X197395434Y-124034000D01*
X197420230Y-124165777D01*
X197498110Y-124286807D01*
X197616942Y-124368001D01*
X197758000Y-124396566D01*
X198366278Y-124396566D01*
X198175443Y-124587068D01*
X198052540Y-124883053D01*
X198052260Y-125203541D01*
X198174647Y-125499740D01*
X198401068Y-125726557D01*
X198697053Y-125849460D01*
X199017541Y-125849740D01*
X199313740Y-125727353D01*
X199540557Y-125500932D01*
X199663460Y-125204947D01*
X199663740Y-124884459D01*
X199541353Y-124588260D01*
X199349994Y-124396566D01*
X199958000Y-124396566D01*
X200089777Y-124371770D01*
X200145762Y-124335745D01*
X200170230Y-124465777D01*
X200248110Y-124586807D01*
X200366942Y-124668001D01*
X200508000Y-124696566D01*
X201508000Y-124696566D01*
X201639777Y-124671770D01*
X201760807Y-124593890D01*
X201842001Y-124475058D01*
X201870566Y-124334000D01*
X201870566Y-123577286D01*
X205054062Y-123577286D01*
X205351157Y-124296311D01*
X205900795Y-124846910D01*
X206619301Y-125145259D01*
X207397286Y-125145938D01*
X208116311Y-124848843D01*
X208666910Y-124299205D01*
X208965259Y-123580699D01*
X208965938Y-122802714D01*
X208668843Y-122083689D01*
X208119205Y-121533090D01*
X207400699Y-121234741D01*
X206622714Y-121234062D01*
X205903689Y-121531157D01*
X205353090Y-122080795D01*
X205054741Y-122799301D01*
X205054062Y-123577286D01*
X201870566Y-123577286D01*
X201870566Y-123534000D01*
X201845770Y-123402223D01*
X201767890Y-123281193D01*
X201649058Y-123199999D01*
X201508000Y-123171434D01*
X200508000Y-123171434D01*
X200376223Y-123196230D01*
X200320566Y-123232044D01*
X200320566Y-122534000D01*
X200295770Y-122402223D01*
X200217890Y-122281193D01*
X200099058Y-122199999D01*
X199958000Y-122171434D01*
X199258000Y-122171434D01*
X199126223Y-122196230D01*
X199005193Y-122274110D01*
X198923999Y-122392942D01*
X198895434Y-122534000D01*
X198895434Y-124034000D01*
X198920230Y-124165777D01*
X198967022Y-124238495D01*
X198748787Y-124238304D01*
X198792001Y-124175058D01*
X198820566Y-124034000D01*
X198820566Y-122534000D01*
X198795770Y-122402223D01*
X198717890Y-122281193D01*
X198717600Y-122280995D01*
X198717600Y-121794251D01*
X198818378Y-121551550D01*
X198818621Y-121273669D01*
X198712504Y-121016849D01*
X198516185Y-120820186D01*
X198259550Y-120713622D01*
X197981669Y-120713379D01*
X197724849Y-120819496D01*
X197528186Y-121015815D01*
X197421622Y-121272450D01*
X197421379Y-121550331D01*
X197498400Y-121736734D01*
X197498400Y-122284052D01*
X197423999Y-122392942D01*
X197395434Y-122534000D01*
X195820566Y-122534000D01*
X195797625Y-122412079D01*
X197154052Y-121055652D01*
X197286197Y-120857884D01*
X197332600Y-120624600D01*
X197332600Y-120428839D01*
X197408942Y-120481001D01*
X197550000Y-120509566D01*
X198770000Y-120509566D01*
X198901777Y-120484770D01*
X198984406Y-120431600D01*
X200073112Y-120431600D01*
X200089200Y-120434800D01*
X200703353Y-120434800D01*
X200718000Y-120437766D01*
X201618000Y-120437766D01*
X201749777Y-120412970D01*
X201870807Y-120335090D01*
X201952001Y-120216258D01*
X201980566Y-120075200D01*
X201980566Y-119575200D01*
X201955770Y-119443423D01*
X201877890Y-119322393D01*
X201759058Y-119241199D01*
X201618000Y-119212634D01*
X200718000Y-119212634D01*
X200702237Y-119215600D01*
X200253600Y-119215600D01*
X200253600Y-118781507D01*
X200287338Y-118862958D01*
X200430241Y-119005861D01*
X200616952Y-119083200D01*
X200914000Y-119083200D01*
X201041000Y-118956200D01*
X201041000Y-118450200D01*
X201295000Y-118450200D01*
X201295000Y-118956200D01*
X201422000Y-119083200D01*
X201719048Y-119083200D01*
X201905759Y-119005861D01*
X202048662Y-118862958D01*
X202126000Y-118676247D01*
X202126000Y-118577200D01*
X201999000Y-118450200D01*
X201295000Y-118450200D01*
X201041000Y-118450200D01*
X201021000Y-118450200D01*
X201021000Y-118200200D01*
X201041000Y-118200200D01*
X201041000Y-117694200D01*
X201295000Y-117694200D01*
X201295000Y-118200200D01*
X201999000Y-118200200D01*
X202126000Y-118073200D01*
X202126000Y-117974153D01*
X202048662Y-117787442D01*
X201905759Y-117644539D01*
X201719048Y-117567200D01*
X201422000Y-117567200D01*
X201295000Y-117694200D01*
X201041000Y-117694200D01*
X200914000Y-117567200D01*
X200616952Y-117567200D01*
X200430241Y-117644539D01*
X200287338Y-117787442D01*
X200253600Y-117868893D01*
X200253600Y-115911600D01*
X200673998Y-115911600D01*
X200907282Y-115865197D01*
X201105050Y-115733052D01*
X203034154Y-113803949D01*
X203034156Y-113803946D01*
X203127194Y-113710908D01*
X203341151Y-113622502D01*
X203344859Y-113618800D01*
X205392259Y-113618800D01*
X205357999Y-113668942D01*
X205329434Y-113810000D01*
X205329434Y-115910000D01*
X205354230Y-116041777D01*
X205432110Y-116162807D01*
X205550942Y-116244001D01*
X205692000Y-116272566D01*
X207292000Y-116272566D01*
X207423777Y-116247770D01*
X207544807Y-116169890D01*
X207626001Y-116051058D01*
X207654566Y-115910000D01*
X207654566Y-114660000D01*
X207729434Y-114660000D01*
X207729434Y-116560000D01*
X207754230Y-116691777D01*
X207832110Y-116812807D01*
X207950942Y-116894001D01*
X208092000Y-116922566D01*
X209992000Y-116922566D01*
X210123777Y-116897770D01*
X210244807Y-116819890D01*
X210326001Y-116701058D01*
X210354566Y-116560000D01*
X210354566Y-114660000D01*
X210329770Y-114528223D01*
X210251890Y-114407193D01*
X210133058Y-114325999D01*
X209992000Y-114297434D01*
X208092000Y-114297434D01*
X207960223Y-114322230D01*
X207839193Y-114400110D01*
X207757999Y-114518942D01*
X207729434Y-114660000D01*
X207654566Y-114660000D01*
X207654566Y-113810000D01*
X207629770Y-113678223D01*
X207551890Y-113557193D01*
X207433058Y-113475999D01*
X207292000Y-113447434D01*
X207219314Y-113447434D01*
X207251001Y-113401058D01*
X207279566Y-113260000D01*
X207279566Y-112860000D01*
X207255182Y-112730412D01*
X207279566Y-112610000D01*
X207279566Y-112210000D01*
X207255182Y-112080412D01*
X207279566Y-111960000D01*
X207279566Y-111560000D01*
X207255182Y-111430412D01*
X207279566Y-111310000D01*
X207279566Y-111015854D01*
X207347662Y-110947758D01*
X207425000Y-110761047D01*
X207425000Y-110687000D01*
X207298000Y-110560000D01*
X206979053Y-110560000D01*
X206917000Y-110547434D01*
X205567000Y-110547434D01*
X205500219Y-110560000D01*
X205186000Y-110560000D01*
X205059000Y-110687000D01*
X205059000Y-110761047D01*
X205136338Y-110947758D01*
X205204434Y-111015854D01*
X205204434Y-111310000D01*
X205228818Y-111439588D01*
X205204434Y-111560000D01*
X205204434Y-111960000D01*
X205228818Y-112089588D01*
X205204434Y-112210000D01*
X205204434Y-112501200D01*
X203428600Y-112501200D01*
X203428600Y-109673900D01*
X205329434Y-107773066D01*
X205329434Y-109710000D01*
X205346637Y-109801423D01*
X205279241Y-109829339D01*
X205136338Y-109972242D01*
X205059000Y-110158953D01*
X205059000Y-110233000D01*
X205186000Y-110360000D01*
X206115000Y-110360000D01*
X206115000Y-110313000D01*
X206369000Y-110313000D01*
X206369000Y-110360000D01*
X207298000Y-110360000D01*
X207425000Y-110233000D01*
X207425000Y-110158953D01*
X207382188Y-110055596D01*
X207423777Y-110047770D01*
X207544807Y-109969890D01*
X207626001Y-109851058D01*
X207654566Y-109710000D01*
X207654566Y-109610000D01*
X207729434Y-109610000D01*
X207729434Y-111510000D01*
X207754230Y-111641777D01*
X207831338Y-111761607D01*
X207757999Y-111868942D01*
X207729434Y-112010000D01*
X207729434Y-113910000D01*
X207754230Y-114041777D01*
X207832110Y-114162807D01*
X207950942Y-114244001D01*
X208092000Y-114272566D01*
X209992000Y-114272566D01*
X210123777Y-114247770D01*
X210244807Y-114169890D01*
X210326001Y-114051058D01*
X210354566Y-113910000D01*
X210354566Y-112010000D01*
X210329770Y-111878223D01*
X210252662Y-111758393D01*
X210326001Y-111651058D01*
X210354566Y-111510000D01*
X210354566Y-109610000D01*
X210329770Y-109478223D01*
X210251890Y-109357193D01*
X210133058Y-109275999D01*
X209992000Y-109247434D01*
X208092000Y-109247434D01*
X207960223Y-109272230D01*
X207839193Y-109350110D01*
X207757999Y-109468942D01*
X207729434Y-109610000D01*
X207654566Y-109610000D01*
X207654566Y-107610000D01*
X207629770Y-107478223D01*
X207551890Y-107357193D01*
X207433058Y-107275999D01*
X207292000Y-107247434D01*
X205855066Y-107247434D01*
X206320900Y-106781600D01*
X207783514Y-106781600D01*
X207757999Y-106818942D01*
X207729434Y-106960000D01*
X207729434Y-108860000D01*
X207754230Y-108991777D01*
X207832110Y-109112807D01*
X207950942Y-109194001D01*
X208092000Y-109222566D01*
X209992000Y-109222566D01*
X210123777Y-109197770D01*
X210244807Y-109119890D01*
X210326001Y-109001058D01*
X210354566Y-108860000D01*
X210354566Y-106960000D01*
X210329770Y-106828223D01*
X210251890Y-106707193D01*
X210133058Y-106625999D01*
X209992000Y-106597434D01*
X208664066Y-106597434D01*
X209342934Y-105918566D01*
X209861000Y-105918566D01*
X209992777Y-105893770D01*
X210113807Y-105815890D01*
X210195001Y-105697058D01*
X210223566Y-105556000D01*
X210223566Y-104756000D01*
X210198770Y-104624223D01*
X210120890Y-104503193D01*
X210002058Y-104421999D01*
X209861000Y-104393434D01*
X209061000Y-104393434D01*
X208929223Y-104418230D01*
X208808193Y-104496110D01*
X208726999Y-104614942D01*
X208698434Y-104756000D01*
X208698434Y-105198066D01*
X208623566Y-105272934D01*
X208623566Y-104756000D01*
X208598770Y-104624223D01*
X208520890Y-104503193D01*
X208402058Y-104421999D01*
X208261000Y-104393434D01*
X207461000Y-104393434D01*
X207329223Y-104418230D01*
X207208193Y-104496110D01*
X207126999Y-104614942D01*
X207098434Y-104756000D01*
X207098434Y-104800400D01*
X206375005Y-104800400D01*
X206375000Y-104800399D01*
X206190317Y-104837136D01*
X206033750Y-104941750D01*
X206033748Y-104941753D01*
X202492100Y-108483400D01*
X199476432Y-108483400D01*
X199457770Y-108384223D01*
X199379890Y-108263193D01*
X199261058Y-108181999D01*
X199120000Y-108153434D01*
X198620000Y-108153434D01*
X198488223Y-108178230D01*
X198367193Y-108256110D01*
X198285999Y-108374942D01*
X198257434Y-108516000D01*
X198257434Y-109416000D01*
X198282230Y-109547777D01*
X198360110Y-109668807D01*
X198478942Y-109750001D01*
X198620000Y-109778566D01*
X199120000Y-109778566D01*
X199251777Y-109753770D01*
X199372807Y-109675890D01*
X199454001Y-109557058D01*
X199475964Y-109448600D01*
X202468452Y-109448600D01*
X202463400Y-109474000D01*
X202463400Y-112524790D01*
X202354186Y-112633813D01*
X202264789Y-112849104D01*
X202172052Y-112941842D01*
X202172049Y-112941844D01*
X200421494Y-114692400D01*
X199896504Y-114692400D01*
X199339052Y-114134948D01*
X199141284Y-114002803D01*
X198908000Y-113956400D01*
X198274693Y-113956400D01*
X198246890Y-113913193D01*
X198221600Y-113895913D01*
X198221600Y-113515000D01*
X198175197Y-113281716D01*
X198043052Y-113083948D01*
X197826566Y-112867462D01*
X197826566Y-112762000D01*
X198178000Y-112762000D01*
X198178000Y-112861047D01*
X198255338Y-113047758D01*
X198398241Y-113190661D01*
X198584952Y-113268000D01*
X198882000Y-113268000D01*
X199009000Y-113141000D01*
X199009000Y-112635000D01*
X199263000Y-112635000D01*
X199263000Y-113141000D01*
X199390000Y-113268000D01*
X199687048Y-113268000D01*
X199873759Y-113190661D01*
X200016662Y-113047758D01*
X200094000Y-112861047D01*
X200094000Y-112762000D01*
X199967000Y-112635000D01*
X199263000Y-112635000D01*
X199009000Y-112635000D01*
X198305000Y-112635000D01*
X198178000Y-112762000D01*
X197826566Y-112762000D01*
X197826566Y-112512000D01*
X197801770Y-112380223D01*
X197723890Y-112259193D01*
X197605058Y-112177999D01*
X197511007Y-112158953D01*
X198178000Y-112158953D01*
X198178000Y-112258000D01*
X198305000Y-112385000D01*
X199009000Y-112385000D01*
X199009000Y-111879000D01*
X199263000Y-111879000D01*
X199263000Y-112385000D01*
X199967000Y-112385000D01*
X200094000Y-112258000D01*
X200094000Y-112158953D01*
X200016662Y-111972242D01*
X199873759Y-111829339D01*
X199687048Y-111752000D01*
X199390000Y-111752000D01*
X199263000Y-111879000D01*
X199009000Y-111879000D01*
X198882000Y-111752000D01*
X198584952Y-111752000D01*
X198398241Y-111829339D01*
X198255338Y-111972242D01*
X198178000Y-112158953D01*
X197511007Y-112158953D01*
X197464000Y-112149434D01*
X196404000Y-112149434D01*
X196272223Y-112174230D01*
X196151193Y-112252110D01*
X196069999Y-112370942D01*
X196041434Y-112512000D01*
X196041434Y-113162000D01*
X196066230Y-113293777D01*
X196144110Y-113414807D01*
X196262942Y-113496001D01*
X196404000Y-113524566D01*
X196759462Y-113524566D01*
X197002400Y-113767504D01*
X197002400Y-113894394D01*
X196984193Y-113906110D01*
X196902999Y-114024942D01*
X196874434Y-114166000D01*
X196874434Y-114966000D01*
X196899230Y-115097777D01*
X196977110Y-115218807D01*
X196981655Y-115221913D01*
X196949241Y-115235339D01*
X196806338Y-115378242D01*
X196729000Y-115564953D01*
X196729000Y-115812000D01*
X196856000Y-115939000D01*
X197485000Y-115939000D01*
X197485000Y-115919000D01*
X197739000Y-115919000D01*
X197739000Y-115939000D01*
X198368000Y-115939000D01*
X198495000Y-115812000D01*
X198495000Y-115564953D01*
X198417662Y-115378242D01*
X198274759Y-115235339D01*
X198242485Y-115221971D01*
X198274169Y-115175600D01*
X198655496Y-115175600D01*
X199034400Y-115554504D01*
X199034400Y-117312400D01*
X198983359Y-117312400D01*
X198911058Y-117262999D01*
X198770000Y-117234434D01*
X197550000Y-117234434D01*
X197418223Y-117259230D01*
X197297193Y-117337110D01*
X197215999Y-117455942D01*
X197187434Y-117597000D01*
X197187434Y-118247000D01*
X197190332Y-118262400D01*
X196742504Y-118262400D01*
X196512566Y-118032462D01*
X196512566Y-117597000D01*
X196487770Y-117465223D01*
X196409890Y-117344193D01*
X196291058Y-117262999D01*
X196150000Y-117234434D01*
X194930000Y-117234434D01*
X194798223Y-117259230D01*
X194677193Y-117337110D01*
X194595999Y-117455942D01*
X194567434Y-117597000D01*
X194567434Y-118247000D01*
X194573305Y-118278201D01*
X193434600Y-117139496D01*
X193434600Y-116585395D01*
X193504338Y-116753758D01*
X193647241Y-116896661D01*
X193833952Y-116974000D01*
X194056000Y-116974000D01*
X194183000Y-116847000D01*
X194183000Y-116193000D01*
X194437000Y-116193000D01*
X194437000Y-116847000D01*
X194564000Y-116974000D01*
X194786048Y-116974000D01*
X194972759Y-116896661D01*
X195115662Y-116753758D01*
X195193000Y-116567047D01*
X195193000Y-116320000D01*
X196729000Y-116320000D01*
X196729000Y-116567047D01*
X196806338Y-116753758D01*
X196949241Y-116896661D01*
X197135952Y-116974000D01*
X197358000Y-116974000D01*
X197485000Y-116847000D01*
X197485000Y-116193000D01*
X197739000Y-116193000D01*
X197739000Y-116847000D01*
X197866000Y-116974000D01*
X198088048Y-116974000D01*
X198274759Y-116896661D01*
X198417662Y-116753758D01*
X198495000Y-116567047D01*
X198495000Y-116320000D01*
X198368000Y-116193000D01*
X197739000Y-116193000D01*
X197485000Y-116193000D01*
X196856000Y-116193000D01*
X196729000Y-116320000D01*
X195193000Y-116320000D01*
X195066000Y-116193000D01*
X194437000Y-116193000D01*
X194183000Y-116193000D01*
X194163000Y-116193000D01*
X194163000Y-115939000D01*
X194183000Y-115939000D01*
X194183000Y-115919000D01*
X194437000Y-115919000D01*
X194437000Y-115939000D01*
X195066000Y-115939000D01*
X195193000Y-115812000D01*
X195193000Y-115564953D01*
X195115662Y-115378242D01*
X194972759Y-115235339D01*
X194940485Y-115221971D01*
X195019001Y-115107058D01*
X195047566Y-114966000D01*
X195047566Y-114166000D01*
X195022770Y-114034223D01*
X194944890Y-113913193D01*
X194919600Y-113895913D01*
X194919600Y-113524566D01*
X195264000Y-113524566D01*
X195395777Y-113499770D01*
X195516807Y-113421890D01*
X195598001Y-113303058D01*
X195626566Y-113162000D01*
X195626566Y-112567854D01*
X195694661Y-112499759D01*
X195772000Y-112313048D01*
X195772000Y-112141000D01*
X195645000Y-112014000D01*
X194861000Y-112014000D01*
X194861000Y-112034000D01*
X194607000Y-112034000D01*
X194607000Y-112014000D01*
X193823000Y-112014000D01*
X193696000Y-112141000D01*
X193696000Y-112313048D01*
X193773339Y-112499759D01*
X193841434Y-112567854D01*
X193841434Y-112886091D01*
X193746803Y-113027716D01*
X193700400Y-113261000D01*
X193700400Y-113894394D01*
X193682193Y-113906110D01*
X193647831Y-113956400D01*
X193434600Y-113956400D01*
X193434600Y-112153000D01*
X193388197Y-111919716D01*
X193340124Y-111847770D01*
X193256052Y-111721947D01*
X192995057Y-111460952D01*
X193696000Y-111460952D01*
X193696000Y-111633000D01*
X193823000Y-111760000D01*
X194607000Y-111760000D01*
X194607000Y-111740000D01*
X194861000Y-111740000D01*
X194861000Y-111760000D01*
X195645000Y-111760000D01*
X195772000Y-111633000D01*
X195772000Y-111460952D01*
X195754445Y-111418571D01*
X195830052Y-111368052D01*
X196041434Y-111156670D01*
X196041434Y-111262000D01*
X196066230Y-111393777D01*
X196144110Y-111514807D01*
X196262942Y-111596001D01*
X196404000Y-111624566D01*
X197464000Y-111624566D01*
X197595777Y-111599770D01*
X197678406Y-111546600D01*
X198475568Y-111546600D01*
X198544942Y-111594001D01*
X198686000Y-111622566D01*
X199586000Y-111622566D01*
X199717777Y-111597770D01*
X199838807Y-111519890D01*
X199920001Y-111401058D01*
X199948566Y-111260000D01*
X199948566Y-110760000D01*
X199923770Y-110628223D01*
X199845890Y-110507193D01*
X199727058Y-110425999D01*
X199586000Y-110397434D01*
X199331650Y-110397434D01*
X199296284Y-110373803D01*
X199063000Y-110327400D01*
X197677359Y-110327400D01*
X197605058Y-110277999D01*
X197464000Y-110249434D01*
X196948670Y-110249434D01*
X197419538Y-109778566D01*
X197620000Y-109778566D01*
X197751777Y-109753770D01*
X197872807Y-109675890D01*
X197954001Y-109557058D01*
X197982566Y-109416000D01*
X197982566Y-108516000D01*
X197957770Y-108384223D01*
X197879890Y-108263193D01*
X197761058Y-108181999D01*
X197620000Y-108153434D01*
X197120000Y-108153434D01*
X196988223Y-108178230D01*
X196867193Y-108256110D01*
X196785999Y-108374942D01*
X196757434Y-108516000D01*
X196757434Y-108716462D01*
X195224462Y-110249434D01*
X194204000Y-110249434D01*
X194072223Y-110274230D01*
X193951193Y-110352110D01*
X193869999Y-110470942D01*
X193841434Y-110612000D01*
X193841434Y-111206146D01*
X193773339Y-111274241D01*
X193696000Y-111460952D01*
X192995057Y-111460952D01*
X192294566Y-110760462D01*
X192294566Y-110260000D01*
X192269770Y-110128223D01*
X192191890Y-110007193D01*
X192073058Y-109925999D01*
X191932000Y-109897434D01*
X188432000Y-109897434D01*
X188300223Y-109922230D01*
X188179193Y-110000110D01*
X188097999Y-110118942D01*
X188069434Y-110260000D01*
X187807600Y-110260000D01*
X187807600Y-109218504D01*
X188476504Y-108549600D01*
X191905000Y-108549600D01*
X192138284Y-108503197D01*
X192336052Y-108371052D01*
X193547538Y-107159566D01*
X194048000Y-107159566D01*
X194179777Y-107134770D01*
X194300807Y-107056890D01*
X194382001Y-106938058D01*
X194410566Y-106797000D01*
X194410566Y-105547000D01*
X194385770Y-105415223D01*
X194307890Y-105294193D01*
X194189058Y-105212999D01*
X194157600Y-105206629D01*
X194157600Y-104827566D01*
X194558000Y-104827566D01*
X194689777Y-104802770D01*
X194779301Y-104745163D01*
X196081269Y-106047131D01*
X196262556Y-106168264D01*
X196476400Y-106210800D01*
X202699059Y-106210800D01*
X202735942Y-106236001D01*
X202877000Y-106264566D01*
X203777000Y-106264566D01*
X203908777Y-106239770D01*
X204029807Y-106161890D01*
X204111001Y-106043058D01*
X204139566Y-105902000D01*
X204139566Y-105402000D01*
X204114770Y-105270223D01*
X204036890Y-105149193D01*
X203918058Y-105067999D01*
X203777000Y-105039434D01*
X202877000Y-105039434D01*
X202745223Y-105064230D01*
X202700202Y-105093200D01*
X196707862Y-105093200D01*
X195892993Y-104278331D01*
X196786379Y-104278331D01*
X196892496Y-104535151D01*
X197088815Y-104731814D01*
X197345450Y-104838378D01*
X197623331Y-104838621D01*
X197880151Y-104732504D01*
X198015692Y-104597200D01*
X199820502Y-104597200D01*
X199898110Y-104717807D01*
X200016942Y-104799001D01*
X200158000Y-104827566D01*
X201858000Y-104827566D01*
X201989777Y-104802770D01*
X202110807Y-104724890D01*
X202128633Y-104698800D01*
X202681496Y-104698800D01*
X202735942Y-104736001D01*
X202877000Y-104764566D01*
X203777000Y-104764566D01*
X203908777Y-104739770D01*
X204029807Y-104661890D01*
X204111001Y-104543058D01*
X204139566Y-104402000D01*
X204139566Y-103902000D01*
X204114770Y-103770223D01*
X204036890Y-103649193D01*
X203918058Y-103567999D01*
X203777000Y-103539434D01*
X202877000Y-103539434D01*
X202745223Y-103564230D01*
X202718851Y-103581200D01*
X202130121Y-103581200D01*
X202117890Y-103562193D01*
X202033578Y-103504585D01*
X202110807Y-103454890D01*
X202192001Y-103336058D01*
X202220566Y-103195000D01*
X202220566Y-102545000D01*
X202195770Y-102413223D01*
X202117890Y-102292193D01*
X202033578Y-102234585D01*
X202110807Y-102184890D01*
X202180698Y-102082600D01*
X202184000Y-102082600D01*
X202368683Y-102045864D01*
X202525250Y-101941250D01*
X203033247Y-101433252D01*
X203033250Y-101433250D01*
X203137864Y-101276683D01*
X203174600Y-101092000D01*
X203174600Y-100717286D01*
X205054062Y-100717286D01*
X205351157Y-101436311D01*
X205900795Y-101986910D01*
X206619301Y-102285259D01*
X207397286Y-102285938D01*
X208116311Y-101988843D01*
X208666910Y-101439205D01*
X208965259Y-100720699D01*
X208965938Y-99942714D01*
X208668843Y-99223689D01*
X208119205Y-98673090D01*
X207400699Y-98374741D01*
X206622714Y-98374062D01*
X205903689Y-98671157D01*
X205353090Y-99220795D01*
X205054741Y-99939301D01*
X205054062Y-100717286D01*
X203174600Y-100717286D01*
X203174600Y-98298000D01*
X203137864Y-98113317D01*
X203033250Y-97956750D01*
X203033247Y-97956748D01*
X202525250Y-97448750D01*
X202368683Y-97344136D01*
X202184000Y-97307400D01*
X201750432Y-97307400D01*
X201731770Y-97208223D01*
X201653890Y-97087193D01*
X201535058Y-97005999D01*
X201394000Y-96977434D01*
X200894000Y-96977434D01*
X200762223Y-97002230D01*
X200641193Y-97080110D01*
X200559999Y-97198942D01*
X200531434Y-97340000D01*
X200531434Y-98240000D01*
X200556230Y-98371777D01*
X200634110Y-98492807D01*
X200752942Y-98574001D01*
X200894000Y-98602566D01*
X201394000Y-98602566D01*
X201525777Y-98577770D01*
X201646807Y-98499890D01*
X201728001Y-98381058D01*
X201749964Y-98272600D01*
X201984100Y-98272600D01*
X202209400Y-98497899D01*
X202209400Y-99637980D01*
X202145758Y-99574338D01*
X201959047Y-99497000D01*
X201262000Y-99497000D01*
X201135000Y-99624000D01*
X201135000Y-100203000D01*
X201155000Y-100203000D01*
X201155000Y-100457000D01*
X201135000Y-100457000D01*
X201135000Y-100477000D01*
X200881000Y-100477000D01*
X200881000Y-100457000D01*
X199777000Y-100457000D01*
X199650000Y-100584000D01*
X199650000Y-100756048D01*
X199727339Y-100942759D01*
X199862368Y-101077788D01*
X199823999Y-101133942D01*
X199795434Y-101275000D01*
X199795434Y-101925000D01*
X199820230Y-102056777D01*
X199898110Y-102177807D01*
X199982422Y-102235415D01*
X199905193Y-102285110D01*
X199859644Y-102351774D01*
X199786185Y-102278186D01*
X199529550Y-102171622D01*
X199251669Y-102171379D01*
X198994849Y-102277496D01*
X198798186Y-102473815D01*
X198691622Y-102730450D01*
X198691379Y-103008331D01*
X198797496Y-103265151D01*
X198993815Y-103461814D01*
X199250450Y-103568378D01*
X199528331Y-103568621D01*
X199785151Y-103462504D01*
X199859688Y-103388097D01*
X199898110Y-103447807D01*
X199982422Y-103505415D01*
X199905193Y-103555110D01*
X199823999Y-103673942D01*
X199822205Y-103682800D01*
X198015564Y-103682800D01*
X197881185Y-103548186D01*
X197624550Y-103441622D01*
X197346669Y-103441379D01*
X197089849Y-103547496D01*
X196893186Y-103743815D01*
X196786622Y-104000450D01*
X196786379Y-104278331D01*
X195892993Y-104278331D01*
X195359531Y-103744869D01*
X195278013Y-103690400D01*
X195178244Y-103623736D01*
X194964400Y-103581200D01*
X194830121Y-103581200D01*
X194817890Y-103562193D01*
X194733578Y-103504585D01*
X194810807Y-103454890D01*
X194892001Y-103336058D01*
X194920566Y-103195000D01*
X194920566Y-102545000D01*
X194895770Y-102413223D01*
X194817890Y-102292193D01*
X194733578Y-102234585D01*
X194810807Y-102184890D01*
X194892001Y-102066058D01*
X194920566Y-101925000D01*
X194920566Y-101275000D01*
X194895770Y-101143223D01*
X194817890Y-101022193D01*
X194733578Y-100964585D01*
X194810807Y-100914890D01*
X194892001Y-100796058D01*
X194920566Y-100655000D01*
X194920566Y-100005000D01*
X194901553Y-99903952D01*
X199650000Y-99903952D01*
X199650000Y-100076000D01*
X199777000Y-100203000D01*
X200881000Y-100203000D01*
X200881000Y-99624000D01*
X200754000Y-99497000D01*
X200056953Y-99497000D01*
X199870242Y-99574338D01*
X199727339Y-99717241D01*
X199650000Y-99903952D01*
X194901553Y-99903952D01*
X194895770Y-99873223D01*
X194817890Y-99752193D01*
X194699058Y-99670999D01*
X194558000Y-99642434D01*
X192858000Y-99642434D01*
X192726223Y-99667230D01*
X192605193Y-99745110D01*
X192535302Y-99847400D01*
X192312850Y-99847400D01*
X192128167Y-99884136D01*
X191971600Y-99988750D01*
X190487361Y-101472989D01*
X189349000Y-101472989D01*
X189349000Y-100091000D01*
X189222000Y-99964000D01*
X188468000Y-99964000D01*
X188468000Y-99984000D01*
X188214000Y-99984000D01*
X188214000Y-99964000D01*
X187460000Y-99964000D01*
X187333000Y-100091000D01*
X187333000Y-101472989D01*
X187044489Y-101472989D01*
X186663566Y-101092066D01*
X186663566Y-98262000D01*
X186644553Y-98160953D01*
X187333000Y-98160953D01*
X187333000Y-99583000D01*
X187460000Y-99710000D01*
X188214000Y-99710000D01*
X188214000Y-97881000D01*
X188468000Y-97881000D01*
X188468000Y-99710000D01*
X189222000Y-99710000D01*
X189349000Y-99583000D01*
X189349000Y-98160953D01*
X189300557Y-98044000D01*
X193872000Y-98044000D01*
X193872000Y-98291048D01*
X193949339Y-98477759D01*
X194092242Y-98620662D01*
X194278953Y-98698000D01*
X194526000Y-98698000D01*
X194653000Y-98571000D01*
X194653000Y-97917000D01*
X193999000Y-97917000D01*
X193872000Y-98044000D01*
X189300557Y-98044000D01*
X189271662Y-97974242D01*
X189128759Y-97831339D01*
X188942048Y-97754000D01*
X188595000Y-97754000D01*
X188468000Y-97881000D01*
X188214000Y-97881000D01*
X188087000Y-97754000D01*
X187739952Y-97754000D01*
X187553241Y-97831339D01*
X187410338Y-97974242D01*
X187333000Y-98160953D01*
X186644553Y-98160953D01*
X186638770Y-98130223D01*
X186560890Y-98009193D01*
X186442058Y-97927999D01*
X186301000Y-97899434D01*
X185301000Y-97899434D01*
X185169223Y-97924230D01*
X185048193Y-98002110D01*
X184966999Y-98120942D01*
X184938434Y-98262000D01*
X184938434Y-101412000D01*
X184963230Y-101543777D01*
X185041110Y-101664807D01*
X185159942Y-101746001D01*
X185301000Y-101774566D01*
X185981066Y-101774566D01*
X186111300Y-101904800D01*
X185188608Y-101904800D01*
X185079585Y-101795586D01*
X184822950Y-101689022D01*
X184545069Y-101688779D01*
X184288249Y-101794896D01*
X184091586Y-101991215D01*
X183985022Y-102247850D01*
X183984884Y-102405617D01*
X183441066Y-102949434D01*
X182761000Y-102949434D01*
X182629223Y-102974230D01*
X182508193Y-103052110D01*
X182426999Y-103170942D01*
X182398434Y-103312000D01*
X182398434Y-104404400D01*
X180621133Y-104404400D01*
X180515829Y-104149546D01*
X180205090Y-103838264D01*
X179798882Y-103669592D01*
X179359047Y-103669208D01*
X178952546Y-103837171D01*
X178641264Y-104147910D01*
X178472592Y-104554118D01*
X178472208Y-104993953D01*
X178640171Y-105400454D01*
X178950910Y-105711736D01*
X179357118Y-105880408D01*
X179796953Y-105880792D01*
X180203454Y-105712829D01*
X180514736Y-105402090D01*
X180528227Y-105369600D01*
X182398434Y-105369600D01*
X182398434Y-106462000D01*
X182423230Y-106593777D01*
X182501110Y-106714807D01*
X182619942Y-106796001D01*
X182761000Y-106824566D01*
X183761000Y-106824566D01*
X183892777Y-106799770D01*
X184013807Y-106721890D01*
X184095001Y-106603058D01*
X184123566Y-106462000D01*
X184123566Y-103631934D01*
X184669611Y-103085888D01*
X184821731Y-103086021D01*
X185078551Y-102979904D01*
X185188648Y-102870000D01*
X185499500Y-102870000D01*
X185459750Y-102909750D01*
X185433234Y-102949434D01*
X185301000Y-102949434D01*
X185169223Y-102974230D01*
X185048193Y-103052110D01*
X184966999Y-103170942D01*
X184938434Y-103312000D01*
X184938434Y-106462000D01*
X184963230Y-106593777D01*
X185041110Y-106714807D01*
X185159942Y-106796001D01*
X185301000Y-106824566D01*
X186301000Y-106824566D01*
X186432777Y-106799770D01*
X186553807Y-106721890D01*
X186635001Y-106603058D01*
X186663566Y-106462000D01*
X186663566Y-103352600D01*
X187478434Y-103352600D01*
X187478434Y-106462000D01*
X187503230Y-106593777D01*
X187581110Y-106714807D01*
X187699942Y-106796001D01*
X187841000Y-106824566D01*
X188841000Y-106824566D01*
X188972777Y-106799770D01*
X189093807Y-106721890D01*
X189175001Y-106603058D01*
X189203566Y-106462000D01*
X189203566Y-106426000D01*
X190540000Y-106426000D01*
X190540000Y-106898048D01*
X190617339Y-107084759D01*
X190760242Y-107227662D01*
X190946953Y-107305000D01*
X191294000Y-107305000D01*
X191421000Y-107178000D01*
X191421000Y-106299000D01*
X190667000Y-106299000D01*
X190540000Y-106426000D01*
X189203566Y-106426000D01*
X189203566Y-105369600D01*
X189344818Y-105369600D01*
X189468815Y-105493814D01*
X189725450Y-105600378D01*
X190003331Y-105600621D01*
X190260151Y-105494504D01*
X190308788Y-105445952D01*
X190540000Y-105445952D01*
X190540000Y-105918000D01*
X190667000Y-106045000D01*
X191421000Y-106045000D01*
X191421000Y-105166000D01*
X191675000Y-105166000D01*
X191675000Y-106045000D01*
X192429000Y-106045000D01*
X192556000Y-105918000D01*
X192556000Y-105445952D01*
X192478661Y-105259241D01*
X192335758Y-105116338D01*
X192149047Y-105039000D01*
X191802000Y-105039000D01*
X191675000Y-105166000D01*
X191421000Y-105166000D01*
X191294000Y-105039000D01*
X190946953Y-105039000D01*
X190760242Y-105116338D01*
X190617339Y-105259241D01*
X190540000Y-105445952D01*
X190308788Y-105445952D01*
X190456814Y-105298185D01*
X190563378Y-105041550D01*
X190563621Y-104763669D01*
X190457504Y-104506849D01*
X190261185Y-104310186D01*
X190004550Y-104203622D01*
X189726669Y-104203379D01*
X189469849Y-104309496D01*
X189374779Y-104404400D01*
X189203566Y-104404400D01*
X189203566Y-103352600D01*
X192536847Y-103352600D01*
X192598110Y-103447807D01*
X192682422Y-103505415D01*
X192605193Y-103555110D01*
X192523999Y-103673942D01*
X192495434Y-103815000D01*
X192495434Y-104465000D01*
X192520230Y-104596777D01*
X192598110Y-104717807D01*
X192716942Y-104799001D01*
X192858000Y-104827566D01*
X192938400Y-104827566D01*
X192938400Y-105205057D01*
X192916223Y-105209230D01*
X192795193Y-105287110D01*
X192713999Y-105405942D01*
X192685434Y-105547000D01*
X192685434Y-106297462D01*
X192556000Y-106426896D01*
X192556000Y-106426000D01*
X192429000Y-106299000D01*
X191675000Y-106299000D01*
X191675000Y-107178000D01*
X191739948Y-107242948D01*
X191652496Y-107330400D01*
X188224000Y-107330400D01*
X187990716Y-107376803D01*
X187792948Y-107508948D01*
X186766948Y-108534948D01*
X186744566Y-108568445D01*
X186744566Y-107610000D01*
X186719770Y-107478223D01*
X186641890Y-107357193D01*
X186523058Y-107275999D01*
X186382000Y-107247434D01*
X182982000Y-107247434D01*
X182850223Y-107272230D01*
X182729193Y-107350110D01*
X182647999Y-107468942D01*
X182619434Y-107610000D01*
X182619434Y-109110000D01*
X182644230Y-109241777D01*
X182722110Y-109362807D01*
X182840942Y-109444001D01*
X182982000Y-109472566D01*
X186382000Y-109472566D01*
X186513777Y-109447770D01*
X186588400Y-109399752D01*
X186588400Y-114120645D01*
X186523058Y-114075999D01*
X186382000Y-114047434D01*
X182982000Y-114047434D01*
X182850223Y-114072230D01*
X182729193Y-114150110D01*
X182647999Y-114268942D01*
X182619434Y-114410000D01*
X182619434Y-115910000D01*
X182644230Y-116041777D01*
X182722110Y-116162807D01*
X182840942Y-116244001D01*
X182982000Y-116272566D01*
X186382000Y-116272566D01*
X186513777Y-116247770D01*
X186634807Y-116169890D01*
X186661349Y-116131044D01*
X186766948Y-116289084D01*
X187980883Y-117503020D01*
X187945849Y-117517496D01*
X187749186Y-117713815D01*
X187642622Y-117970450D01*
X187642379Y-118248331D01*
X187748496Y-118505151D01*
X187858400Y-118615248D01*
X187858400Y-119689100D01*
X187620805Y-119926695D01*
X187501000Y-119902434D01*
X186611000Y-119902434D01*
X186479223Y-119927230D01*
X186358193Y-120005110D01*
X186309000Y-120077107D01*
X186309000Y-119761000D01*
X187579000Y-119761000D01*
X187625159Y-119752315D01*
X187667553Y-119725035D01*
X187695994Y-119683410D01*
X187706000Y-119634000D01*
X187706000Y-118618000D01*
X187697315Y-118571841D01*
X187670035Y-118529447D01*
X187628410Y-118501006D01*
X187579000Y-118491000D01*
X186347858Y-118491000D01*
X186405000Y-118353048D01*
X186405000Y-117856000D01*
X186278000Y-117729000D01*
X185674000Y-117729000D01*
X185674000Y-117749000D01*
X185420000Y-117749000D01*
X185420000Y-117729000D01*
X184816000Y-117729000D01*
X184689000Y-117856000D01*
X184689000Y-118353048D01*
X184746142Y-118491000D01*
X184264080Y-118491000D01*
X184331001Y-118393058D01*
X184350168Y-118298407D01*
X184562195Y-117981086D01*
X184637600Y-117602000D01*
X184562195Y-117222914D01*
X184351095Y-116906980D01*
X184340553Y-116850952D01*
X184689000Y-116850952D01*
X184689000Y-117348000D01*
X184816000Y-117475000D01*
X185420000Y-117475000D01*
X185420000Y-116571000D01*
X185674000Y-116571000D01*
X185674000Y-117475000D01*
X186278000Y-117475000D01*
X186405000Y-117348000D01*
X186405000Y-116850952D01*
X186327661Y-116664241D01*
X186184758Y-116521338D01*
X185998047Y-116444000D01*
X185801000Y-116444000D01*
X185674000Y-116571000D01*
X185420000Y-116571000D01*
X185293000Y-116444000D01*
X185095953Y-116444000D01*
X184909242Y-116521338D01*
X184766339Y-116664241D01*
X184689000Y-116850952D01*
X184340553Y-116850952D01*
X184334770Y-116820223D01*
X184256890Y-116699193D01*
X184138058Y-116617999D01*
X183997000Y-116589434D01*
X183297000Y-116589434D01*
X183180263Y-116611400D01*
X182274320Y-116611400D01*
X175452460Y-109789540D01*
X175131086Y-109574805D01*
X174752000Y-109499400D01*
X171805600Y-109499400D01*
X171805600Y-104140000D01*
X171779464Y-104006190D01*
X171701447Y-103888553D01*
X166875447Y-99062553D01*
X166762348Y-98986416D01*
X166624000Y-98958400D01*
X148590000Y-98958400D01*
X148456190Y-98984536D01*
X148338553Y-99062553D01*
X143512553Y-103888553D01*
X143436416Y-104001652D01*
X143408400Y-104140000D01*
X143408400Y-109499400D01*
X138850093Y-109499400D01*
X138777890Y-109387193D01*
X138659058Y-109305999D01*
X138518000Y-109277434D01*
X136818000Y-109277434D01*
X136686223Y-109302230D01*
X136565193Y-109380110D01*
X136483999Y-109498942D01*
X136455434Y-109640000D01*
X136455434Y-111340000D01*
X136480230Y-111471777D01*
X136558110Y-111592807D01*
X136676942Y-111674001D01*
X136818000Y-111702566D01*
X138518000Y-111702566D01*
X138649777Y-111677770D01*
X138770807Y-111599890D01*
X138852001Y-111481058D01*
X138852094Y-111480600D01*
X143408400Y-111480600D01*
X143408400Y-112039400D01*
X138337407Y-112039400D01*
X138152982Y-111916171D01*
X137691619Y-111824400D01*
X137644381Y-111824400D01*
X137183018Y-111916171D01*
X136791893Y-112177512D01*
X136530552Y-112568637D01*
X136438781Y-113030000D01*
X135050600Y-113030000D01*
X135050600Y-100717286D01*
X136474062Y-100717286D01*
X136771157Y-101436311D01*
X137320795Y-101986910D01*
X138039301Y-102285259D01*
X138817286Y-102285938D01*
X139536311Y-101988843D01*
X140086910Y-101439205D01*
X140385259Y-100720699D01*
X140385938Y-99942714D01*
X140088843Y-99223689D01*
X139539205Y-98673090D01*
X138820699Y-98374741D01*
X138042714Y-98374062D01*
X137323689Y-98671157D01*
X136773090Y-99220795D01*
X136474741Y-99939301D01*
X136474062Y-100717286D01*
X135050600Y-100717286D01*
X135050600Y-96950600D01*
X182858510Y-96950600D01*
X182796186Y-97012815D01*
X182796186Y-97012815D01*
G37*
X182796186Y-97012815D02*
X182689622Y-97269450D01*
X182689379Y-97547331D01*
X182778400Y-97762776D01*
X182778400Y-97899434D01*
X182761000Y-97899434D01*
X182629223Y-97924230D01*
X182508193Y-98002110D01*
X182426999Y-98120942D01*
X182398434Y-98262000D01*
X182398434Y-101412000D01*
X182423230Y-101543777D01*
X182501110Y-101664807D01*
X182619942Y-101746001D01*
X182761000Y-101774566D01*
X183761000Y-101774566D01*
X183892777Y-101749770D01*
X184013807Y-101671890D01*
X184095001Y-101553058D01*
X184123566Y-101412000D01*
X184123566Y-98262000D01*
X184098770Y-98130223D01*
X184020890Y-98009193D01*
X183997600Y-97993280D01*
X183997600Y-97762351D01*
X184086378Y-97548550D01*
X184086621Y-97270669D01*
X183980504Y-97013849D01*
X183917366Y-96950600D01*
X194113337Y-96950600D01*
X194092242Y-96959338D01*
X193949339Y-97102241D01*
X193872000Y-97288952D01*
X193872000Y-97536000D01*
X193999000Y-97663000D01*
X194653000Y-97663000D01*
X194653000Y-97643000D01*
X194907000Y-97643000D01*
X194907000Y-97663000D01*
X194927000Y-97663000D01*
X194927000Y-97917000D01*
X194907000Y-97917000D01*
X194907000Y-98571000D01*
X195034000Y-98698000D01*
X195281047Y-98698000D01*
X195467758Y-98620662D01*
X195610661Y-98477759D01*
X195662332Y-98353016D01*
X195720110Y-98442807D01*
X195838942Y-98524001D01*
X195980000Y-98552566D01*
X196780000Y-98552566D01*
X196911777Y-98527770D01*
X197032807Y-98449890D01*
X197114001Y-98331058D01*
X197125839Y-98272600D01*
X199037568Y-98272600D01*
X199056230Y-98371777D01*
X199134110Y-98492807D01*
X199252942Y-98574001D01*
X199394000Y-98602566D01*
X199894000Y-98602566D01*
X200025777Y-98577770D01*
X200146807Y-98499890D01*
X200228001Y-98381058D01*
X200256566Y-98240000D01*
X200256566Y-97340000D01*
X200231770Y-97208223D01*
X200153890Y-97087193D01*
X200035058Y-97005999D01*
X199894000Y-96977434D01*
X199394000Y-96977434D01*
X199262223Y-97002230D01*
X199141193Y-97080110D01*
X199059999Y-97198942D01*
X199038036Y-97307400D01*
X197127023Y-97307400D01*
X197117770Y-97258223D01*
X197039890Y-97137193D01*
X196921058Y-97055999D01*
X196780000Y-97027434D01*
X195980000Y-97027434D01*
X195848223Y-97052230D01*
X195727193Y-97130110D01*
X195661830Y-97225773D01*
X195610661Y-97102241D01*
X195467758Y-96959338D01*
X195446663Y-96950600D01*
X210389400Y-96950600D01*
X210389400Y-126569400D01*
X201865422Y-126569400D01*
X201870566Y-126544000D01*
X201870566Y-125744000D01*
X201845770Y-125612223D01*
X201767890Y-125491193D01*
X201649058Y-125409999D01*
X201508000Y-125381434D01*
X200508000Y-125381434D01*
X200376223Y-125406230D01*
X200255193Y-125484110D01*
X200173999Y-125602942D01*
X200145434Y-125744000D01*
X200145434Y-126544000D01*
X200150213Y-126569400D01*
X194565422Y-126569400D01*
X194570566Y-126544000D01*
X194570566Y-125744000D01*
X194545770Y-125612223D01*
X194467890Y-125491193D01*
X194349058Y-125409999D01*
X194208000Y-125381434D01*
X193208000Y-125381434D01*
X193076223Y-125406230D01*
X192955193Y-125484110D01*
X192873999Y-125602942D01*
X192845434Y-125744000D01*
X192845434Y-126544000D01*
X192850213Y-126569400D01*
X135050600Y-126569400D01*
X135050600Y-123577286D01*
X136474062Y-123577286D01*
X136771157Y-124296311D01*
X137320795Y-124846910D01*
X138039301Y-125145259D01*
X138817286Y-125145938D01*
X139536311Y-124848843D01*
X140086910Y-124299205D01*
X140385259Y-123580699D01*
X140385938Y-122802714D01*
X140088843Y-122083689D01*
X139539205Y-121533090D01*
X138820699Y-121234741D01*
X138042714Y-121234062D01*
X137323689Y-121531157D01*
X136773090Y-122080795D01*
X136474741Y-122799301D01*
X136474062Y-123577286D01*
X135050600Y-123577286D01*
X135050600Y-113030000D01*
X136438781Y-113030000D01*
X136530552Y-113491363D01*
X136791893Y-113882488D01*
X137183018Y-114143829D01*
X137644381Y-114235600D01*
X137691619Y-114235600D01*
X138152982Y-114143829D01*
X138337407Y-114020600D01*
X143408400Y-114020600D01*
X143408400Y-119380000D01*
X143434536Y-119513810D01*
X143512553Y-119631447D01*
X148338553Y-124457447D01*
X148451652Y-124533584D01*
X148590000Y-124561600D01*
X166624000Y-124561600D01*
X166757810Y-124535464D01*
X166875447Y-124457447D01*
X169182894Y-122150000D01*
X176238000Y-122150000D01*
X176238000Y-122497047D01*
X176315338Y-122683758D01*
X176458241Y-122826661D01*
X176644952Y-122904000D01*
X177292000Y-122904000D01*
X177419000Y-122777000D01*
X177419000Y-122023000D01*
X177673000Y-122023000D01*
X177673000Y-122777000D01*
X177800000Y-122904000D01*
X178447048Y-122904000D01*
X178633759Y-122826661D01*
X178776662Y-122683758D01*
X178854000Y-122497047D01*
X178854000Y-122150000D01*
X178727000Y-122023000D01*
X177673000Y-122023000D01*
X177419000Y-122023000D01*
X176365000Y-122023000D01*
X176238000Y-122150000D01*
X169182894Y-122150000D01*
X170037941Y-121294953D01*
X176238000Y-121294953D01*
X176238000Y-121642000D01*
X176365000Y-121769000D01*
X177419000Y-121769000D01*
X177419000Y-121015000D01*
X177673000Y-121015000D01*
X177673000Y-121769000D01*
X178727000Y-121769000D01*
X178854000Y-121642000D01*
X178854000Y-121294953D01*
X178776662Y-121108242D01*
X178633759Y-120965339D01*
X178447048Y-120888000D01*
X177800000Y-120888000D01*
X177673000Y-121015000D01*
X177419000Y-121015000D01*
X177292000Y-120888000D01*
X176644952Y-120888000D01*
X176458241Y-120965339D01*
X176315338Y-121108242D01*
X176238000Y-121294953D01*
X170037941Y-121294953D01*
X171701447Y-119631447D01*
X171777584Y-119518348D01*
X171805600Y-119380000D01*
X171805600Y-114020600D01*
X174849680Y-114020600D01*
X176555400Y-115726320D01*
X176555400Y-118096081D01*
X176493193Y-118136110D01*
X176411999Y-118254942D01*
X176383434Y-118396000D01*
X176383434Y-119396000D01*
X176408230Y-119527777D01*
X176486110Y-119648807D01*
X176604942Y-119730001D01*
X176746000Y-119758566D01*
X177088149Y-119758566D01*
X177166914Y-119811195D01*
X177546000Y-119886600D01*
X177925086Y-119811195D01*
X178003851Y-119758566D01*
X178346000Y-119758566D01*
X178477777Y-119733770D01*
X178598807Y-119655890D01*
X178680001Y-119537058D01*
X178686371Y-119505600D01*
X179436230Y-119505600D01*
X179471942Y-119530001D01*
X179613000Y-119558566D01*
X180813000Y-119558566D01*
X180944777Y-119533770D01*
X181065807Y-119455890D01*
X181147001Y-119337058D01*
X181175566Y-119196000D01*
X181175566Y-118310496D01*
X181254400Y-118363171D01*
X181254400Y-120142000D01*
X181300803Y-120375284D01*
X181432948Y-120573052D01*
X181765948Y-120906052D01*
X181963716Y-121038197D01*
X182197000Y-121084600D01*
X182846000Y-121084600D01*
X182993000Y-121055360D01*
X182993000Y-121194640D01*
X182846000Y-121165400D01*
X180484000Y-121165400D01*
X180250716Y-121211803D01*
X180218343Y-121233434D01*
X179613000Y-121233434D01*
X179481223Y-121258230D01*
X179360193Y-121336110D01*
X179278999Y-121454942D01*
X179250434Y-121596000D01*
X179250434Y-122496000D01*
X179275230Y-122627777D01*
X179353110Y-122748807D01*
X179471942Y-122830001D01*
X179603400Y-122856622D01*
X179603400Y-123444000D01*
X179649803Y-123677284D01*
X179781948Y-123875052D01*
X181813948Y-125907052D01*
X182011716Y-126039197D01*
X182245000Y-126085600D01*
X183122434Y-126085600D01*
X183122434Y-126126000D01*
X183147230Y-126257777D01*
X183225110Y-126378807D01*
X183343942Y-126460001D01*
X183485000Y-126488566D01*
X184185000Y-126488566D01*
X184316777Y-126463770D01*
X184437807Y-126385890D01*
X184519001Y-126267058D01*
X184547566Y-126126000D01*
X184547566Y-124826000D01*
X184522770Y-124694223D01*
X184444890Y-124573193D01*
X184326058Y-124491999D01*
X184185000Y-124463434D01*
X183485000Y-124463434D01*
X183353223Y-124488230D01*
X183232193Y-124566110D01*
X183150999Y-124684942D01*
X183122434Y-124826000D01*
X183122434Y-124866400D01*
X182497504Y-124866400D01*
X180822600Y-123191496D01*
X180822600Y-122856760D01*
X180944777Y-122833770D01*
X181065807Y-122755890D01*
X181147001Y-122637058D01*
X181175566Y-122496000D01*
X181175566Y-122384600D01*
X182038434Y-122384600D01*
X182038434Y-122635000D01*
X182063230Y-122766777D01*
X182141110Y-122887807D01*
X182259942Y-122969001D01*
X182401000Y-122997566D01*
X183291000Y-122997566D01*
X183422777Y-122972770D01*
X183543807Y-122894890D01*
X183625001Y-122776058D01*
X183642000Y-122692115D01*
X183642000Y-123190000D01*
X182372000Y-123190000D01*
X182325841Y-123198685D01*
X182283447Y-123225965D01*
X182255006Y-123267590D01*
X182245000Y-123317000D01*
X182245000Y-124333000D01*
X182253685Y-124379159D01*
X182280965Y-124421553D01*
X182322590Y-124449994D01*
X182372000Y-124460000D01*
X187579000Y-124460000D01*
X187625159Y-124451315D01*
X187667553Y-124424035D01*
X187695994Y-124382410D01*
X187706000Y-124333000D01*
X187706000Y-123317000D01*
X187697315Y-123270841D01*
X187670035Y-123228447D01*
X187628410Y-123200006D01*
X187579000Y-123190000D01*
X186309000Y-123190000D01*
X186309000Y-123166000D01*
X188684000Y-123166000D01*
X188684000Y-123513047D01*
X188761338Y-123699758D01*
X188904241Y-123842661D01*
X189090952Y-123920000D01*
X189738000Y-123920000D01*
X189865000Y-123793000D01*
X189865000Y-123039000D01*
X188811000Y-123039000D01*
X188684000Y-123166000D01*
X186309000Y-123166000D01*
X186309000Y-122822366D01*
X186351110Y-122887807D01*
X186469942Y-122969001D01*
X186611000Y-122997566D01*
X187501000Y-122997566D01*
X187632777Y-122972770D01*
X187753807Y-122894890D01*
X187835001Y-122776058D01*
X187863566Y-122635000D01*
X187863566Y-122340854D01*
X187893467Y-122310953D01*
X188684000Y-122310953D01*
X188684000Y-122658000D01*
X188811000Y-122785000D01*
X189865000Y-122785000D01*
X189865000Y-122031000D01*
X189738000Y-121904000D01*
X189090952Y-121904000D01*
X188904241Y-121981339D01*
X188761338Y-122124242D01*
X188684000Y-122310953D01*
X187893467Y-122310953D01*
X187931661Y-122272759D01*
X188009000Y-122086048D01*
X188009000Y-122007000D01*
X187882000Y-121880000D01*
X187637125Y-121880000D01*
X187501000Y-121852434D01*
X186909000Y-121852434D01*
X186909000Y-121697566D01*
X187501000Y-121697566D01*
X187574159Y-121683800D01*
X188779000Y-121683800D01*
X188992844Y-121641264D01*
X189174131Y-121520131D01*
X189919696Y-120774566D01*
X190792000Y-120774566D01*
X190923777Y-120749770D01*
X191044807Y-120671890D01*
X191126001Y-120553058D01*
X191137232Y-120497600D01*
X191160400Y-120497600D01*
X191160400Y-122061980D01*
X191079759Y-121981339D01*
X190893048Y-121904000D01*
X190246000Y-121904000D01*
X190119000Y-122031000D01*
X190119000Y-122785000D01*
X190139000Y-122785000D01*
X190139000Y-123039000D01*
X190119000Y-123039000D01*
X190119000Y-123793000D01*
X190246000Y-123920000D01*
X190893048Y-123920000D01*
X190973022Y-123886873D01*
X189993496Y-124866400D01*
X186447566Y-124866400D01*
X186447566Y-124826000D01*
X186422770Y-124694223D01*
X186344890Y-124573193D01*
X186226058Y-124491999D01*
X186085000Y-124463434D01*
X185385000Y-124463434D01*
X185253223Y-124488230D01*
X185132193Y-124566110D01*
X185050999Y-124684942D01*
X185022434Y-124826000D01*
X185022434Y-126126000D01*
X185047230Y-126257777D01*
X185125110Y-126378807D01*
X185243942Y-126460001D01*
X185385000Y-126488566D01*
X186085000Y-126488566D01*
X186216777Y-126463770D01*
X186337807Y-126385890D01*
X186419001Y-126267058D01*
X186447566Y-126126000D01*
X186447566Y-126085600D01*
X190246000Y-126085600D01*
X190479284Y-126039197D01*
X190677052Y-125907052D01*
X192201052Y-124383053D01*
X192333197Y-124185284D01*
X192337077Y-124165777D01*
X192379600Y-123952000D01*
X192379600Y-120241351D01*
X192468378Y-120027550D01*
X192468621Y-119749669D01*
X192362504Y-119492849D01*
X192166185Y-119296186D01*
X191909550Y-119189622D01*
X191631669Y-119189379D01*
X191416224Y-119278400D01*
X191128597Y-119278400D01*
X191051890Y-119159193D01*
X190933058Y-119077999D01*
X190792000Y-119049434D01*
X190601600Y-119049434D01*
X190601600Y-118652032D01*
X190555197Y-118418748D01*
X190539997Y-118396000D01*
X190423053Y-118220980D01*
X187807600Y-115605528D01*
X187807600Y-113014000D01*
X187924000Y-113014000D01*
X187924000Y-113361047D01*
X188001338Y-113547758D01*
X188144241Y-113690661D01*
X188330952Y-113768000D01*
X189928000Y-113768000D01*
X190055000Y-113641000D01*
X190055000Y-112887000D01*
X188051000Y-112887000D01*
X187924000Y-113014000D01*
X187807600Y-113014000D01*
X187807600Y-112158953D01*
X187924000Y-112158953D01*
X187924000Y-112506000D01*
X188051000Y-112633000D01*
X190055000Y-112633000D01*
X190055000Y-111879000D01*
X189928000Y-111752000D01*
X188330952Y-111752000D01*
X188144241Y-111829339D01*
X188001338Y-111972242D01*
X187924000Y-112158953D01*
X187807600Y-112158953D01*
X187807600Y-110260000D01*
X188069434Y-110260000D01*
X188069434Y-111260000D01*
X188094230Y-111391777D01*
X188172110Y-111512807D01*
X188290942Y-111594001D01*
X188432000Y-111622566D01*
X191432462Y-111622566D01*
X191561896Y-111752000D01*
X190436000Y-111752000D01*
X190309000Y-111879000D01*
X190309000Y-112633000D01*
X190329000Y-112633000D01*
X190329000Y-112887000D01*
X190309000Y-112887000D01*
X190309000Y-113641000D01*
X190436000Y-113768000D01*
X192033048Y-113768000D01*
X192215400Y-113692467D01*
X192215400Y-117392000D01*
X192261803Y-117625284D01*
X192393948Y-117823052D01*
X194567434Y-119996538D01*
X194567434Y-120147000D01*
X194592230Y-120278777D01*
X194670110Y-120399807D01*
X194788942Y-120481001D01*
X194930000Y-120509566D01*
X195975930Y-120509566D01*
X194676948Y-121808548D01*
X194544803Y-122006316D01*
X194498400Y-122239600D01*
X194498400Y-122284052D01*
X194423999Y-122392942D01*
X194395434Y-122534000D01*
X194395434Y-123231686D01*
X194349058Y-123199999D01*
X194208000Y-123171434D01*
X193208000Y-123171434D01*
X193076223Y-123196230D01*
X192955193Y-123274110D01*
X192873999Y-123392942D01*
X192845434Y-123534000D01*
X192845434Y-124334000D01*
X192870230Y-124465777D01*
X192948110Y-124586807D01*
X193066942Y-124668001D01*
X193208000Y-124696566D01*
X194208000Y-124696566D01*
X194339777Y-124671770D01*
X194460807Y-124593890D01*
X194542001Y-124475058D01*
X194570154Y-124336033D01*
X194616942Y-124368001D01*
X194758000Y-124396566D01*
X195366278Y-124396566D01*
X195175443Y-124587068D01*
X195052540Y-124883053D01*
X195052260Y-125203541D01*
X195174647Y-125499740D01*
X195401068Y-125726557D01*
X195697053Y-125849460D01*
X196017541Y-125849740D01*
X196313740Y-125727353D01*
X196540557Y-125500932D01*
X196663460Y-125204947D01*
X196663740Y-124884459D01*
X196541353Y-124588260D01*
X196314932Y-124361443D01*
X196018947Y-124238540D01*
X195748787Y-124238304D01*
X195792001Y-124175058D01*
X195820566Y-124034000D01*
X195820566Y-122534000D01*
X197395434Y-122534000D01*
X197395434Y-124034000D01*
X197420230Y-124165777D01*
X197498110Y-124286807D01*
X197616942Y-124368001D01*
X197758000Y-124396566D01*
X198366278Y-124396566D01*
X198175443Y-124587068D01*
X198052540Y-124883053D01*
X198052260Y-125203541D01*
X198174647Y-125499740D01*
X198401068Y-125726557D01*
X198697053Y-125849460D01*
X199017541Y-125849740D01*
X199313740Y-125727353D01*
X199540557Y-125500932D01*
X199663460Y-125204947D01*
X199663740Y-124884459D01*
X199541353Y-124588260D01*
X199349994Y-124396566D01*
X199958000Y-124396566D01*
X200089777Y-124371770D01*
X200145762Y-124335745D01*
X200170230Y-124465777D01*
X200248110Y-124586807D01*
X200366942Y-124668001D01*
X200508000Y-124696566D01*
X201508000Y-124696566D01*
X201639777Y-124671770D01*
X201760807Y-124593890D01*
X201842001Y-124475058D01*
X201870566Y-124334000D01*
X201870566Y-123577286D01*
X205054062Y-123577286D01*
X205351157Y-124296311D01*
X205900795Y-124846910D01*
X206619301Y-125145259D01*
X207397286Y-125145938D01*
X208116311Y-124848843D01*
X208666910Y-124299205D01*
X208965259Y-123580699D01*
X208965938Y-122802714D01*
X208668843Y-122083689D01*
X208119205Y-121533090D01*
X207400699Y-121234741D01*
X206622714Y-121234062D01*
X205903689Y-121531157D01*
X205353090Y-122080795D01*
X205054741Y-122799301D01*
X205054062Y-123577286D01*
X201870566Y-123577286D01*
X201870566Y-123534000D01*
X201845770Y-123402223D01*
X201767890Y-123281193D01*
X201649058Y-123199999D01*
X201508000Y-123171434D01*
X200508000Y-123171434D01*
X200376223Y-123196230D01*
X200320566Y-123232044D01*
X200320566Y-122534000D01*
X200295770Y-122402223D01*
X200217890Y-122281193D01*
X200099058Y-122199999D01*
X199958000Y-122171434D01*
X199258000Y-122171434D01*
X199126223Y-122196230D01*
X199005193Y-122274110D01*
X198923999Y-122392942D01*
X198895434Y-122534000D01*
X198895434Y-124034000D01*
X198920230Y-124165777D01*
X198967022Y-124238495D01*
X198748787Y-124238304D01*
X198792001Y-124175058D01*
X198820566Y-124034000D01*
X198820566Y-122534000D01*
X198795770Y-122402223D01*
X198717890Y-122281193D01*
X198717600Y-122280995D01*
X198717600Y-121794251D01*
X198818378Y-121551550D01*
X198818621Y-121273669D01*
X198712504Y-121016849D01*
X198516185Y-120820186D01*
X198259550Y-120713622D01*
X197981669Y-120713379D01*
X197724849Y-120819496D01*
X197528186Y-121015815D01*
X197421622Y-121272450D01*
X197421379Y-121550331D01*
X197498400Y-121736734D01*
X197498400Y-122284052D01*
X197423999Y-122392942D01*
X197395434Y-122534000D01*
X195820566Y-122534000D01*
X195797625Y-122412079D01*
X197154052Y-121055652D01*
X197286197Y-120857884D01*
X197332600Y-120624600D01*
X197332600Y-120428839D01*
X197408942Y-120481001D01*
X197550000Y-120509566D01*
X198770000Y-120509566D01*
X198901777Y-120484770D01*
X198984406Y-120431600D01*
X200073112Y-120431600D01*
X200089200Y-120434800D01*
X200703353Y-120434800D01*
X200718000Y-120437766D01*
X201618000Y-120437766D01*
X201749777Y-120412970D01*
X201870807Y-120335090D01*
X201952001Y-120216258D01*
X201980566Y-120075200D01*
X201980566Y-119575200D01*
X201955770Y-119443423D01*
X201877890Y-119322393D01*
X201759058Y-119241199D01*
X201618000Y-119212634D01*
X200718000Y-119212634D01*
X200702237Y-119215600D01*
X200253600Y-119215600D01*
X200253600Y-118781507D01*
X200287338Y-118862958D01*
X200430241Y-119005861D01*
X200616952Y-119083200D01*
X200914000Y-119083200D01*
X201041000Y-118956200D01*
X201041000Y-118450200D01*
X201295000Y-118450200D01*
X201295000Y-118956200D01*
X201422000Y-119083200D01*
X201719048Y-119083200D01*
X201905759Y-119005861D01*
X202048662Y-118862958D01*
X202126000Y-118676247D01*
X202126000Y-118577200D01*
X201999000Y-118450200D01*
X201295000Y-118450200D01*
X201041000Y-118450200D01*
X201021000Y-118450200D01*
X201021000Y-118200200D01*
X201041000Y-118200200D01*
X201041000Y-117694200D01*
X201295000Y-117694200D01*
X201295000Y-118200200D01*
X201999000Y-118200200D01*
X202126000Y-118073200D01*
X202126000Y-117974153D01*
X202048662Y-117787442D01*
X201905759Y-117644539D01*
X201719048Y-117567200D01*
X201422000Y-117567200D01*
X201295000Y-117694200D01*
X201041000Y-117694200D01*
X200914000Y-117567200D01*
X200616952Y-117567200D01*
X200430241Y-117644539D01*
X200287338Y-117787442D01*
X200253600Y-117868893D01*
X200253600Y-115911600D01*
X200673998Y-115911600D01*
X200907282Y-115865197D01*
X201105050Y-115733052D01*
X203034154Y-113803949D01*
X203034156Y-113803946D01*
X203127194Y-113710908D01*
X203341151Y-113622502D01*
X203344859Y-113618800D01*
X205392259Y-113618800D01*
X205357999Y-113668942D01*
X205329434Y-113810000D01*
X205329434Y-115910000D01*
X205354230Y-116041777D01*
X205432110Y-116162807D01*
X205550942Y-116244001D01*
X205692000Y-116272566D01*
X207292000Y-116272566D01*
X207423777Y-116247770D01*
X207544807Y-116169890D01*
X207626001Y-116051058D01*
X207654566Y-115910000D01*
X207654566Y-114660000D01*
X207729434Y-114660000D01*
X207729434Y-116560000D01*
X207754230Y-116691777D01*
X207832110Y-116812807D01*
X207950942Y-116894001D01*
X208092000Y-116922566D01*
X209992000Y-116922566D01*
X210123777Y-116897770D01*
X210244807Y-116819890D01*
X210326001Y-116701058D01*
X210354566Y-116560000D01*
X210354566Y-114660000D01*
X210329770Y-114528223D01*
X210251890Y-114407193D01*
X210133058Y-114325999D01*
X209992000Y-114297434D01*
X208092000Y-114297434D01*
X207960223Y-114322230D01*
X207839193Y-114400110D01*
X207757999Y-114518942D01*
X207729434Y-114660000D01*
X207654566Y-114660000D01*
X207654566Y-113810000D01*
X207629770Y-113678223D01*
X207551890Y-113557193D01*
X207433058Y-113475999D01*
X207292000Y-113447434D01*
X207219314Y-113447434D01*
X207251001Y-113401058D01*
X207279566Y-113260000D01*
X207279566Y-112860000D01*
X207255182Y-112730412D01*
X207279566Y-112610000D01*
X207279566Y-112210000D01*
X207255182Y-112080412D01*
X207279566Y-111960000D01*
X207279566Y-111560000D01*
X207255182Y-111430412D01*
X207279566Y-111310000D01*
X207279566Y-111015854D01*
X207347662Y-110947758D01*
X207425000Y-110761047D01*
X207425000Y-110687000D01*
X207298000Y-110560000D01*
X206979053Y-110560000D01*
X206917000Y-110547434D01*
X205567000Y-110547434D01*
X205500219Y-110560000D01*
X205186000Y-110560000D01*
X205059000Y-110687000D01*
X205059000Y-110761047D01*
X205136338Y-110947758D01*
X205204434Y-111015854D01*
X205204434Y-111310000D01*
X205228818Y-111439588D01*
X205204434Y-111560000D01*
X205204434Y-111960000D01*
X205228818Y-112089588D01*
X205204434Y-112210000D01*
X205204434Y-112501200D01*
X203428600Y-112501200D01*
X203428600Y-109673900D01*
X205329434Y-107773066D01*
X205329434Y-109710000D01*
X205346637Y-109801423D01*
X205279241Y-109829339D01*
X205136338Y-109972242D01*
X205059000Y-110158953D01*
X205059000Y-110233000D01*
X205186000Y-110360000D01*
X206115000Y-110360000D01*
X206115000Y-110313000D01*
X206369000Y-110313000D01*
X206369000Y-110360000D01*
X207298000Y-110360000D01*
X207425000Y-110233000D01*
X207425000Y-110158953D01*
X207382188Y-110055596D01*
X207423777Y-110047770D01*
X207544807Y-109969890D01*
X207626001Y-109851058D01*
X207654566Y-109710000D01*
X207654566Y-109610000D01*
X207729434Y-109610000D01*
X207729434Y-111510000D01*
X207754230Y-111641777D01*
X207831338Y-111761607D01*
X207757999Y-111868942D01*
X207729434Y-112010000D01*
X207729434Y-113910000D01*
X207754230Y-114041777D01*
X207832110Y-114162807D01*
X207950942Y-114244001D01*
X208092000Y-114272566D01*
X209992000Y-114272566D01*
X210123777Y-114247770D01*
X210244807Y-114169890D01*
X210326001Y-114051058D01*
X210354566Y-113910000D01*
X210354566Y-112010000D01*
X210329770Y-111878223D01*
X210252662Y-111758393D01*
X210326001Y-111651058D01*
X210354566Y-111510000D01*
X210354566Y-109610000D01*
X210329770Y-109478223D01*
X210251890Y-109357193D01*
X210133058Y-109275999D01*
X209992000Y-109247434D01*
X208092000Y-109247434D01*
X207960223Y-109272230D01*
X207839193Y-109350110D01*
X207757999Y-109468942D01*
X207729434Y-109610000D01*
X207654566Y-109610000D01*
X207654566Y-107610000D01*
X207629770Y-107478223D01*
X207551890Y-107357193D01*
X207433058Y-107275999D01*
X207292000Y-107247434D01*
X205855066Y-107247434D01*
X206320900Y-106781600D01*
X207783514Y-106781600D01*
X207757999Y-106818942D01*
X207729434Y-106960000D01*
X207729434Y-108860000D01*
X207754230Y-108991777D01*
X207832110Y-109112807D01*
X207950942Y-109194001D01*
X208092000Y-109222566D01*
X209992000Y-109222566D01*
X210123777Y-109197770D01*
X210244807Y-109119890D01*
X210326001Y-109001058D01*
X210354566Y-108860000D01*
X210354566Y-106960000D01*
X210329770Y-106828223D01*
X210251890Y-106707193D01*
X210133058Y-106625999D01*
X209992000Y-106597434D01*
X208664066Y-106597434D01*
X209342934Y-105918566D01*
X209861000Y-105918566D01*
X209992777Y-105893770D01*
X210113807Y-105815890D01*
X210195001Y-105697058D01*
X210223566Y-105556000D01*
X210223566Y-104756000D01*
X210198770Y-104624223D01*
X210120890Y-104503193D01*
X210002058Y-104421999D01*
X209861000Y-104393434D01*
X209061000Y-104393434D01*
X208929223Y-104418230D01*
X208808193Y-104496110D01*
X208726999Y-104614942D01*
X208698434Y-104756000D01*
X208698434Y-105198066D01*
X208623566Y-105272934D01*
X208623566Y-104756000D01*
X208598770Y-104624223D01*
X208520890Y-104503193D01*
X208402058Y-104421999D01*
X208261000Y-104393434D01*
X207461000Y-104393434D01*
X207329223Y-104418230D01*
X207208193Y-104496110D01*
X207126999Y-104614942D01*
X207098434Y-104756000D01*
X207098434Y-104800400D01*
X206375005Y-104800400D01*
X206375000Y-104800399D01*
X206190317Y-104837136D01*
X206033750Y-104941750D01*
X206033748Y-104941753D01*
X202492100Y-108483400D01*
X199476432Y-108483400D01*
X199457770Y-108384223D01*
X199379890Y-108263193D01*
X199261058Y-108181999D01*
X199120000Y-108153434D01*
X198620000Y-108153434D01*
X198488223Y-108178230D01*
X198367193Y-108256110D01*
X198285999Y-108374942D01*
X198257434Y-108516000D01*
X198257434Y-109416000D01*
X198282230Y-109547777D01*
X198360110Y-109668807D01*
X198478942Y-109750001D01*
X198620000Y-109778566D01*
X199120000Y-109778566D01*
X199251777Y-109753770D01*
X199372807Y-109675890D01*
X199454001Y-109557058D01*
X199475964Y-109448600D01*
X202468452Y-109448600D01*
X202463400Y-109474000D01*
X202463400Y-112524790D01*
X202354186Y-112633813D01*
X202264789Y-112849104D01*
X202172052Y-112941842D01*
X202172049Y-112941844D01*
X200421494Y-114692400D01*
X199896504Y-114692400D01*
X199339052Y-114134948D01*
X199141284Y-114002803D01*
X198908000Y-113956400D01*
X198274693Y-113956400D01*
X198246890Y-113913193D01*
X198221600Y-113895913D01*
X198221600Y-113515000D01*
X198175197Y-113281716D01*
X198043052Y-113083948D01*
X197826566Y-112867462D01*
X197826566Y-112762000D01*
X198178000Y-112762000D01*
X198178000Y-112861047D01*
X198255338Y-113047758D01*
X198398241Y-113190661D01*
X198584952Y-113268000D01*
X198882000Y-113268000D01*
X199009000Y-113141000D01*
X199009000Y-112635000D01*
X199263000Y-112635000D01*
X199263000Y-113141000D01*
X199390000Y-113268000D01*
X199687048Y-113268000D01*
X199873759Y-113190661D01*
X200016662Y-113047758D01*
X200094000Y-112861047D01*
X200094000Y-112762000D01*
X199967000Y-112635000D01*
X199263000Y-112635000D01*
X199009000Y-112635000D01*
X198305000Y-112635000D01*
X198178000Y-112762000D01*
X197826566Y-112762000D01*
X197826566Y-112512000D01*
X197801770Y-112380223D01*
X197723890Y-112259193D01*
X197605058Y-112177999D01*
X197511007Y-112158953D01*
X198178000Y-112158953D01*
X198178000Y-112258000D01*
X198305000Y-112385000D01*
X199009000Y-112385000D01*
X199009000Y-111879000D01*
X199263000Y-111879000D01*
X199263000Y-112385000D01*
X199967000Y-112385000D01*
X200094000Y-112258000D01*
X200094000Y-112158953D01*
X200016662Y-111972242D01*
X199873759Y-111829339D01*
X199687048Y-111752000D01*
X199390000Y-111752000D01*
X199263000Y-111879000D01*
X199009000Y-111879000D01*
X198882000Y-111752000D01*
X198584952Y-111752000D01*
X198398241Y-111829339D01*
X198255338Y-111972242D01*
X198178000Y-112158953D01*
X197511007Y-112158953D01*
X197464000Y-112149434D01*
X196404000Y-112149434D01*
X196272223Y-112174230D01*
X196151193Y-112252110D01*
X196069999Y-112370942D01*
X196041434Y-112512000D01*
X196041434Y-113162000D01*
X196066230Y-113293777D01*
X196144110Y-113414807D01*
X196262942Y-113496001D01*
X196404000Y-113524566D01*
X196759462Y-113524566D01*
X197002400Y-113767504D01*
X197002400Y-113894394D01*
X196984193Y-113906110D01*
X196902999Y-114024942D01*
X196874434Y-114166000D01*
X196874434Y-114966000D01*
X196899230Y-115097777D01*
X196977110Y-115218807D01*
X196981655Y-115221913D01*
X196949241Y-115235339D01*
X196806338Y-115378242D01*
X196729000Y-115564953D01*
X196729000Y-115812000D01*
X196856000Y-115939000D01*
X197485000Y-115939000D01*
X197485000Y-115919000D01*
X197739000Y-115919000D01*
X197739000Y-115939000D01*
X198368000Y-115939000D01*
X198495000Y-115812000D01*
X198495000Y-115564953D01*
X198417662Y-115378242D01*
X198274759Y-115235339D01*
X198242485Y-115221971D01*
X198274169Y-115175600D01*
X198655496Y-115175600D01*
X199034400Y-115554504D01*
X199034400Y-117312400D01*
X198983359Y-117312400D01*
X198911058Y-117262999D01*
X198770000Y-117234434D01*
X197550000Y-117234434D01*
X197418223Y-117259230D01*
X197297193Y-117337110D01*
X197215999Y-117455942D01*
X197187434Y-117597000D01*
X197187434Y-118247000D01*
X197190332Y-118262400D01*
X196742504Y-118262400D01*
X196512566Y-118032462D01*
X196512566Y-117597000D01*
X196487770Y-117465223D01*
X196409890Y-117344193D01*
X196291058Y-117262999D01*
X196150000Y-117234434D01*
X194930000Y-117234434D01*
X194798223Y-117259230D01*
X194677193Y-117337110D01*
X194595999Y-117455942D01*
X194567434Y-117597000D01*
X194567434Y-118247000D01*
X194573305Y-118278201D01*
X193434600Y-117139496D01*
X193434600Y-116585395D01*
X193504338Y-116753758D01*
X193647241Y-116896661D01*
X193833952Y-116974000D01*
X194056000Y-116974000D01*
X194183000Y-116847000D01*
X194183000Y-116193000D01*
X194437000Y-116193000D01*
X194437000Y-116847000D01*
X194564000Y-116974000D01*
X194786048Y-116974000D01*
X194972759Y-116896661D01*
X195115662Y-116753758D01*
X195193000Y-116567047D01*
X195193000Y-116320000D01*
X196729000Y-116320000D01*
X196729000Y-116567047D01*
X196806338Y-116753758D01*
X196949241Y-116896661D01*
X197135952Y-116974000D01*
X197358000Y-116974000D01*
X197485000Y-116847000D01*
X197485000Y-116193000D01*
X197739000Y-116193000D01*
X197739000Y-116847000D01*
X197866000Y-116974000D01*
X198088048Y-116974000D01*
X198274759Y-116896661D01*
X198417662Y-116753758D01*
X198495000Y-116567047D01*
X198495000Y-116320000D01*
X198368000Y-116193000D01*
X197739000Y-116193000D01*
X197485000Y-116193000D01*
X196856000Y-116193000D01*
X196729000Y-116320000D01*
X195193000Y-116320000D01*
X195066000Y-116193000D01*
X194437000Y-116193000D01*
X194183000Y-116193000D01*
X194163000Y-116193000D01*
X194163000Y-115939000D01*
X194183000Y-115939000D01*
X194183000Y-115919000D01*
X194437000Y-115919000D01*
X194437000Y-115939000D01*
X195066000Y-115939000D01*
X195193000Y-115812000D01*
X195193000Y-115564953D01*
X195115662Y-115378242D01*
X194972759Y-115235339D01*
X194940485Y-115221971D01*
X195019001Y-115107058D01*
X195047566Y-114966000D01*
X195047566Y-114166000D01*
X195022770Y-114034223D01*
X194944890Y-113913193D01*
X194919600Y-113895913D01*
X194919600Y-113524566D01*
X195264000Y-113524566D01*
X195395777Y-113499770D01*
X195516807Y-113421890D01*
X195598001Y-113303058D01*
X195626566Y-113162000D01*
X195626566Y-112567854D01*
X195694661Y-112499759D01*
X195772000Y-112313048D01*
X195772000Y-112141000D01*
X195645000Y-112014000D01*
X194861000Y-112014000D01*
X194861000Y-112034000D01*
X194607000Y-112034000D01*
X194607000Y-112014000D01*
X193823000Y-112014000D01*
X193696000Y-112141000D01*
X193696000Y-112313048D01*
X193773339Y-112499759D01*
X193841434Y-112567854D01*
X193841434Y-112886091D01*
X193746803Y-113027716D01*
X193700400Y-113261000D01*
X193700400Y-113894394D01*
X193682193Y-113906110D01*
X193647831Y-113956400D01*
X193434600Y-113956400D01*
X193434600Y-112153000D01*
X193388197Y-111919716D01*
X193340124Y-111847770D01*
X193256052Y-111721947D01*
X192995057Y-111460952D01*
X193696000Y-111460952D01*
X193696000Y-111633000D01*
X193823000Y-111760000D01*
X194607000Y-111760000D01*
X194607000Y-111740000D01*
X194861000Y-111740000D01*
X194861000Y-111760000D01*
X195645000Y-111760000D01*
X195772000Y-111633000D01*
X195772000Y-111460952D01*
X195754445Y-111418571D01*
X195830052Y-111368052D01*
X196041434Y-111156670D01*
X196041434Y-111262000D01*
X196066230Y-111393777D01*
X196144110Y-111514807D01*
X196262942Y-111596001D01*
X196404000Y-111624566D01*
X197464000Y-111624566D01*
X197595777Y-111599770D01*
X197678406Y-111546600D01*
X198475568Y-111546600D01*
X198544942Y-111594001D01*
X198686000Y-111622566D01*
X199586000Y-111622566D01*
X199717777Y-111597770D01*
X199838807Y-111519890D01*
X199920001Y-111401058D01*
X199948566Y-111260000D01*
X199948566Y-110760000D01*
X199923770Y-110628223D01*
X199845890Y-110507193D01*
X199727058Y-110425999D01*
X199586000Y-110397434D01*
X199331650Y-110397434D01*
X199296284Y-110373803D01*
X199063000Y-110327400D01*
X197677359Y-110327400D01*
X197605058Y-110277999D01*
X197464000Y-110249434D01*
X196948670Y-110249434D01*
X197419538Y-109778566D01*
X197620000Y-109778566D01*
X197751777Y-109753770D01*
X197872807Y-109675890D01*
X197954001Y-109557058D01*
X197982566Y-109416000D01*
X197982566Y-108516000D01*
X197957770Y-108384223D01*
X197879890Y-108263193D01*
X197761058Y-108181999D01*
X197620000Y-108153434D01*
X197120000Y-108153434D01*
X196988223Y-108178230D01*
X196867193Y-108256110D01*
X196785999Y-108374942D01*
X196757434Y-108516000D01*
X196757434Y-108716462D01*
X195224462Y-110249434D01*
X194204000Y-110249434D01*
X194072223Y-110274230D01*
X193951193Y-110352110D01*
X193869999Y-110470942D01*
X193841434Y-110612000D01*
X193841434Y-111206146D01*
X193773339Y-111274241D01*
X193696000Y-111460952D01*
X192995057Y-111460952D01*
X192294566Y-110760462D01*
X192294566Y-110260000D01*
X192269770Y-110128223D01*
X192191890Y-110007193D01*
X192073058Y-109925999D01*
X191932000Y-109897434D01*
X188432000Y-109897434D01*
X188300223Y-109922230D01*
X188179193Y-110000110D01*
X188097999Y-110118942D01*
X188069434Y-110260000D01*
X187807600Y-110260000D01*
X187807600Y-109218504D01*
X188476504Y-108549600D01*
X191905000Y-108549600D01*
X192138284Y-108503197D01*
X192336052Y-108371052D01*
X193547538Y-107159566D01*
X194048000Y-107159566D01*
X194179777Y-107134770D01*
X194300807Y-107056890D01*
X194382001Y-106938058D01*
X194410566Y-106797000D01*
X194410566Y-105547000D01*
X194385770Y-105415223D01*
X194307890Y-105294193D01*
X194189058Y-105212999D01*
X194157600Y-105206629D01*
X194157600Y-104827566D01*
X194558000Y-104827566D01*
X194689777Y-104802770D01*
X194779301Y-104745163D01*
X196081269Y-106047131D01*
X196262556Y-106168264D01*
X196476400Y-106210800D01*
X202699059Y-106210800D01*
X202735942Y-106236001D01*
X202877000Y-106264566D01*
X203777000Y-106264566D01*
X203908777Y-106239770D01*
X204029807Y-106161890D01*
X204111001Y-106043058D01*
X204139566Y-105902000D01*
X204139566Y-105402000D01*
X204114770Y-105270223D01*
X204036890Y-105149193D01*
X203918058Y-105067999D01*
X203777000Y-105039434D01*
X202877000Y-105039434D01*
X202745223Y-105064230D01*
X202700202Y-105093200D01*
X196707862Y-105093200D01*
X195892993Y-104278331D01*
X196786379Y-104278331D01*
X196892496Y-104535151D01*
X197088815Y-104731814D01*
X197345450Y-104838378D01*
X197623331Y-104838621D01*
X197880151Y-104732504D01*
X198015692Y-104597200D01*
X199820502Y-104597200D01*
X199898110Y-104717807D01*
X200016942Y-104799001D01*
X200158000Y-104827566D01*
X201858000Y-104827566D01*
X201989777Y-104802770D01*
X202110807Y-104724890D01*
X202128633Y-104698800D01*
X202681496Y-104698800D01*
X202735942Y-104736001D01*
X202877000Y-104764566D01*
X203777000Y-104764566D01*
X203908777Y-104739770D01*
X204029807Y-104661890D01*
X204111001Y-104543058D01*
X204139566Y-104402000D01*
X204139566Y-103902000D01*
X204114770Y-103770223D01*
X204036890Y-103649193D01*
X203918058Y-103567999D01*
X203777000Y-103539434D01*
X202877000Y-103539434D01*
X202745223Y-103564230D01*
X202718851Y-103581200D01*
X202130121Y-103581200D01*
X202117890Y-103562193D01*
X202033578Y-103504585D01*
X202110807Y-103454890D01*
X202192001Y-103336058D01*
X202220566Y-103195000D01*
X202220566Y-102545000D01*
X202195770Y-102413223D01*
X202117890Y-102292193D01*
X202033578Y-102234585D01*
X202110807Y-102184890D01*
X202180698Y-102082600D01*
X202184000Y-102082600D01*
X202368683Y-102045864D01*
X202525250Y-101941250D01*
X203033247Y-101433252D01*
X203033250Y-101433250D01*
X203137864Y-101276683D01*
X203174600Y-101092000D01*
X203174600Y-100717286D01*
X205054062Y-100717286D01*
X205351157Y-101436311D01*
X205900795Y-101986910D01*
X206619301Y-102285259D01*
X207397286Y-102285938D01*
X208116311Y-101988843D01*
X208666910Y-101439205D01*
X208965259Y-100720699D01*
X208965938Y-99942714D01*
X208668843Y-99223689D01*
X208119205Y-98673090D01*
X207400699Y-98374741D01*
X206622714Y-98374062D01*
X205903689Y-98671157D01*
X205353090Y-99220795D01*
X205054741Y-99939301D01*
X205054062Y-100717286D01*
X203174600Y-100717286D01*
X203174600Y-98298000D01*
X203137864Y-98113317D01*
X203033250Y-97956750D01*
X203033247Y-97956748D01*
X202525250Y-97448750D01*
X202368683Y-97344136D01*
X202184000Y-97307400D01*
X201750432Y-97307400D01*
X201731770Y-97208223D01*
X201653890Y-97087193D01*
X201535058Y-97005999D01*
X201394000Y-96977434D01*
X200894000Y-96977434D01*
X200762223Y-97002230D01*
X200641193Y-97080110D01*
X200559999Y-97198942D01*
X200531434Y-97340000D01*
X200531434Y-98240000D01*
X200556230Y-98371777D01*
X200634110Y-98492807D01*
X200752942Y-98574001D01*
X200894000Y-98602566D01*
X201394000Y-98602566D01*
X201525777Y-98577770D01*
X201646807Y-98499890D01*
X201728001Y-98381058D01*
X201749964Y-98272600D01*
X201984100Y-98272600D01*
X202209400Y-98497899D01*
X202209400Y-99637980D01*
X202145758Y-99574338D01*
X201959047Y-99497000D01*
X201262000Y-99497000D01*
X201135000Y-99624000D01*
X201135000Y-100203000D01*
X201155000Y-100203000D01*
X201155000Y-100457000D01*
X201135000Y-100457000D01*
X201135000Y-100477000D01*
X200881000Y-100477000D01*
X200881000Y-100457000D01*
X199777000Y-100457000D01*
X199650000Y-100584000D01*
X199650000Y-100756048D01*
X199727339Y-100942759D01*
X199862368Y-101077788D01*
X199823999Y-101133942D01*
X199795434Y-101275000D01*
X199795434Y-101925000D01*
X199820230Y-102056777D01*
X199898110Y-102177807D01*
X199982422Y-102235415D01*
X199905193Y-102285110D01*
X199859644Y-102351774D01*
X199786185Y-102278186D01*
X199529550Y-102171622D01*
X199251669Y-102171379D01*
X198994849Y-102277496D01*
X198798186Y-102473815D01*
X198691622Y-102730450D01*
X198691379Y-103008331D01*
X198797496Y-103265151D01*
X198993815Y-103461814D01*
X199250450Y-103568378D01*
X199528331Y-103568621D01*
X199785151Y-103462504D01*
X199859688Y-103388097D01*
X199898110Y-103447807D01*
X199982422Y-103505415D01*
X199905193Y-103555110D01*
X199823999Y-103673942D01*
X199822205Y-103682800D01*
X198015564Y-103682800D01*
X197881185Y-103548186D01*
X197624550Y-103441622D01*
X197346669Y-103441379D01*
X197089849Y-103547496D01*
X196893186Y-103743815D01*
X196786622Y-104000450D01*
X196786379Y-104278331D01*
X195892993Y-104278331D01*
X195359531Y-103744869D01*
X195278013Y-103690400D01*
X195178244Y-103623736D01*
X194964400Y-103581200D01*
X194830121Y-103581200D01*
X194817890Y-103562193D01*
X194733578Y-103504585D01*
X194810807Y-103454890D01*
X194892001Y-103336058D01*
X194920566Y-103195000D01*
X194920566Y-102545000D01*
X194895770Y-102413223D01*
X194817890Y-102292193D01*
X194733578Y-102234585D01*
X194810807Y-102184890D01*
X194892001Y-102066058D01*
X194920566Y-101925000D01*
X194920566Y-101275000D01*
X194895770Y-101143223D01*
X194817890Y-101022193D01*
X194733578Y-100964585D01*
X194810807Y-100914890D01*
X194892001Y-100796058D01*
X194920566Y-100655000D01*
X194920566Y-100005000D01*
X194901553Y-99903952D01*
X199650000Y-99903952D01*
X199650000Y-100076000D01*
X199777000Y-100203000D01*
X200881000Y-100203000D01*
X200881000Y-99624000D01*
X200754000Y-99497000D01*
X200056953Y-99497000D01*
X199870242Y-99574338D01*
X199727339Y-99717241D01*
X199650000Y-99903952D01*
X194901553Y-99903952D01*
X194895770Y-99873223D01*
X194817890Y-99752193D01*
X194699058Y-99670999D01*
X194558000Y-99642434D01*
X192858000Y-99642434D01*
X192726223Y-99667230D01*
X192605193Y-99745110D01*
X192535302Y-99847400D01*
X192312850Y-99847400D01*
X192128167Y-99884136D01*
X191971600Y-99988750D01*
X190487361Y-101472989D01*
X189349000Y-101472989D01*
X189349000Y-100091000D01*
X189222000Y-99964000D01*
X188468000Y-99964000D01*
X188468000Y-99984000D01*
X188214000Y-99984000D01*
X188214000Y-99964000D01*
X187460000Y-99964000D01*
X187333000Y-100091000D01*
X187333000Y-101472989D01*
X187044489Y-101472989D01*
X186663566Y-101092066D01*
X186663566Y-98262000D01*
X186644553Y-98160953D01*
X187333000Y-98160953D01*
X187333000Y-99583000D01*
X187460000Y-99710000D01*
X188214000Y-99710000D01*
X188214000Y-97881000D01*
X188468000Y-97881000D01*
X188468000Y-99710000D01*
X189222000Y-99710000D01*
X189349000Y-99583000D01*
X189349000Y-98160953D01*
X189300557Y-98044000D01*
X193872000Y-98044000D01*
X193872000Y-98291048D01*
X193949339Y-98477759D01*
X194092242Y-98620662D01*
X194278953Y-98698000D01*
X194526000Y-98698000D01*
X194653000Y-98571000D01*
X194653000Y-97917000D01*
X193999000Y-97917000D01*
X193872000Y-98044000D01*
X189300557Y-98044000D01*
X189271662Y-97974242D01*
X189128759Y-97831339D01*
X188942048Y-97754000D01*
X188595000Y-97754000D01*
X188468000Y-97881000D01*
X188214000Y-97881000D01*
X188087000Y-97754000D01*
X187739952Y-97754000D01*
X187553241Y-97831339D01*
X187410338Y-97974242D01*
X187333000Y-98160953D01*
X186644553Y-98160953D01*
X186638770Y-98130223D01*
X186560890Y-98009193D01*
X186442058Y-97927999D01*
X186301000Y-97899434D01*
X185301000Y-97899434D01*
X185169223Y-97924230D01*
X185048193Y-98002110D01*
X184966999Y-98120942D01*
X184938434Y-98262000D01*
X184938434Y-101412000D01*
X184963230Y-101543777D01*
X185041110Y-101664807D01*
X185159942Y-101746001D01*
X185301000Y-101774566D01*
X185981066Y-101774566D01*
X186111300Y-101904800D01*
X185188608Y-101904800D01*
X185079585Y-101795586D01*
X184822950Y-101689022D01*
X184545069Y-101688779D01*
X184288249Y-101794896D01*
X184091586Y-101991215D01*
X183985022Y-102247850D01*
X183984884Y-102405617D01*
X183441066Y-102949434D01*
X182761000Y-102949434D01*
X182629223Y-102974230D01*
X182508193Y-103052110D01*
X182426999Y-103170942D01*
X182398434Y-103312000D01*
X182398434Y-104404400D01*
X180621133Y-104404400D01*
X180515829Y-104149546D01*
X180205090Y-103838264D01*
X179798882Y-103669592D01*
X179359047Y-103669208D01*
X178952546Y-103837171D01*
X178641264Y-104147910D01*
X178472592Y-104554118D01*
X178472208Y-104993953D01*
X178640171Y-105400454D01*
X178950910Y-105711736D01*
X179357118Y-105880408D01*
X179796953Y-105880792D01*
X180203454Y-105712829D01*
X180514736Y-105402090D01*
X180528227Y-105369600D01*
X182398434Y-105369600D01*
X182398434Y-106462000D01*
X182423230Y-106593777D01*
X182501110Y-106714807D01*
X182619942Y-106796001D01*
X182761000Y-106824566D01*
X183761000Y-106824566D01*
X183892777Y-106799770D01*
X184013807Y-106721890D01*
X184095001Y-106603058D01*
X184123566Y-106462000D01*
X184123566Y-103631934D01*
X184669611Y-103085888D01*
X184821731Y-103086021D01*
X185078551Y-102979904D01*
X185188648Y-102870000D01*
X185499500Y-102870000D01*
X185459750Y-102909750D01*
X185433234Y-102949434D01*
X185301000Y-102949434D01*
X185169223Y-102974230D01*
X185048193Y-103052110D01*
X184966999Y-103170942D01*
X184938434Y-103312000D01*
X184938434Y-106462000D01*
X184963230Y-106593777D01*
X185041110Y-106714807D01*
X185159942Y-106796001D01*
X185301000Y-106824566D01*
X186301000Y-106824566D01*
X186432777Y-106799770D01*
X186553807Y-106721890D01*
X186635001Y-106603058D01*
X186663566Y-106462000D01*
X186663566Y-103352600D01*
X187478434Y-103352600D01*
X187478434Y-106462000D01*
X187503230Y-106593777D01*
X187581110Y-106714807D01*
X187699942Y-106796001D01*
X187841000Y-106824566D01*
X188841000Y-106824566D01*
X188972777Y-106799770D01*
X189093807Y-106721890D01*
X189175001Y-106603058D01*
X189203566Y-106462000D01*
X189203566Y-106426000D01*
X190540000Y-106426000D01*
X190540000Y-106898048D01*
X190617339Y-107084759D01*
X190760242Y-107227662D01*
X190946953Y-107305000D01*
X191294000Y-107305000D01*
X191421000Y-107178000D01*
X191421000Y-106299000D01*
X190667000Y-106299000D01*
X190540000Y-106426000D01*
X189203566Y-106426000D01*
X189203566Y-105369600D01*
X189344818Y-105369600D01*
X189468815Y-105493814D01*
X189725450Y-105600378D01*
X190003331Y-105600621D01*
X190260151Y-105494504D01*
X190308788Y-105445952D01*
X190540000Y-105445952D01*
X190540000Y-105918000D01*
X190667000Y-106045000D01*
X191421000Y-106045000D01*
X191421000Y-105166000D01*
X191675000Y-105166000D01*
X191675000Y-106045000D01*
X192429000Y-106045000D01*
X192556000Y-105918000D01*
X192556000Y-105445952D01*
X192478661Y-105259241D01*
X192335758Y-105116338D01*
X192149047Y-105039000D01*
X191802000Y-105039000D01*
X191675000Y-105166000D01*
X191421000Y-105166000D01*
X191294000Y-105039000D01*
X190946953Y-105039000D01*
X190760242Y-105116338D01*
X190617339Y-105259241D01*
X190540000Y-105445952D01*
X190308788Y-105445952D01*
X190456814Y-105298185D01*
X190563378Y-105041550D01*
X190563621Y-104763669D01*
X190457504Y-104506849D01*
X190261185Y-104310186D01*
X190004550Y-104203622D01*
X189726669Y-104203379D01*
X189469849Y-104309496D01*
X189374779Y-104404400D01*
X189203566Y-104404400D01*
X189203566Y-103352600D01*
X192536847Y-103352600D01*
X192598110Y-103447807D01*
X192682422Y-103505415D01*
X192605193Y-103555110D01*
X192523999Y-103673942D01*
X192495434Y-103815000D01*
X192495434Y-104465000D01*
X192520230Y-104596777D01*
X192598110Y-104717807D01*
X192716942Y-104799001D01*
X192858000Y-104827566D01*
X192938400Y-104827566D01*
X192938400Y-105205057D01*
X192916223Y-105209230D01*
X192795193Y-105287110D01*
X192713999Y-105405942D01*
X192685434Y-105547000D01*
X192685434Y-106297462D01*
X192556000Y-106426896D01*
X192556000Y-106426000D01*
X192429000Y-106299000D01*
X191675000Y-106299000D01*
X191675000Y-107178000D01*
X191739948Y-107242948D01*
X191652496Y-107330400D01*
X188224000Y-107330400D01*
X187990716Y-107376803D01*
X187792948Y-107508948D01*
X186766948Y-108534948D01*
X186744566Y-108568445D01*
X186744566Y-107610000D01*
X186719770Y-107478223D01*
X186641890Y-107357193D01*
X186523058Y-107275999D01*
X186382000Y-107247434D01*
X182982000Y-107247434D01*
X182850223Y-107272230D01*
X182729193Y-107350110D01*
X182647999Y-107468942D01*
X182619434Y-107610000D01*
X182619434Y-109110000D01*
X182644230Y-109241777D01*
X182722110Y-109362807D01*
X182840942Y-109444001D01*
X182982000Y-109472566D01*
X186382000Y-109472566D01*
X186513777Y-109447770D01*
X186588400Y-109399752D01*
X186588400Y-114120645D01*
X186523058Y-114075999D01*
X186382000Y-114047434D01*
X182982000Y-114047434D01*
X182850223Y-114072230D01*
X182729193Y-114150110D01*
X182647999Y-114268942D01*
X182619434Y-114410000D01*
X182619434Y-115910000D01*
X182644230Y-116041777D01*
X182722110Y-116162807D01*
X182840942Y-116244001D01*
X182982000Y-116272566D01*
X186382000Y-116272566D01*
X186513777Y-116247770D01*
X186634807Y-116169890D01*
X186661349Y-116131044D01*
X186766948Y-116289084D01*
X187980883Y-117503020D01*
X187945849Y-117517496D01*
X187749186Y-117713815D01*
X187642622Y-117970450D01*
X187642379Y-118248331D01*
X187748496Y-118505151D01*
X187858400Y-118615248D01*
X187858400Y-119689100D01*
X187620805Y-119926695D01*
X187501000Y-119902434D01*
X186611000Y-119902434D01*
X186479223Y-119927230D01*
X186358193Y-120005110D01*
X186309000Y-120077107D01*
X186309000Y-119761000D01*
X187579000Y-119761000D01*
X187625159Y-119752315D01*
X187667553Y-119725035D01*
X187695994Y-119683410D01*
X187706000Y-119634000D01*
X187706000Y-118618000D01*
X187697315Y-118571841D01*
X187670035Y-118529447D01*
X187628410Y-118501006D01*
X187579000Y-118491000D01*
X186347858Y-118491000D01*
X186405000Y-118353048D01*
X186405000Y-117856000D01*
X186278000Y-117729000D01*
X185674000Y-117729000D01*
X185674000Y-117749000D01*
X185420000Y-117749000D01*
X185420000Y-117729000D01*
X184816000Y-117729000D01*
X184689000Y-117856000D01*
X184689000Y-118353048D01*
X184746142Y-118491000D01*
X184264080Y-118491000D01*
X184331001Y-118393058D01*
X184350168Y-118298407D01*
X184562195Y-117981086D01*
X184637600Y-117602000D01*
X184562195Y-117222914D01*
X184351095Y-116906980D01*
X184340553Y-116850952D01*
X184689000Y-116850952D01*
X184689000Y-117348000D01*
X184816000Y-117475000D01*
X185420000Y-117475000D01*
X185420000Y-116571000D01*
X185674000Y-116571000D01*
X185674000Y-117475000D01*
X186278000Y-117475000D01*
X186405000Y-117348000D01*
X186405000Y-116850952D01*
X186327661Y-116664241D01*
X186184758Y-116521338D01*
X185998047Y-116444000D01*
X185801000Y-116444000D01*
X185674000Y-116571000D01*
X185420000Y-116571000D01*
X185293000Y-116444000D01*
X185095953Y-116444000D01*
X184909242Y-116521338D01*
X184766339Y-116664241D01*
X184689000Y-116850952D01*
X184340553Y-116850952D01*
X184334770Y-116820223D01*
X184256890Y-116699193D01*
X184138058Y-116617999D01*
X183997000Y-116589434D01*
X183297000Y-116589434D01*
X183180263Y-116611400D01*
X182274320Y-116611400D01*
X175452460Y-109789540D01*
X175131086Y-109574805D01*
X174752000Y-109499400D01*
X171805600Y-109499400D01*
X171805600Y-104140000D01*
X171779464Y-104006190D01*
X171701447Y-103888553D01*
X166875447Y-99062553D01*
X166762348Y-98986416D01*
X166624000Y-98958400D01*
X148590000Y-98958400D01*
X148456190Y-98984536D01*
X148338553Y-99062553D01*
X143512553Y-103888553D01*
X143436416Y-104001652D01*
X143408400Y-104140000D01*
X143408400Y-109499400D01*
X138850093Y-109499400D01*
X138777890Y-109387193D01*
X138659058Y-109305999D01*
X138518000Y-109277434D01*
X136818000Y-109277434D01*
X136686223Y-109302230D01*
X136565193Y-109380110D01*
X136483999Y-109498942D01*
X136455434Y-109640000D01*
X136455434Y-111340000D01*
X136480230Y-111471777D01*
X136558110Y-111592807D01*
X136676942Y-111674001D01*
X136818000Y-111702566D01*
X138518000Y-111702566D01*
X138649777Y-111677770D01*
X138770807Y-111599890D01*
X138852001Y-111481058D01*
X138852094Y-111480600D01*
X143408400Y-111480600D01*
X143408400Y-112039400D01*
X138337407Y-112039400D01*
X138152982Y-111916171D01*
X137691619Y-111824400D01*
X137644381Y-111824400D01*
X137183018Y-111916171D01*
X136791893Y-112177512D01*
X136530552Y-112568637D01*
X136438781Y-113030000D01*
X135050600Y-113030000D01*
X135050600Y-100717286D01*
X136474062Y-100717286D01*
X136771157Y-101436311D01*
X137320795Y-101986910D01*
X138039301Y-102285259D01*
X138817286Y-102285938D01*
X139536311Y-101988843D01*
X140086910Y-101439205D01*
X140385259Y-100720699D01*
X140385938Y-99942714D01*
X140088843Y-99223689D01*
X139539205Y-98673090D01*
X138820699Y-98374741D01*
X138042714Y-98374062D01*
X137323689Y-98671157D01*
X136773090Y-99220795D01*
X136474741Y-99939301D01*
X136474062Y-100717286D01*
X135050600Y-100717286D01*
X135050600Y-96950600D01*
X182858510Y-96950600D01*
X182796186Y-97012815D01*
G36*
X171323000Y-119327394D02*
X166571394Y-124079000D01*
X148642606Y-124079000D01*
X143891000Y-119327394D01*
X143891000Y-114020600D01*
X171323000Y-114020600D01*
X171323000Y-119327394D01*
X171323000Y-119327394D01*
G37*
X171323000Y-119327394D02*
X166571394Y-124079000D01*
X148642606Y-124079000D01*
X143891000Y-119327394D01*
X143891000Y-114020600D01*
X171323000Y-114020600D01*
X171323000Y-119327394D01*
G36*
X171323000Y-104192606D02*
X171323000Y-109499400D01*
X143891000Y-109499400D01*
X143891000Y-104192606D01*
X148642606Y-99441000D01*
X166571394Y-99441000D01*
X171323000Y-104192606D01*
X171323000Y-104192606D01*
G37*
X171323000Y-104192606D02*
X171323000Y-109499400D01*
X143891000Y-109499400D01*
X143891000Y-104192606D01*
X148642606Y-99441000D01*
X166571394Y-99441000D01*
X171323000Y-104192606D01*
G36*
X187452000Y-119507000D02*
X186182000Y-119507000D01*
X186132590Y-119517006D01*
X186090965Y-119545447D01*
X186063685Y-119587841D01*
X186055000Y-119634000D01*
X186055000Y-123317000D01*
X186065006Y-123366410D01*
X186093447Y-123408035D01*
X186135841Y-123435315D01*
X186182000Y-123444000D01*
X187452000Y-123444000D01*
X187452000Y-124206000D01*
X182499000Y-124206000D01*
X182499000Y-123444000D01*
X183769000Y-123444000D01*
X183818410Y-123433994D01*
X183860035Y-123405553D01*
X183887315Y-123363159D01*
X183896000Y-123317000D01*
X183896000Y-119634000D01*
X183885994Y-119584590D01*
X183857553Y-119542965D01*
X183815159Y-119515685D01*
X183769000Y-119507000D01*
X182499000Y-119507000D01*
X182499000Y-118745000D01*
X187452000Y-118745000D01*
X187452000Y-119507000D01*
X187452000Y-119507000D01*
G37*
X187452000Y-119507000D02*
X186182000Y-119507000D01*
X186132590Y-119517006D01*
X186090965Y-119545447D01*
X186063685Y-119587841D01*
X186055000Y-119634000D01*
X186055000Y-123317000D01*
X186065006Y-123366410D01*
X186093447Y-123408035D01*
X186135841Y-123435315D01*
X186182000Y-123444000D01*
X187452000Y-123444000D01*
X187452000Y-124206000D01*
X182499000Y-124206000D01*
X182499000Y-123444000D01*
X183769000Y-123444000D01*
X183818410Y-123433994D01*
X183860035Y-123405553D01*
X183887315Y-123363159D01*
X183896000Y-123317000D01*
X183896000Y-119634000D01*
X183885994Y-119584590D01*
X183857553Y-119542965D01*
X183815159Y-119515685D01*
X183769000Y-119507000D01*
X182499000Y-119507000D01*
X182499000Y-118745000D01*
X187452000Y-118745000D01*
X187452000Y-119507000D01*
M02*
