G04 #@! TF.FileFunction,Soldermask,Bot*
%FSLAX46Y46*%
G04 Gerber Fmt 4.6, Leading zero omitted, Abs format (unit mm)*
G04 Created by KiCad (PCBNEW 4.0.7) date 05/03/18 21:25:46*
%MOMM*%
%LPD*%
G01*
G04 APERTURE LIST*
%ADD10C,0.100000*%
%ADD11C,0.010000*%
%ADD12C,0.908000*%
%ADD13C,6.400000*%
%ADD14R,2.100000X1.900000*%
%ADD15R,2.100000X2.100000*%
%ADD16O,2.100000X2.100000*%
%ADD17C,1.300000*%
%ADD18R,1.950000X1.700000*%
%ADD19C,3.600000*%
%ADD20C,0.254000*%
G04 APERTURE END LIST*
D10*
D11*
G36*
X177048017Y-111066076D02*
X177094467Y-111277129D01*
X177179335Y-111518785D01*
X177248681Y-111676784D01*
X177356292Y-111872191D01*
X177470036Y-112016894D01*
X177585944Y-112108511D01*
X177700047Y-112144661D01*
X177808376Y-112122961D01*
X177889235Y-112061268D01*
X177930665Y-112022665D01*
X177980826Y-111990956D01*
X178050379Y-111962576D01*
X178149985Y-111933962D01*
X178290305Y-111901550D01*
X178482002Y-111861776D01*
X178492150Y-111859727D01*
X178579564Y-111843962D01*
X178678363Y-111830279D01*
X178795219Y-111818293D01*
X178936804Y-111807617D01*
X179109792Y-111797864D01*
X179320853Y-111788649D01*
X179576661Y-111779586D01*
X179883886Y-111770288D01*
X180174900Y-111762322D01*
X180468277Y-111754279D01*
X180744604Y-111746169D01*
X180996856Y-111738237D01*
X181218003Y-111730729D01*
X181401020Y-111723890D01*
X181538878Y-111717963D01*
X181624550Y-111713195D01*
X181648130Y-111710969D01*
X181740236Y-111696170D01*
X181721130Y-112021772D01*
X181703942Y-112244160D01*
X181676453Y-112513779D01*
X181640673Y-112815566D01*
X181598612Y-113134455D01*
X181552279Y-113455384D01*
X181503684Y-113763288D01*
X181454836Y-114043102D01*
X181443325Y-114104264D01*
X181344102Y-114622904D01*
X181445766Y-114929764D01*
X181514672Y-115125985D01*
X181578531Y-115276536D01*
X181646172Y-115397711D01*
X181726428Y-115505807D01*
X181805646Y-115593812D01*
X181919669Y-115693376D01*
X182015261Y-115732705D01*
X182093897Y-115711865D01*
X182157050Y-115630921D01*
X182167013Y-115609687D01*
X182179707Y-115574823D01*
X182190111Y-115529759D01*
X182198407Y-115468532D01*
X182204778Y-115385178D01*
X182209406Y-115273734D01*
X182212473Y-115128239D01*
X182214162Y-114942728D01*
X182214655Y-114711239D01*
X182214134Y-114427808D01*
X182212886Y-114109500D01*
X182212106Y-113812375D01*
X182212438Y-113529186D01*
X182213795Y-113267493D01*
X182216092Y-113034855D01*
X182219242Y-112838830D01*
X182223160Y-112686977D01*
X182227758Y-112586856D01*
X182230581Y-112556332D01*
X182254525Y-112384289D01*
X182345381Y-112515528D01*
X182439438Y-112619722D01*
X182552767Y-112702510D01*
X182571230Y-112712115D01*
X182653764Y-112749738D01*
X182711318Y-112761413D01*
X182773005Y-112747448D01*
X182851783Y-112715068D01*
X183054352Y-112639473D01*
X183301334Y-112565515D01*
X183573755Y-112498628D01*
X183699150Y-112472370D01*
X183856892Y-112448307D01*
X184056495Y-112428724D01*
X184285009Y-112413855D01*
X184529482Y-112403934D01*
X184776965Y-112399192D01*
X185014508Y-112399864D01*
X185229161Y-112406180D01*
X185407973Y-112418376D01*
X185537995Y-112436683D01*
X185548871Y-112439105D01*
X185819570Y-112523207D01*
X186039987Y-112639731D01*
X186216348Y-112794755D01*
X186354881Y-112994356D01*
X186461812Y-113244610D01*
X186498750Y-113366110D01*
X186531611Y-113530366D01*
X186555541Y-113741731D01*
X186570404Y-113984426D01*
X186576062Y-114242675D01*
X186572380Y-114500697D01*
X186559222Y-114742715D01*
X186536450Y-114952949D01*
X186513541Y-115077875D01*
X186445611Y-115320722D01*
X186359533Y-115529671D01*
X186250096Y-115708125D01*
X186112093Y-115859486D01*
X185940313Y-115987155D01*
X185729547Y-116094535D01*
X185474586Y-116185029D01*
X185170220Y-116262039D01*
X184811240Y-116328966D01*
X184534685Y-116370260D01*
X184326832Y-116401114D01*
X184168769Y-116429264D01*
X184064643Y-116453847D01*
X184018599Y-116473998D01*
X184016650Y-116478225D01*
X184031346Y-116521040D01*
X184080881Y-116558610D01*
X184173425Y-116594617D01*
X184317147Y-116632744D01*
X184401533Y-116651757D01*
X184757894Y-116732607D01*
X185065651Y-116810522D01*
X185339280Y-116889896D01*
X185593252Y-116975121D01*
X185842042Y-117070592D01*
X186001025Y-117137283D01*
X186181141Y-117198828D01*
X186338575Y-117213162D01*
X186484019Y-117177313D01*
X186628165Y-117088311D01*
X186781704Y-116943185D01*
X186809590Y-116912630D01*
X186999601Y-116657993D01*
X187162015Y-116350987D01*
X187295553Y-115997034D01*
X187398936Y-115601554D01*
X187470885Y-115169967D01*
X187510121Y-114707694D01*
X187515364Y-114220157D01*
X187504722Y-113966625D01*
X187457307Y-113538559D01*
X187367953Y-113157763D01*
X187235533Y-112822856D01*
X187058916Y-112532455D01*
X186836975Y-112285181D01*
X186568580Y-112079652D01*
X186252603Y-111914488D01*
X185887914Y-111788308D01*
X185683525Y-111738675D01*
X185601535Y-111725224D01*
X185486953Y-111713353D01*
X185334855Y-111702834D01*
X185140321Y-111693442D01*
X184898429Y-111684949D01*
X184604258Y-111677128D01*
X184252886Y-111669753D01*
X184143650Y-111667739D01*
X182826025Y-111644056D01*
X182295215Y-111459754D01*
X182315160Y-111205064D01*
X182327748Y-111050151D01*
X182341590Y-110888667D01*
X182353694Y-110755526D01*
X182353714Y-110755322D01*
X182372322Y-110560270D01*
X182526580Y-110656162D01*
X182680842Y-110727668D01*
X182834301Y-110745517D01*
X182996041Y-110708784D01*
X183175145Y-110616547D01*
X183222783Y-110585329D01*
X183360511Y-110500445D01*
X183522056Y-110413358D01*
X183666294Y-110345660D01*
X184252042Y-110068977D01*
X184800632Y-109749910D01*
X185308079Y-109391622D01*
X185770400Y-108997270D01*
X186183610Y-108570017D01*
X186543726Y-108113023D01*
X186619019Y-108003448D01*
X186770601Y-107756666D01*
X186900496Y-107505127D01*
X187004476Y-107259785D01*
X187078309Y-107031597D01*
X187117767Y-106831517D01*
X187121886Y-106700981D01*
X187102562Y-106600245D01*
X187065250Y-106559727D01*
X187012265Y-106579480D01*
X186945923Y-106659556D01*
X186923074Y-106696521D01*
X186790919Y-106895601D01*
X186613614Y-107122440D01*
X186398755Y-107369433D01*
X186153936Y-107628978D01*
X185886750Y-107893470D01*
X185604792Y-108155305D01*
X185315657Y-108406882D01*
X185026937Y-108640595D01*
X184842150Y-108780015D01*
X184413174Y-109068209D01*
X183965258Y-109321816D01*
X183514401Y-109532402D01*
X183168114Y-109662322D01*
X183030898Y-109703867D01*
X182884270Y-109741824D01*
X182742138Y-109773389D01*
X182618411Y-109795757D01*
X182526998Y-109806123D01*
X182481807Y-109801684D01*
X182480874Y-109800891D01*
X182479173Y-109761476D01*
X182492457Y-109665655D01*
X182519717Y-109518477D01*
X182559943Y-109324987D01*
X182612124Y-109090234D01*
X182675251Y-108819265D01*
X182687821Y-108766521D01*
X182735862Y-108563210D01*
X182769923Y-108410346D01*
X182791506Y-108296792D01*
X182802115Y-108211412D01*
X182803250Y-108143067D01*
X182796416Y-108080622D01*
X182787015Y-108031208D01*
X182749181Y-107892350D01*
X182691976Y-107731555D01*
X182622950Y-107565917D01*
X182549656Y-107412532D01*
X182479646Y-107288495D01*
X182427981Y-107218499D01*
X182342487Y-107145375D01*
X182272388Y-107130937D01*
X182209755Y-107174807D01*
X182186040Y-107207025D01*
X182167739Y-107244220D01*
X182152916Y-107299245D01*
X182140775Y-107380230D01*
X182130523Y-107495304D01*
X182121363Y-107652599D01*
X182112501Y-107860243D01*
X182106840Y-108016883D01*
X182079000Y-108557581D01*
X182034941Y-109038274D01*
X182003962Y-109275795D01*
X181971717Y-109506844D01*
X181937797Y-109767767D01*
X181905770Y-110030032D01*
X181879207Y-110265108D01*
X181873931Y-110315375D01*
X181855186Y-110493395D01*
X181837541Y-110653475D01*
X181822446Y-110782996D01*
X181811353Y-110869340D01*
X181807295Y-110894812D01*
X181792940Y-110966250D01*
X180034927Y-110966250D01*
X179641660Y-110966077D01*
X179305640Y-110965365D01*
X179020618Y-110963817D01*
X178780341Y-110961139D01*
X178578558Y-110957035D01*
X178409018Y-110951212D01*
X178265469Y-110943374D01*
X178141660Y-110933226D01*
X178031339Y-110920475D01*
X177928256Y-110904823D01*
X177826158Y-110885978D01*
X177718795Y-110863644D01*
X177679879Y-110855181D01*
X177620556Y-110826870D01*
X177536739Y-110768978D01*
X177472194Y-110716109D01*
X177379033Y-110641920D01*
X177309298Y-110608514D01*
X177246552Y-110607598D01*
X177139252Y-110656386D01*
X177070401Y-110751719D01*
X177039992Y-110889611D01*
X177048017Y-111066076D01*
X177048017Y-111066076D01*
G37*
X177048017Y-111066076D02*
X177094467Y-111277129D01*
X177179335Y-111518785D01*
X177248681Y-111676784D01*
X177356292Y-111872191D01*
X177470036Y-112016894D01*
X177585944Y-112108511D01*
X177700047Y-112144661D01*
X177808376Y-112122961D01*
X177889235Y-112061268D01*
X177930665Y-112022665D01*
X177980826Y-111990956D01*
X178050379Y-111962576D01*
X178149985Y-111933962D01*
X178290305Y-111901550D01*
X178482002Y-111861776D01*
X178492150Y-111859727D01*
X178579564Y-111843962D01*
X178678363Y-111830279D01*
X178795219Y-111818293D01*
X178936804Y-111807617D01*
X179109792Y-111797864D01*
X179320853Y-111788649D01*
X179576661Y-111779586D01*
X179883886Y-111770288D01*
X180174900Y-111762322D01*
X180468277Y-111754279D01*
X180744604Y-111746169D01*
X180996856Y-111738237D01*
X181218003Y-111730729D01*
X181401020Y-111723890D01*
X181538878Y-111717963D01*
X181624550Y-111713195D01*
X181648130Y-111710969D01*
X181740236Y-111696170D01*
X181721130Y-112021772D01*
X181703942Y-112244160D01*
X181676453Y-112513779D01*
X181640673Y-112815566D01*
X181598612Y-113134455D01*
X181552279Y-113455384D01*
X181503684Y-113763288D01*
X181454836Y-114043102D01*
X181443325Y-114104264D01*
X181344102Y-114622904D01*
X181445766Y-114929764D01*
X181514672Y-115125985D01*
X181578531Y-115276536D01*
X181646172Y-115397711D01*
X181726428Y-115505807D01*
X181805646Y-115593812D01*
X181919669Y-115693376D01*
X182015261Y-115732705D01*
X182093897Y-115711865D01*
X182157050Y-115630921D01*
X182167013Y-115609687D01*
X182179707Y-115574823D01*
X182190111Y-115529759D01*
X182198407Y-115468532D01*
X182204778Y-115385178D01*
X182209406Y-115273734D01*
X182212473Y-115128239D01*
X182214162Y-114942728D01*
X182214655Y-114711239D01*
X182214134Y-114427808D01*
X182212886Y-114109500D01*
X182212106Y-113812375D01*
X182212438Y-113529186D01*
X182213795Y-113267493D01*
X182216092Y-113034855D01*
X182219242Y-112838830D01*
X182223160Y-112686977D01*
X182227758Y-112586856D01*
X182230581Y-112556332D01*
X182254525Y-112384289D01*
X182345381Y-112515528D01*
X182439438Y-112619722D01*
X182552767Y-112702510D01*
X182571230Y-112712115D01*
X182653764Y-112749738D01*
X182711318Y-112761413D01*
X182773005Y-112747448D01*
X182851783Y-112715068D01*
X183054352Y-112639473D01*
X183301334Y-112565515D01*
X183573755Y-112498628D01*
X183699150Y-112472370D01*
X183856892Y-112448307D01*
X184056495Y-112428724D01*
X184285009Y-112413855D01*
X184529482Y-112403934D01*
X184776965Y-112399192D01*
X185014508Y-112399864D01*
X185229161Y-112406180D01*
X185407973Y-112418376D01*
X185537995Y-112436683D01*
X185548871Y-112439105D01*
X185819570Y-112523207D01*
X186039987Y-112639731D01*
X186216348Y-112794755D01*
X186354881Y-112994356D01*
X186461812Y-113244610D01*
X186498750Y-113366110D01*
X186531611Y-113530366D01*
X186555541Y-113741731D01*
X186570404Y-113984426D01*
X186576062Y-114242675D01*
X186572380Y-114500697D01*
X186559222Y-114742715D01*
X186536450Y-114952949D01*
X186513541Y-115077875D01*
X186445611Y-115320722D01*
X186359533Y-115529671D01*
X186250096Y-115708125D01*
X186112093Y-115859486D01*
X185940313Y-115987155D01*
X185729547Y-116094535D01*
X185474586Y-116185029D01*
X185170220Y-116262039D01*
X184811240Y-116328966D01*
X184534685Y-116370260D01*
X184326832Y-116401114D01*
X184168769Y-116429264D01*
X184064643Y-116453847D01*
X184018599Y-116473998D01*
X184016650Y-116478225D01*
X184031346Y-116521040D01*
X184080881Y-116558610D01*
X184173425Y-116594617D01*
X184317147Y-116632744D01*
X184401533Y-116651757D01*
X184757894Y-116732607D01*
X185065651Y-116810522D01*
X185339280Y-116889896D01*
X185593252Y-116975121D01*
X185842042Y-117070592D01*
X186001025Y-117137283D01*
X186181141Y-117198828D01*
X186338575Y-117213162D01*
X186484019Y-117177313D01*
X186628165Y-117088311D01*
X186781704Y-116943185D01*
X186809590Y-116912630D01*
X186999601Y-116657993D01*
X187162015Y-116350987D01*
X187295553Y-115997034D01*
X187398936Y-115601554D01*
X187470885Y-115169967D01*
X187510121Y-114707694D01*
X187515364Y-114220157D01*
X187504722Y-113966625D01*
X187457307Y-113538559D01*
X187367953Y-113157763D01*
X187235533Y-112822856D01*
X187058916Y-112532455D01*
X186836975Y-112285181D01*
X186568580Y-112079652D01*
X186252603Y-111914488D01*
X185887914Y-111788308D01*
X185683525Y-111738675D01*
X185601535Y-111725224D01*
X185486953Y-111713353D01*
X185334855Y-111702834D01*
X185140321Y-111693442D01*
X184898429Y-111684949D01*
X184604258Y-111677128D01*
X184252886Y-111669753D01*
X184143650Y-111667739D01*
X182826025Y-111644056D01*
X182295215Y-111459754D01*
X182315160Y-111205064D01*
X182327748Y-111050151D01*
X182341590Y-110888667D01*
X182353694Y-110755526D01*
X182353714Y-110755322D01*
X182372322Y-110560270D01*
X182526580Y-110656162D01*
X182680842Y-110727668D01*
X182834301Y-110745517D01*
X182996041Y-110708784D01*
X183175145Y-110616547D01*
X183222783Y-110585329D01*
X183360511Y-110500445D01*
X183522056Y-110413358D01*
X183666294Y-110345660D01*
X184252042Y-110068977D01*
X184800632Y-109749910D01*
X185308079Y-109391622D01*
X185770400Y-108997270D01*
X186183610Y-108570017D01*
X186543726Y-108113023D01*
X186619019Y-108003448D01*
X186770601Y-107756666D01*
X186900496Y-107505127D01*
X187004476Y-107259785D01*
X187078309Y-107031597D01*
X187117767Y-106831517D01*
X187121886Y-106700981D01*
X187102562Y-106600245D01*
X187065250Y-106559727D01*
X187012265Y-106579480D01*
X186945923Y-106659556D01*
X186923074Y-106696521D01*
X186790919Y-106895601D01*
X186613614Y-107122440D01*
X186398755Y-107369433D01*
X186153936Y-107628978D01*
X185886750Y-107893470D01*
X185604792Y-108155305D01*
X185315657Y-108406882D01*
X185026937Y-108640595D01*
X184842150Y-108780015D01*
X184413174Y-109068209D01*
X183965258Y-109321816D01*
X183514401Y-109532402D01*
X183168114Y-109662322D01*
X183030898Y-109703867D01*
X182884270Y-109741824D01*
X182742138Y-109773389D01*
X182618411Y-109795757D01*
X182526998Y-109806123D01*
X182481807Y-109801684D01*
X182480874Y-109800891D01*
X182479173Y-109761476D01*
X182492457Y-109665655D01*
X182519717Y-109518477D01*
X182559943Y-109324987D01*
X182612124Y-109090234D01*
X182675251Y-108819265D01*
X182687821Y-108766521D01*
X182735862Y-108563210D01*
X182769923Y-108410346D01*
X182791506Y-108296792D01*
X182802115Y-108211412D01*
X182803250Y-108143067D01*
X182796416Y-108080622D01*
X182787015Y-108031208D01*
X182749181Y-107892350D01*
X182691976Y-107731555D01*
X182622950Y-107565917D01*
X182549656Y-107412532D01*
X182479646Y-107288495D01*
X182427981Y-107218499D01*
X182342487Y-107145375D01*
X182272388Y-107130937D01*
X182209755Y-107174807D01*
X182186040Y-107207025D01*
X182167739Y-107244220D01*
X182152916Y-107299245D01*
X182140775Y-107380230D01*
X182130523Y-107495304D01*
X182121363Y-107652599D01*
X182112501Y-107860243D01*
X182106840Y-108016883D01*
X182079000Y-108557581D01*
X182034941Y-109038274D01*
X182003962Y-109275795D01*
X181971717Y-109506844D01*
X181937797Y-109767767D01*
X181905770Y-110030032D01*
X181879207Y-110265108D01*
X181873931Y-110315375D01*
X181855186Y-110493395D01*
X181837541Y-110653475D01*
X181822446Y-110782996D01*
X181811353Y-110869340D01*
X181807295Y-110894812D01*
X181792940Y-110966250D01*
X180034927Y-110966250D01*
X179641660Y-110966077D01*
X179305640Y-110965365D01*
X179020618Y-110963817D01*
X178780341Y-110961139D01*
X178578558Y-110957035D01*
X178409018Y-110951212D01*
X178265469Y-110943374D01*
X178141660Y-110933226D01*
X178031339Y-110920475D01*
X177928256Y-110904823D01*
X177826158Y-110885978D01*
X177718795Y-110863644D01*
X177679879Y-110855181D01*
X177620556Y-110826870D01*
X177536739Y-110768978D01*
X177472194Y-110716109D01*
X177379033Y-110641920D01*
X177309298Y-110608514D01*
X177246552Y-110607598D01*
X177139252Y-110656386D01*
X177070401Y-110751719D01*
X177039992Y-110889611D01*
X177048017Y-111066076D01*
G36*
X179326068Y-108730339D02*
X179326777Y-108739087D01*
X179354200Y-108925176D01*
X179404926Y-109131667D01*
X179473494Y-109344669D01*
X179554441Y-109550295D01*
X179642303Y-109734654D01*
X179731619Y-109883858D01*
X179816128Y-109983319D01*
X179959383Y-110076878D01*
X180127446Y-110136114D01*
X180306342Y-110161255D01*
X180482095Y-110152532D01*
X180640731Y-110110174D01*
X180768273Y-110034412D01*
X180828334Y-109966673D01*
X180878657Y-109842852D01*
X180892880Y-109698784D01*
X180868345Y-109566572D01*
X180862605Y-109552886D01*
X180798609Y-109457615D01*
X180683873Y-109337198D01*
X180523865Y-109196034D01*
X180324052Y-109038522D01*
X180089905Y-108869061D01*
X179826889Y-108692050D01*
X179661052Y-108586271D01*
X179550354Y-108519627D01*
X179477070Y-108484378D01*
X179426554Y-108475563D01*
X179384156Y-108488218D01*
X179379208Y-108490789D01*
X179342247Y-108516325D01*
X179323432Y-108553579D01*
X179319220Y-108619326D01*
X179326068Y-108730339D01*
X179326068Y-108730339D01*
G37*
X179326068Y-108730339D02*
X179326777Y-108739087D01*
X179354200Y-108925176D01*
X179404926Y-109131667D01*
X179473494Y-109344669D01*
X179554441Y-109550295D01*
X179642303Y-109734654D01*
X179731619Y-109883858D01*
X179816128Y-109983319D01*
X179959383Y-110076878D01*
X180127446Y-110136114D01*
X180306342Y-110161255D01*
X180482095Y-110152532D01*
X180640731Y-110110174D01*
X180768273Y-110034412D01*
X180828334Y-109966673D01*
X180878657Y-109842852D01*
X180892880Y-109698784D01*
X180868345Y-109566572D01*
X180862605Y-109552886D01*
X180798609Y-109457615D01*
X180683873Y-109337198D01*
X180523865Y-109196034D01*
X180324052Y-109038522D01*
X180089905Y-108869061D01*
X179826889Y-108692050D01*
X179661052Y-108586271D01*
X179550354Y-108519627D01*
X179477070Y-108484378D01*
X179426554Y-108475563D01*
X179384156Y-108488218D01*
X179379208Y-108490789D01*
X179342247Y-108516325D01*
X179323432Y-108553579D01*
X179319220Y-108619326D01*
X179326068Y-108730339D01*
G36*
X178435689Y-113906635D02*
X178436955Y-113916254D01*
X178473329Y-114041832D01*
X178548352Y-114196859D01*
X178653694Y-114368059D01*
X178781028Y-114542154D01*
X178922026Y-114705868D01*
X178951491Y-114736562D01*
X179085347Y-114864152D01*
X179190377Y-114941185D01*
X179273085Y-114969867D01*
X179339976Y-114952401D01*
X179397557Y-114890995D01*
X179399289Y-114888375D01*
X179444079Y-114807749D01*
X179505580Y-114679254D01*
X179580634Y-114510967D01*
X179666079Y-114310967D01*
X179758755Y-114087332D01*
X179855503Y-113848141D01*
X179953162Y-113601471D01*
X180048572Y-113355402D01*
X180138573Y-113118012D01*
X180220005Y-112897379D01*
X180289708Y-112701581D01*
X180344521Y-112538696D01*
X180381285Y-112416804D01*
X180396840Y-112343982D01*
X180397150Y-112337487D01*
X180386383Y-112261637D01*
X180360933Y-112217614D01*
X180325228Y-112230888D01*
X180254118Y-112286901D01*
X180153688Y-112380320D01*
X180030022Y-112505813D01*
X180019620Y-112516749D01*
X179714581Y-112822467D01*
X179402824Y-113105325D01*
X179094095Y-113357367D01*
X178798139Y-113570638D01*
X178524701Y-113737182D01*
X178524495Y-113737294D01*
X178457192Y-113780485D01*
X178432111Y-113827690D01*
X178435689Y-113906635D01*
X178435689Y-113906635D01*
G37*
X178435689Y-113906635D02*
X178436955Y-113916254D01*
X178473329Y-114041832D01*
X178548352Y-114196859D01*
X178653694Y-114368059D01*
X178781028Y-114542154D01*
X178922026Y-114705868D01*
X178951491Y-114736562D01*
X179085347Y-114864152D01*
X179190377Y-114941185D01*
X179273085Y-114969867D01*
X179339976Y-114952401D01*
X179397557Y-114890995D01*
X179399289Y-114888375D01*
X179444079Y-114807749D01*
X179505580Y-114679254D01*
X179580634Y-114510967D01*
X179666079Y-114310967D01*
X179758755Y-114087332D01*
X179855503Y-113848141D01*
X179953162Y-113601471D01*
X180048572Y-113355402D01*
X180138573Y-113118012D01*
X180220005Y-112897379D01*
X180289708Y-112701581D01*
X180344521Y-112538696D01*
X180381285Y-112416804D01*
X180396840Y-112343982D01*
X180397150Y-112337487D01*
X180386383Y-112261637D01*
X180360933Y-112217614D01*
X180325228Y-112230888D01*
X180254118Y-112286901D01*
X180153688Y-112380320D01*
X180030022Y-112505813D01*
X180019620Y-112516749D01*
X179714581Y-112822467D01*
X179402824Y-113105325D01*
X179094095Y-113357367D01*
X178798139Y-113570638D01*
X178524701Y-113737182D01*
X178524495Y-113737294D01*
X178457192Y-113780485D01*
X178432111Y-113827690D01*
X178435689Y-113906635D01*
D12*
X166370000Y-102108000D03*
X165100000Y-102108000D03*
X163830000Y-102108000D03*
X162560000Y-102108000D03*
X161290000Y-102108000D03*
X160020000Y-102108000D03*
X158750000Y-102108000D03*
X157480000Y-102108000D03*
X156210000Y-102108000D03*
X154940000Y-102108000D03*
X153670000Y-102108000D03*
X152400000Y-102108000D03*
X151130000Y-102108000D03*
X149860000Y-102108000D03*
X148590000Y-102108000D03*
X166370000Y-103378000D03*
X165100000Y-103378000D03*
X163830000Y-103378000D03*
X162560000Y-103378000D03*
X161290000Y-103378000D03*
X160020000Y-103378000D03*
X158750000Y-103378000D03*
X157480000Y-103378000D03*
X156210000Y-103378000D03*
X154940000Y-103378000D03*
X153670000Y-103378000D03*
X152400000Y-103378000D03*
X151130000Y-103378000D03*
X149860000Y-103378000D03*
X148590000Y-103378000D03*
X166370000Y-104648000D03*
X165100000Y-104648000D03*
X163830000Y-104648000D03*
X162560000Y-104648000D03*
X161290000Y-104648000D03*
X160020000Y-104648000D03*
X158750000Y-104648000D03*
X157480000Y-104648000D03*
X156210000Y-104648000D03*
X154940000Y-104648000D03*
X153670000Y-104648000D03*
X152400000Y-104648000D03*
X151130000Y-104648000D03*
X149860000Y-104648000D03*
X148590000Y-104648000D03*
X166370000Y-105918000D03*
X165100000Y-105918000D03*
X163830000Y-105918000D03*
X162560000Y-105918000D03*
X161290000Y-105918000D03*
X160020000Y-105918000D03*
X158750000Y-105918000D03*
X157480000Y-105918000D03*
X156210000Y-105918000D03*
X154940000Y-105918000D03*
X153670000Y-105918000D03*
X152400000Y-105918000D03*
X151130000Y-105918000D03*
X149860000Y-105918000D03*
X148590000Y-105918000D03*
X166370000Y-107188000D03*
X165100000Y-107188000D03*
X163830000Y-107188000D03*
X162560000Y-107188000D03*
X161290000Y-107188000D03*
X160020000Y-107188000D03*
X158750000Y-107188000D03*
X157480000Y-107188000D03*
X156210000Y-107188000D03*
X154940000Y-107188000D03*
X153670000Y-107188000D03*
X152400000Y-107188000D03*
X151130000Y-107188000D03*
X149860000Y-107188000D03*
X166370000Y-121412000D03*
X165100000Y-121412000D03*
X163830000Y-121412000D03*
X162560000Y-121412000D03*
X161290000Y-121412000D03*
X160020000Y-121412000D03*
X158750000Y-121412000D03*
X157480000Y-121412000D03*
X156210000Y-121412000D03*
X154940000Y-121412000D03*
X153670000Y-121412000D03*
X152400000Y-121412000D03*
X151130000Y-121412000D03*
X149860000Y-121412000D03*
X148590000Y-121412000D03*
X166370000Y-120142000D03*
X165100000Y-120142000D03*
X163830000Y-120142000D03*
X162560000Y-120142000D03*
X161290000Y-120142000D03*
X160020000Y-120142000D03*
X158750000Y-120142000D03*
X157480000Y-120142000D03*
X156210000Y-120142000D03*
X154940000Y-120142000D03*
X153670000Y-120142000D03*
X152400000Y-120142000D03*
X151130000Y-120142000D03*
X149860000Y-120142000D03*
X148590000Y-120142000D03*
X166370000Y-118872000D03*
X165100000Y-118872000D03*
X163830000Y-118872000D03*
X162560000Y-118872000D03*
X161290000Y-118872000D03*
X160020000Y-118872000D03*
X158750000Y-118872000D03*
X157480000Y-118872000D03*
X156210000Y-118872000D03*
X154940000Y-118872000D03*
X153670000Y-118872000D03*
X152400000Y-118872000D03*
X151130000Y-118872000D03*
X149860000Y-118872000D03*
X148590000Y-118872000D03*
X166370000Y-117602000D03*
X165100000Y-117602000D03*
X163830000Y-117602000D03*
X162560000Y-117602000D03*
X161290000Y-117602000D03*
X160020000Y-117602000D03*
X158750000Y-117602000D03*
X157480000Y-117602000D03*
X156210000Y-117602000D03*
X154940000Y-117602000D03*
X153670000Y-117602000D03*
X152400000Y-117602000D03*
X151130000Y-117602000D03*
X149860000Y-117602000D03*
X148590000Y-117602000D03*
X166370000Y-116332000D03*
X165100000Y-116332000D03*
X163830000Y-116332000D03*
X162560000Y-116332000D03*
X161290000Y-116332000D03*
X160020000Y-116332000D03*
X158750000Y-116332000D03*
X157480000Y-116332000D03*
X156210000Y-116332000D03*
X154940000Y-116332000D03*
X153670000Y-116332000D03*
X152400000Y-116332000D03*
X151130000Y-116332000D03*
X149860000Y-116332000D03*
D13*
X166370000Y-111760000D03*
D14*
X172770000Y-112910000D03*
X159970000Y-110610000D03*
D13*
X148590000Y-111760000D03*
D14*
X154990000Y-112910000D03*
X142190000Y-110610000D03*
D15*
X137668000Y-110490000D03*
D16*
X137668000Y-113030000D03*
D17*
X195858000Y-125044000D03*
X198858000Y-125044000D03*
D18*
X189954000Y-114010000D03*
X197904000Y-114010000D03*
X189954000Y-109510000D03*
X197904000Y-109510000D03*
D19*
X138430000Y-123190000D03*
X207010000Y-123190000D03*
X138430000Y-100330000D03*
X207010000Y-100330000D03*
D12*
X148590000Y-116332000D03*
X148590000Y-107188000D03*
D20*
G36*
X171323000Y-104192606D02*
X171323000Y-107823000D01*
X143891000Y-107823000D01*
X143891000Y-104192606D01*
X148642606Y-99441000D01*
X166571394Y-99441000D01*
X171323000Y-104192606D01*
X171323000Y-104192606D01*
G37*
X171323000Y-104192606D02*
X171323000Y-107823000D01*
X143891000Y-107823000D01*
X143891000Y-104192606D01*
X148642606Y-99441000D01*
X166571394Y-99441000D01*
X171323000Y-104192606D01*
G36*
X171323000Y-119327394D02*
X166571394Y-124079000D01*
X148642606Y-124079000D01*
X143891000Y-119327394D01*
X143891000Y-115697000D01*
X171323000Y-115697000D01*
X171323000Y-119327394D01*
X171323000Y-119327394D01*
G37*
X171323000Y-119327394D02*
X166571394Y-124079000D01*
X148642606Y-124079000D01*
X143891000Y-119327394D01*
X143891000Y-115697000D01*
X171323000Y-115697000D01*
X171323000Y-119327394D01*
M02*
