M48
INCH,TZ
T1C0.012
T2C0.013
T3C0.030
T4C0.039
%
G90
G05
T1
X58500Y-40200
X58500Y-40700
X58500Y-41200
X58500Y-41700
X58500Y-42200
X58500Y-45800
X58500Y-46300
X58500Y-46800
X58500Y-47300
X58500Y-47800
X59000Y-40200
X59000Y-40700
X59000Y-41200
X59000Y-41700
X59000Y-42200
X59000Y-45800
X59000Y-46300
X59000Y-46800
X59000Y-47300
X59000Y-47800
X59500Y-40200
X59500Y-40700
X59500Y-41200
X59500Y-41700
X59500Y-42200
X59500Y-45800
X59500Y-46300
X59500Y-46800
X59500Y-47300
X59500Y-47800
X60000Y-40200
X60000Y-40700
X60000Y-41200
X60000Y-41700
X60000Y-42200
X60000Y-45800
X60000Y-46300
X60000Y-46800
X60000Y-47300
X60000Y-47800
X60500Y-40200
X60500Y-40700
X60500Y-41200
X60500Y-41700
X60500Y-42200
X60500Y-45800
X60500Y-46300
X60500Y-46800
X60500Y-47300
X60500Y-47800
X61000Y-40200
X61000Y-40700
X61000Y-41200
X61000Y-41700
X61000Y-42200
X61000Y-45800
X61000Y-46300
X61000Y-46800
X61000Y-47300
X61000Y-47800
X61500Y-40200
X61500Y-40700
X61500Y-41200
X61500Y-41700
X61500Y-42200
X61500Y-45800
X61500Y-46300
X61500Y-46800
X61500Y-47300
X61500Y-47800
X62000Y-40200
X62000Y-40700
X62000Y-41200
X62000Y-41700
X62000Y-42200
X62000Y-45800
X62000Y-46300
X62000Y-46800
X62000Y-47300
X62000Y-47800
X62500Y-40200
X62500Y-40700
X62500Y-41200
X62500Y-41700
X62500Y-42200
X62500Y-45800
X62500Y-46300
X62500Y-46800
X62500Y-47300
X62500Y-47800
X63000Y-40200
X63000Y-40700
X63000Y-41200
X63000Y-41700
X63000Y-42200
X63000Y-45800
X63000Y-46300
X63000Y-46800
X63000Y-47300
X63000Y-47800
X63500Y-40200
X63500Y-40700
X63500Y-41200
X63500Y-41700
X63500Y-42200
X63500Y-45800
X63500Y-46300
X63500Y-46800
X63500Y-47300
X63500Y-47800
X64000Y-40200
X64000Y-40700
X64000Y-41200
X64000Y-41700
X64000Y-42200
X64000Y-45800
X64000Y-46300
X64000Y-46800
X64000Y-47300
X64000Y-47800
X64500Y-40200
X64500Y-40700
X64500Y-41200
X64500Y-41700
X64500Y-42200
X64500Y-45800
X64500Y-46300
X64500Y-46800
X64500Y-47300
X64500Y-47800
X65000Y-40200
X65000Y-40700
X65000Y-41200
X65000Y-41700
X65000Y-42200
X65000Y-45800
X65000Y-46300
X65000Y-46800
X65000Y-47300
X65000Y-47800
X65500Y-40200
X65500Y-40700
X65500Y-41200
X65500Y-41700
X65500Y-42200
X65500Y-45800
X65500Y-46300
X65500Y-46800
X65500Y-47300
X65500Y-47800
T2
X71950Y-46900
X71950Y-48750
X72200Y-38350
X72300Y-46900
X72300Y-48750
X72650Y-46900
X72650Y-48750
X72710Y-40310
X73000Y-46900
X73000Y-48750
X73350Y-46900
X73350Y-48750
X73700Y-46900
X73700Y-48750
X74150Y-46500
X74750Y-41300
X74850Y-45800
X75500Y-47200
X76210Y-44069
X77150Y-45700
X77750Y-41000
X78000Y-47800
X78500Y-40500
X79900Y-44500
X80400Y-43500
T3
X69000Y-44500
T4
X54200Y-43500
X54200Y-44500
T0
M30
